<svg version="1.1" id="prefix__Capa_1" xmlns="http://www.w3.org/2000/svg" x="0" y="0" viewBox="0 0 255.1 190" xml:space="preserve"><style>.prefix__st0{fill:#fff}.prefix__st1{fill:#dce7f9}.prefix__st3{fill:#46373b}.prefix__st4{fill:#59494e}.prefix__st5{fill:#848484}.prefix__st6{fill:#a8a8a8}.prefix__st7{fill:#c9c9c9}.prefix__st9{fill:#867aec}.prefix__st11{fill:#6e67ef}.prefix__st12{opacity:.4;fill:#001a3f;enable-background:new}.prefix__st14{fill:none;stroke:#000;stroke-width:.5}.prefix__st15{fill:#e04c1e}.prefix__st16{fill:#fe733e}.prefix__st17{fill:#33211f}.prefix__st18{fill-opacity:.85}.prefix__st19{fill-opacity:.6021}</style><path id="prefix__path-1" class="prefix__st0" d="M4.1 54.4h135.1V132H4.1z"/><path class="prefix__st0" d="M0 0h255.1v190.1H0z"/><g id="prefix__Styleguide"><g id="prefix__Icons" transform="translate(-1024 -1412)"><g id="prefix__Illustration-_x2F_-Locker-XXL" transform="translate(1020 1408)"><g id="prefix__Group-5" transform="translate(4 4)"><g id="prefix__Group-118"><g id="prefix__Group-3" transform="translate(0 54.49)"><path id="prefix__Fill-1" class="prefix__st1" d="M38.7 75.3L7.9 57.9c-5.8-3.3-5-9.1 1.6-13L82.1 3.1c6.6-3.8 16.7-4.3 22.5-.9l30.7 17.4c5.8 3.3 5 9.1-1.6 13L61.1 74.4c-6.6 3.8-16.7 4.2-22.4.9"/></g><path id="prefix__Fill-4" d="M139.2 39.7V25.6c.2-2.2-1.1-4.4-3.9-6L104.6 2.2C100.6-.1 94.4-.6 88.9.6h-.2c-.5.1-1 .2-1.4.4-.1 0-.3.1-.4.1-.4.1-.8.2-1.2.4-.2.1-.3.1-.5.2-.4.1-.7.3-1.1.5-.2.1-.3.1-.5.2-.5.2-1 .5-1.4.7L9.6 45c-2.5 1.4-4.2 3.2-4.9 4.9-.3.7-.5 1.4-.5 2v54.4c-.2 2.2 1.1 4.4 3.9 6l30.6 17.5c5.8 3.3 15.8 2.9 22.5-.9L133.7 87c3.5-2 5.3-4.5 5.5-6.9V40.5v-.8" fill="#e8eef9"/><path id="prefix__Fill-6" class="prefix__st3" d="M94.5 17.1c2.1-1.2 3.8-3.9 3.9-6 0-2.1-1.7-2.8-3.8-1.6-2.1 1.2-3.8 3.9-3.9 6 0 2.1 1.7 2.8 3.8 1.6"/><path id="prefix__Fill-8" class="prefix__st3" d="M94.1 18.8l-2.6-1.4 6-8.2 2.6 1.6z"/><path id="prefix__Fill-10" class="prefix__st4" d="M97.2 18.7c2.1-1.2 3.8-3.9 3.9-6 0-2.1-1.7-2.8-3.8-1.6-2.1 1.2-3.8 3.9-3.9 6 0 2.1 1.7 2.8 3.8 1.6"/><path id="prefix__Fill-12" class="prefix__st0" d="M97.3 17c1.1-.6 1.9-2 1.9-3 0-1.1-.8-1.4-1.9-.8-1.1.6-1.9 2-1.9 3s.9 1.4 1.9.8"/><path id="prefix__Fill-14" class="prefix__st5" d="M90.5 14.5l4.7-2.7s1.2.8 2.4 1.8c1.2 1.1.3 2.3-1.5 2.7-2.3.6-5.8-1.1-5.8-1.1l.2-.7z"/><path id="prefix__Fill-16" class="prefix__st6" d="M90.5 14.5L87.8 13l4.7-2.7 2.7 1.6z"/><path id="prefix__Fill-18" class="prefix__st7" d="M87.6 13.8l2.6 1.5.3-.8-2.7-1.5z"/><path id="prefix__Fill-20" d="M20.6 80.5c.4.2 1.2.2 2.3-.4l24.4-13.9c2.3-1.3 4.3-4.4 4.3-6.6l.1-9.4c0-.4-.1-1.1-.5-1.3s-1.2-.2-2.3.4l-24.4 14c-2.3 1.3-4.3 4.4-4.3 6.6l-.1 9.4c0 .3 0 .7.2 1 .1 0 .2.1.3.2m34.1-30.2l-.1 9.4c0 3.3-2.6 7.2-5.8 9.1L24.4 82.6c-1.9 1.1-3.8 1.2-5.2.4-1.2-.7-1.9-2.1-1.9-3.8l.1-9.4c0-3.3 2.6-7.2 5.8-9.1l24.4-13.9c1.9-1.1 3.8-1.2 5.2-.4.6.3 1 .8 1.3 1.3.4.8.6 1.6.6 2.6" fill="#a0989e"/><path id="prefix__Fill-22" class="prefix__st9" d="M28.2 50.1l63.1-34.8 23.8 14.1-73.4 42.8z"/><path id="prefix__Fill-24" class="prefix__st9" d="M32.9 99.5l57.9-32.9c2.5-1.4 4.1-4.1 4.1-7.1l.2-37.2c0-6.3-6.7-10.2-12.2-7.1L25 48c-2.5 1.4-4.1 4.1-4.1 7.1l-.2 37.2c0 6.3 6.8 10.3 12.2 7.2"/><path id="prefix__Fill-26" class="prefix__st9" d="M24.1 99l24.1 14.3 4.1-29.6z"/><path id="prefix__Fill-28" d="M57.1 113.7L115 80.8c2.5-1.4 4.1-4.1 4.1-7.1l.2-37.2c0-6.3-6.7-10.2-12.2-7.1L49.2 62.3c-2.5 1.4-4.1 4.1-4.1 7.1l-.2 37.2c-.1 6.3 6.7 10.2 12.2 7.1" fill="#918cea"/><path id="prefix__Fill-30" class="prefix__st0" d="M94.7 22.4L36.8 55.3c-2.5 1.4-4.1 4.1-4.1 7.1l-.2 37.2c0 2.4.9 4.4 2.4 5.8-3.1-1.1-5.6-4-5.6-7.8l.2-37.2c0-2.9 1.6-5.6 4.1-7.1l57.9-32.9c3.4-1.9 8-1.3 10.5 1.1-2.1-.6-5.1-.3-7.3.9"/><path id="prefix__Fill-32" class="prefix__st11" d="M47.9 68.2s21.5-8 37.3-17.8c15.9-9.8 29.9-18.8 29.9-18.8l.1 1.7s-15.1 11-29.6 19.9c-14.4 9.1-37.7 16.6-37.7 16.6v-1.6z"/><path id="prefix__Fill-34" class="prefix__st11" d="M48 74.8s21.5-8 37.3-17.8c15.9-9.8 29.9-18.8 29.9-18.8l.1 1.7s-15.1 11-29.6 19.9C71.3 68.9 48 76.4 48 76.4v-1.6z"/><path id="prefix__Fill-36" class="prefix__st11" d="M48.1 82.1s21.5-8 37.3-17.8c15.9-9.8 29.9-18.8 29.9-18.8l.1 1.7s-15.1 11-29.6 19.9S48 83.5 48 83.5l.1-1.4z"/><path id="prefix__Fill-38" class="prefix__st11" d="M47.9 89.2s21.5-8 37.3-17.8c15.9-9.8 29.9-18.8 29.9-18.8l.1 1.7s-15.1 11-29.6 19.9c-14.5 9.1-37.7 16.6-37.7 16.6v-1.6z"/><path id="prefix__Fill-40" class="prefix__st11" d="M48 95.8s21.5-8 37.3-17.8c15.9-9.8 29.9-18.8 29.9-18.8l.1 1.7s-15.1 11-29.6 19.9C71.2 89.8 48 97.4 48 97.4v-1.6z"/><path id="prefix__Fill-42" class="prefix__st11" d="M48.1 103s21.5-8 37.3-17.8c15.9-9.8 29.9-18.8 29.9-18.8l.1 1.7s-15.1 11-29.6 19.9S48 104.4 48 104.4l.1-1.4z"/><path id="prefix__Fill-44" class="prefix__st11" d="M48.1 110s21.5-8 37.3-17.8c15.9-9.8 29.9-18.8 29.9-18.8l.1 1.7s-15.1 11-29.6 19.9S48 111.4 48 111.4l.1-1.4z"/><path id="prefix__Fill-46" class="prefix__st3" d="M119.7 31.4c2.1-1.2 3.8-3.9 3.9-6 0-2.1-1.7-2.8-3.8-1.6-2.1 1.2-3.8 3.9-3.9 6 0 2.1 1.7 2.8 3.8 1.6"/><path id="prefix__Fill-48" class="prefix__st3" d="M119.2 33.1l-2.5-1.5 5.9-8.1 2.7 1.5z"/><path id="prefix__Fill-50" class="prefix__st4" d="M122.4 32.9c2.1-1.2 3.8-3.9 3.9-6s-1.7-2.8-3.8-1.6c-2.1 1.2-3.8 3.9-3.9 6s1.6 2.8 3.8 1.6"/><path id="prefix__Fill-52" class="prefix__st0" d="M122.5 31.2c1.1-.6 1.9-2 1.9-3 0-1.1-.8-1.4-1.9-.8s-1.9 2-1.9 3c0 1.1.8 1.5 1.9.8"/><path id="prefix__Fill-54" class="prefix__st5" d="M115.6 28.8l4.7-2.7s1.2.8 2.4 1.8c1.2 1.1.3 2.3-1.5 2.7-2.3.6-5.6 1.1-5.6 1.1v-2.9z"/><path id="prefix__Fill-56" class="prefix__st6" d="M115.6 28.8l-2.6-1.6 4.7-2.7 2.7 1.6z"/><path id="prefix__Fill-58" class="prefix__st7" d="M112.8 28l2 1.2v2.2l.8.4v-3l-2.6-1.6z"/><path id="prefix__Fill-60" class="prefix__st3" d="M119.4 77c2.1-1.2 3.8-3.9 3.9-6 0-2.1-1.7-2.8-3.8-1.6-2.1 1.2-3.8 3.9-3.9 6 0 2 1.7 2.8 3.8 1.6"/><path id="prefix__Fill-62" class="prefix__st3" d="M119 78.7l-2.6-1.5 6-8.2 2.6 1.6z"/><path id="prefix__Fill-64" class="prefix__st4" d="M122.1 78.5c2.1-1.2 3.8-3.9 3.9-6 0-2.1-1.7-2.8-3.8-1.6s-3.8 3.9-3.9 6c0 2.1 1.7 2.8 3.8 1.6"/><path id="prefix__Fill-66" class="prefix__st0" d="M122.2 76.8c1.1-.6 1.9-2 1.9-3 0-1.1-.8-1.4-1.9-.8s-1.9 2-1.9 3c0 1.1.8 1.4 1.9.8"/><path id="prefix__Fill-68" class="prefix__st6" d="M114.4 76s5.1-2.8 6.7-2.9c1.3 0 1.8.6 1.7.6-.1-.1-7.7 2.9-7.7 2.9l-.7-.6z"/><path id="prefix__Fill-70" class="prefix__st5" d="M115.2 76.5v6.1s2.8-1.8 4.6-3.4c1.5-1.3 3-3.6 3.2-4.3.2-.8.4-2.1-3.1-.6-2.1 1-4.7 2.2-4.7 2.2"/><path id="prefix__Fill-72" class="prefix__st7" d="M114.4 76l.8.5-.1 6.1-1.5-.9.7-.5z"/><path id="prefix__Fill-74" class="prefix__st12" d="M39.3 75.1c5.5 3.2 15.1 2.8 21.5-.9l71.8-41.5c3.2-1.9 5.1-4.3 5.1-6.6 0-1.9-1.2-3.6-3.5-4.9l-30-17.6C98.7.4 89.1.8 82.7 4.5L10.9 46c-3.2 1.9-5.1 4.3-5.1 6.6 0 1.9 1.2 3.6 3.5 4.9l30 17.6zm9.3 3.6c-3.8 0-7.4-.8-10-2.3L8.5 58.8c-2.7-1.6-4.2-3.8-4.2-6.2 0-2.9 2.1-5.8 5.8-7.9L81.9 3.2c6.8-3.9 17.1-4.3 23-.9l30 17.6c2.7 1.6 4.2 3.8 4.2 6.2 0 2.9-2.1 5.8-5.8 7.9L61.6 75.5c-3.7 2.1-8.5 3.2-13 3.2z"/><path id="prefix__Fill-76" class="prefix__st12" d="M47.1 80.7h1v-2h-1z"/><path id="prefix__Fill-78" class="prefix__st12" d="M47.1 84.3h1v-1.9h-1z"/><path id="prefix__Fill-80" class="prefix__st12" d="M47.1 88h1v-2h-1z"/><path id="prefix__Fill-82" class="prefix__st12" d="M47.1 99h1v-2h-1z"/><path id="prefix__Fill-84" class="prefix__st12" d="M47.1 124.6h1v-2h-1z"/><path id="prefix__Fill-86" class="prefix__st12" d="M47.1 120.9h1V119h-1z"/><path id="prefix__Fill-88" class="prefix__st12" d="M47.1 131.9h1V130h-1z"/><path id="prefix__Fill-90" class="prefix__st12" d="M47.1 110h1v-2h-1z"/><path id="prefix__Fill-92" class="prefix__st12" d="M47.1 95.3h1v-1.9h-1z"/><path id="prefix__Fill-94" class="prefix__st12" d="M47.1 117.3h1v-2h-1z"/><path id="prefix__Fill-96" class="prefix__st12" d="M47.1 113.6h1v-1.9h-1z"/><path id="prefix__Fill-98" class="prefix__st12" d="M47.1 106.3h1v-2h-1z"/><path id="prefix__Fill-100" class="prefix__st12" d="M47.1 91.7h1v-2h-1z"/><path id="prefix__Fill-102" class="prefix__st12" d="M47.1 102.6h1v-1.9h-1z"/><path id="prefix__Fill-104" class="prefix__st12" d="M47.1 128.3h1v-2h-1z"/><path id="prefix__Fill-106" d="M202.1 76.1V62c.2-2.2-1.1-4.4-3.9-6l-30.7-17.4c-4-2.3-10.2-2.8-15.7-1.6h-.2c-.5.1-1 .2-1.4.4-.1 0-.3.1-.4.1-.4.1-.8.2-1.2.4-.2.1-.3.1-.5.2-.4.1-.7.3-1.1.5-.1.1-.3.1-.5.2-.5.2-1 .5-1.4.7L72.5 81.4c-2.5 1.4-4.2 3.2-4.9 4.9-.3.7-.5 1.4-.5 2v54.5c-.2 2.2 1.1 4.4 3.9 6l30.7 17.4c5.8 3.3 15.8 2.9 22.5-.9l72.5-41.9c3.5-2 5.3-4.5 5.5-7V76.9c-.1-.3-.1-.5-.1-.8" opacity=".7" fill="#e8eef9"/><path id="prefix__Fill-108" class="prefix__st1" d="M101.9 166.2l-30.8-17.4c-5.8-3.3-5-9.1 1.6-13l72.5-41.9c6.6-3.8 16.7-4.3 22.5-.9l30.7 17.4c5.8 3.3 5 9.1-1.6 13l-72.5 41.9c-6.6 3.8-16.7 4.2-22.4.9"/><path id="prefix__Stroke-110" class="prefix__st14" d="M207.9 119.1l15.2 8.3"/><path id="prefix__Stroke-112" class="prefix__st14" d="M114.7 173.2l15.2 8.2"/><path id="prefix__Stroke-114" class="prefix__st14" d="M179.6 143.3l35.9-20.4"/><path id="prefix__Stroke-116" class="prefix__st14" d="M122.3 177.5l31.8-18.5"/></g><g id="prefix__Group-196" transform="translate(43.2 36)"><path id="prefix__Stroke-119" class="prefix__st14" d="M65.8 136.8l-11.3 6.5"/><path id="prefix__Stroke-121" class="prefix__st14" d="M15.4 106.7l-11.3 6.6"/><path id="prefix__Stroke-123" class="prefix__st14" d="M40.6 128.7l10.2 5.8 9.4 5.4"/><path id="prefix__Stroke-125" class="prefix__st14" d="M8.9 110.5l10.2 5.8"/><path id="prefix__Stroke-128" class="prefix__st14" d="M179.9 72.6l-11.3 6.5"/><path id="prefix__Stroke-129" class="prefix__st14" d="M179.9 18.3l-11.3 6.5"/><path id="prefix__Stroke-130" class="prefix__st14" d="M173.4 69.3v7"/><path id="prefix__Stroke-131" class="prefix__st14" d="M173.4 22.3v9"/><path id="prefix__Fill-132" class="prefix__st15" d="M111.1 21l-10.6 5.7 17.1 11.4z"/><path id="prefix__Fill-133" class="prefix__st15" d="M141.1 39.8l-2.6 44.8-9.8 5.7-.7-59.4z"/><path id="prefix__Fill-134" class="prefix__st15" d="M108.4 25.3v27.1c0 1.9 1.1 19 2.8 19.9l22.2 12.1c3.7 2 8.4-.5 8.4-4.6V37.4c0-1.9-1.1-3.7-2.8-4.6l-22.2-12.1c-3.8-2.1-8.4.5-8.4 4.6"/><path id="prefix__Fill-135" class="prefix__st16" d="M97.8 31.2v42.4c0 1.9 1.1 3.7 2.8 4.6l22.2 12.1c3.7 2 8.4-.5 8.4-4.6V43.3c0-1.9-1.1-3.7-2.8-4.6l-22.2-12.1c-3.7-2-8.4.5-8.4 4.6"/><path id="prefix__Fill-136" class="prefix__st15" d="M101.7 45.2c0-6.9 3-9.3 11.3-5.1 10.9 5.5 11.1 10.2 11.1 17.4s-.2 33.2-.2 33.2-.6-.2-1.2-.5c-5.3-2.7-21-11.5-21-11.5V45.2z"/><path id="prefix__Fill-137" class="prefix__st0" d="M121.6 89.7c0-2.7.2-27.9.2-33.1 0-5.7-.4-9.2-9.2-14.1-2.2-1.2-3.9-1.8-5.3-1.8-.6 0-1.2.1-1.6.4-1.4.7-2 2.6-2 5.5V80c-.2-.1-.4-.2-.5-.3V46.5c0-3.1.8-5.1 2.3-5.9 1.7-.9 4.2-.4 7.5 1.5 8.5 4.8 9.4 8.1 9.4 14.5 0 5.5-.1 31.6-.2 33.4-.2-.2-.4-.2-.6-.3"/><path id="prefix__Fill-138" class="prefix__st17" d="M116.1 29.7l6.4 3.5c.9.5 2.6.4 3.6-.1 1.1-.6 1.2-1.5.3-2l-6.4-3.5c-.9-.5-2.6-.4-3.6.1-1.1.6-1.2 1.5-.3 2"/><path id="prefix__Fill-139" class="prefix__st0" d="M101.7 29.8l25.7 14v1.9l-25.7-14.1z"/><path id="prefix__Fill-140" class="prefix__st3" d="M142.2 79.4c0 2.4-1.5 5.2-3.5 6.3-1.9 1-3.5-.1-3.5-2.5s1.5-5.2 3.5-6.3c1.9-1 3.5.1 3.5 2.5"/><path id="prefix__Fill-141" class="prefix__st3" d="M142.2 77.5l-1.5-.9-4.3 9.2 1.6.9z"/><path id="prefix__Fill-142" class="prefix__st4" d="M143.7 80.2c0 2.4-1.5 5.2-3.5 6.3-1.9 1-3.5-.1-3.5-2.5s1.5-5.2 3.5-6.3c2-1 3.5.1 3.5 2.5"/><path id="prefix__Fill-143" class="prefix__st0" d="M142.2 81.2c0 1.2-.8 2.6-1.7 3.2-1 .5-1.7 0-1.7-1.2s.8-2.6 1.7-3.2c.9-.6 1.7 0 1.7 1.2"/><path id="prefix__Fill-144" class="prefix__st15" d="M92.5 30.8l-10.6 5.7L99 47.9z"/><path id="prefix__Fill-145" class="prefix__st15" d="M122.6 49.6L120 94.5l-9.9 5.6-.6-59.4z"/><path id="prefix__Fill-146" class="prefix__st15" d="M89.8 35.1v27.1c0 1.9 1.1 19 2.8 19.9l22.2 12.1c3.7 2 8.4-.5 8.4-4.6V47.2c0-1.9-1.1-3.7-2.8-4.6L98.3 30.5c-3.8-2-8.5.5-8.5 4.6"/><path id="prefix__Fill-147" class="prefix__st16" d="M79.3 41.1v42.4c0 1.9 1.1 3.7 2.8 4.6l22.2 12.1c3.7 2 8.4-.5 8.4-4.6V53.1c0-1.9-1.1-3.7-2.8-4.6L87.7 36.4c-3.7-2-8.4.6-8.4 4.7"/><path id="prefix__Fill-148" class="prefix__st15" d="M83.2 55.1c0-6.9 3-9.3 11.3-5.1 10.9 5.5 11.1 10.2 11.1 17.4s-.2 33.2-.2 33.2-.6-.2-1.2-.5c-5.3-2.7-21-11.5-21-11.5V55.1z"/><path id="prefix__Fill-149" class="prefix__st0" d="M103.1 99.5c0-2.7.2-27.9.2-33.1 0-5.7-.4-9.2-9.2-14.1-2.2-1.2-3.9-1.8-5.3-1.8-.6 0-1.2.1-1.6.4-1.4.7-2 2.6-2 5.5v33.4c-.2-.1-.4-.2-.5-.3V56.3c0-3.1.8-5.1 2.3-5.9 1.7-.9 4.2-.4 7.5 1.5 8.5 4.8 9.4 8.1 9.4 14.5 0 5.5-.1 31.6-.2 33.4-.3-.1-.5-.2-.6-.3"/><path id="prefix__Fill-150" class="prefix__st17" d="M97.6 39.5L104 43c.9.5 2.6.4 3.6-.1 1.1-.6 1.2-1.5.3-2l-6.4-3.5c-.9-.5-2.6-.4-3.6.1-1.2.6-1.3 1.5-.3 2"/><path id="prefix__Fill-151" class="prefix__st0" d="M83.2 39.6l25.6 14.1v1.8l-25.6-14z"/><path id="prefix__Fill-152" class="prefix__st3" d="M123.6 89.3c0 2.4-1.5 5.2-3.5 6.3-1.9 1-3.5-.1-3.5-2.5s1.5-5.2 3.5-6.3c2-1.1 3.5.1 3.5 2.5"/><path id="prefix__Fill-153" class="prefix__st3" d="M123.7 87.3l-1.6-.8-4.2 9.2 1.5.8z"/><path id="prefix__Fill-154" class="prefix__st4" d="M125.2 90.1c0 2.4-1.5 5.2-3.5 6.3-1.9 1-3.5-.1-3.5-2.5s1.5-5.2 3.5-6.3c1.9-1 3.5.1 3.5 2.5"/><path id="prefix__Fill-155" class="prefix__st0" d="M123.7 91c0 1.2-.8 2.6-1.7 3.2-1 .5-1.7 0-1.7-1.2s.8-2.6 1.7-3.2c.9-.6 1.7 0 1.7 1.2"/><path id="prefix__Fill-156" class="prefix__st15" d="M73.7 40.7l-10.6 5.7 17 11.4z"/><path id="prefix__Fill-157" class="prefix__st15" d="M103.7 59.5l-2.6 44.9-9.8 5.6-.7-59.4z"/><path id="prefix__Fill-158" class="prefix__st15" d="M71 45v27.1c0 1.9 1.1 19 2.8 19.9L96 104.2c3.7 2 8.4-.5 8.4-4.6V57.1c0-1.9-1.1-3.7-2.8-4.6L79.4 40.4c-3.8-2-8.4.5-8.4 4.6"/><path id="prefix__Fill-159" class="prefix__st16" d="M60.4 50.9v42.4c0 1.9 1.1 3.7 2.8 4.6L85.4 110c3.7 2 8.4-.5 8.4-4.6V63c0-1.9-1.1-3.7-2.8-4.6L68.8 46.3c-3.7-2-8.4.6-8.4 4.6"/><path id="prefix__Fill-160" class="prefix__st15" d="M64.3 65c0-6.9 3-9.3 11.3-5.1 10.9 5.5 11.1 10.2 11.1 17.4 0 7.2-.2 33.2-.2 33.2s-.6-.2-1.2-.5c-5.3-2.7-21-11.5-21-11.5V65z"/><path id="prefix__Fill-161" class="prefix__st0" d="M84.2 109.4c0-2.7.2-27.9.2-33.1 0-5.7-.4-9.2-9.2-14.1-2.2-1.2-3.9-1.8-5.3-1.8-.6 0-1.2.1-1.6.4-1.4.7-2 2.6-2 5.5v33.4c-.2-.1-.4-.2-.5-.3V66.2c0-3.1.8-5.1 2.3-5.9 1.7-.9 4.2-.4 7.5 1.5 8.5 4.8 9.4 8.1 9.4 14.5 0 5.5-.1 31.6-.2 33.4-.3-.1-.4-.2-.6-.3"/><path id="prefix__Fill-162" class="prefix__st17" d="M78.7 49.4l6.4 3.5c.9.5 2.6.4 3.6-.1 1.1-.6 1.2-1.5.3-2l-6.4-3.5c-1-.5-2.6-.5-3.7.1-1 .6-1.1 1.5-.2 2"/><path id="prefix__Fill-163" class="prefix__st0" d="M64.3 49.5l25.6 14v1.9l-25.6-14z"/><path id="prefix__Fill-164" class="prefix__st3" d="M104.8 99.2c0 2.4-1.5 5.2-3.5 6.3-1.9 1-3.5-.1-3.5-2.5s1.5-5.2 3.5-6.3c1.9-1.1 3.5.1 3.5 2.5"/><path id="prefix__Fill-165" class="prefix__st3" d="M104.8 97.2l-1.6-.8-4.2 9.1 1.6.9z"/><path id="prefix__Fill-166" class="prefix__st4" d="M106.3 100c0 2.4-1.5 5.2-3.5 6.3-1.9 1-3.5-.1-3.5-2.5s1.5-5.2 3.5-6.3c2-1.1 3.5.1 3.5 2.5"/><path id="prefix__Fill-167" class="prefix__st0" d="M104.8 100.9c0 1.2-.8 2.6-1.7 3.2-1 .5-1.7 0-1.7-1.2s.8-2.6 1.7-3.2 1.7 0 1.7 1.2"/><path id="prefix__Fill-168" class="prefix__st15" d="M55.1 50.5l-10.6 5.7 17.1 11.4z"/><path id="prefix__Fill-169" class="prefix__st15" d="M85.2 69.3l-2.6 44.9-9.9 5.6-.6-59.4z"/><path id="prefix__Fill-170" class="prefix__st15" d="M52.4 54.9V82c0 1.9 1.1 19 2.8 19.9L77.4 114c3.7 2 8.4-.5 8.4-4.6V67c0-1.9-1.1-3.7-2.8-4.6L60.8 50.3c-3.7-2.1-8.4.5-8.4 4.6"/><path id="prefix__Fill-171" class="prefix__st16" d="M41.9 60.8v42.4c0 1.9 1.1 3.7 2.8 4.6l22.2 12.1c3.7 2 8.4-.5 8.4-4.6V72.9c0-1.9-1.1-3.7-2.8-4.6L50.3 56.2c-3.7-2.1-8.4.5-8.4 4.6"/><path id="prefix__Fill-172" class="prefix__st15" d="M45.8 74.8c0-6.9 3-9.3 11.3-5.1C68 75.2 68.2 79.9 68.2 87.1c0 7.2-.2 33.2-.2 33.2s-.6-.2-1.2-.5c-5.3-2.7-21-11.5-21-11.5V74.8z"/><path id="prefix__Fill-173" class="prefix__st0" d="M65.7 119.2c0-2.7.2-27.9.2-33.1 0-5.7-.4-9.2-9.2-14.1-2.2-1.2-3.9-1.8-5.3-1.8-.6 0-1.2.1-1.6.4-1.4.7-2 2.6-2 5.5v33.4c-.2-.1-.4-.2-.5-.3V76c0-3.1.8-5.1 2.3-5.9 1.7-.9 4.2-.4 7.5 1.5 8.5 4.8 9.4 8.1 9.4 14.5 0 5.5-.1 31.6-.2 33.4-.3-.1-.5-.1-.6-.3"/><path id="prefix__Fill-174" class="prefix__st17" d="M60.1 59.2l6.4 3.5c.9.5 2.6.4 3.6-.1 1.1-.6 1.2-1.5.3-2L64 57.1c-.9-.5-2.6-.4-3.6.1-1.1.6-1.2 1.5-.3 2"/><path id="prefix__Fill-175" class="prefix__st0" d="M45.8 59.3l25.6 14.1v1.8l-25.6-14z"/><path id="prefix__Fill-176" class="prefix__st3" d="M86.2 109c0 2.4-1.5 5.2-3.5 6.3-1.9 1-3.5-.1-3.5-2.5s1.5-5.2 3.5-6.3c2-1 3.5.1 3.5 2.5"/><path id="prefix__Fill-177" class="prefix__st3" d="M86.3 107l-1.6-.8-4.2 9.2 1.5.9z"/><path id="prefix__Fill-178" class="prefix__st4" d="M87.8 109.8c0 2.4-1.5 5.2-3.5 6.3-1.9 1-3.5-.1-3.5-2.5s1.5-5.2 3.5-6.3c1.9-1 3.5.1 3.5 2.5"/><path id="prefix__Fill-179" class="prefix__st0" d="M86.3 110.8c0 1.2-.8 2.6-1.7 3.2-1 .5-1.7 0-1.7-1.2s.8-2.6 1.7-3.2c.9-.6 1.7-.1 1.7 1.2"/><path id="prefix__Fill-180" class="prefix__st12" d="M59.1 75.5c5.5 3.2 15.1 2.8 21.5-.9l71.8-41.5c3.2-1.9 5.1-4.3 5.1-6.6 0-1.9-1.2-3.6-3.5-4.9L124 4c-5.5-3.2-15.1-2.8-21.5.9L30.7 46.4c-3.2 1.9-5.1 4.3-5.1 6.6 0 1.9 1.2 3.6 3.5 4.9l30 17.6zm9.3 3.6c-3.8 0-7.4-.8-10-2.3l-30-17.6c-2.7-1.6-4.2-3.8-4.2-6.2 0-2.9 2.1-5.8 5.8-7.9l71.8-41.5c6.8-3.9 17.1-4.3 23-.9l30 17.6c2.7 1.6 4.2 3.8 4.2 6.2 0 2.9-2.1 5.8-5.8 7.9L81.3 75.9c-3.7 2.1-8.4 3.2-12.9 3.2z"/><path id="prefix__Fill-181" class="prefix__st12" d="M70 81.1h1.1v-2H70z"/><path id="prefix__Fill-182" class="prefix__st12" d="M70 84.8h1.1v-2H70z"/><path id="prefix__Fill-183" class="prefix__st12" d="M70 88.4h1.1v-1.9H70z"/><path id="prefix__Fill-184" class="prefix__st12" d="M70 99.4h1.1v-2H70z"/><path id="prefix__Fill-185" class="prefix__st12" d="M70 125h1.1v-1.9H70z"/><path id="prefix__Fill-186" class="prefix__st12" d="M70 121.4h1.1v-2H70z"/><path id="prefix__Fill-187" class="prefix__st12" d="M70 132.3h1.1v-1.9H70z"/><path id="prefix__Fill-188" class="prefix__st12" d="M70 110.4h1.1v-2H70z"/><path id="prefix__Fill-189" class="prefix__st12" d="M70 95.7h1.1v-1.9H70z"/><path id="prefix__Fill-190" class="prefix__st12" d="M70 117.7h1.1v-2H70z"/><path id="prefix__Fill-191" class="prefix__st12" d="M70 114h1.1v-1.9H70z"/><path id="prefix__Fill-192" class="prefix__st12" d="M70 106.7h1.1v-1.9H70z"/><path id="prefix__Fill-193" class="prefix__st12" d="M70 92.1h1.1v-2H70z"/><path id="prefix__Fill-194" class="prefix__st12" d="M70 103.1h1.1v-2H70z"/><path id="prefix__Fill-195" class="prefix__st12" d="M70 128.7h1.1v-2H70z"/></g></g><g id="prefix__Group" transform="translate(35.331 71.774)"><g id="prefix__Group-2" transform="translate(.669 88.226)"><path id="prefix__Rectangle" class="prefix__st18" d="M4.1-.2h40v16h-40z"/><path id="prefix___x34_0cm" class="prefix__st0" d="M12.3 13.8c.1 0 .2 0 .2-.1.1-.1.1-.1.1-.2v-2h1.3c.1 0 .2 0 .2-.1.1-.1.1-.1.1-.2v-.5c0-.1 0-.2-.1-.2-.1-.1-.1-.1-.2-.1h-1.3V4.3c0-.1 0-.2-.1-.2-.1-.1-.1-.1-.2-.1h-1c-.1 0-.2 0-.3.1s-.2.1-.2.2l-4.2 5.9c-.1.1-.2.3-.2.4v.5c0 .1 0 .2.1.2.1.1.1.1.2.1h4.6v2c0 .1 0 .2.1.2.1.1.1.1.2.1h.7v.1zm-.9-3.5H7.9l3.4-4.9.1 4.9zm7.7 3.6c1.2 0 2.1-.4 2.7-1.1.6-.7.9-1.6.9-2.8V8.8 7.6c0-1.1-.3-2-.9-2.8s-1.4-1.1-2.7-1.1c-1.2 0-2.1.4-2.6 1.1s-.9 1.6-.9 2.8V10c0 1.1.3 2.1.9 2.8.6.8 1.4 1.1 2.6 1.1zm0-1.1c-.7 0-1.2-.2-1.6-.7s-.6-1.1-.6-2V7.8c0-.9.2-1.5.6-2s.9-.7 1.6-.7 1.2.2 1.6.7.6 1.2.6 2v2.3c0 .9-.2 1.5-.6 2-.3.4-.8.7-1.6.7zm10.7 1.1c.5 0 .9-.1 1.2-.3s.6-.4.7-.6.3-.5.3-.8c0-.1 0-.1-.1-.2-.1 0-.1-.1-.2-.1h-.5s-.1.1-.1.2c-.1.3-.3.6-.5.7s-.5.2-.8.2c-.4 0-.8-.1-1-.4-.2-.3-.4-.7-.4-1.2v-.7c0-.5.2-.9.4-1.2.2-.3.6-.4 1-.4.3 0 .6.1.8.2.2.1.4.4.5.7 0 .1.1.1.1.2s.1 0 .1 0h.4c.1 0 .1 0 .2-.1 0 0 .1-.1.1-.2 0-.3-.1-.5-.3-.8s-.3-.2-.6-.3-.7-.3-1.2-.3c-.7 0-1.3.2-1.7.6-.4.4-.6 1-.6 1.7v.8c0 .7.2 1.3.6 1.7.4.4.9.6 1.6.6zm4.1-.1c.1 0 .1 0 .2-.1 0 0 .1-.1.1-.2v-2.7c0-.5.1-.9.3-1.1s.5-.4.8-.4.6.1.9.4.3.6.3 1.1v2.8c0 .1 0 .1.1.2 0 0 .1.1.2.1h.4c.1 0 .1 0 .2-.1 0 0 .1-.1.1-.2v-2.8c0-.5.1-.9.3-1.1s.5-.4.8-.4c.4 0 .7.1.9.3s.3.6.3 1.1v2.8c0 .1 0 .1.1.2 0 0 .1.1.2.1h.4c.1 0 .1 0 .2-.1 0 0 .1-.1.1-.2v-2.9c0-.7-.2-1.2-.5-1.6-.3-.4-.8-.6-1.3-.6-.4 0-.7.1-1 .2-.3.2-.5.4-.7.7-.3-.6-.8-.9-1.6-.9-.6 0-1.1.2-1.5.7v-.3c0-.1 0-.1-.1-.2 0 0-.1-.1-.2-.1h-.4c-.1 0-.1 0-.2.1 0 0-.1.1-.1.2v4.7c0 .1 0 .1.1.2 0 0 .1.1.2.1h.4z"/><path id="prefix__Rectangle-Copy" class="prefix__st19" d="M4.1 17.8h40v16h-40z"/><path id="prefix___x31_6in" class="prefix__st0" d="M13.6 30.8c.1 0 .2 0 .2-.1.1-.1.1-.1.1-.2v-9.2c0-.1 0-.2-.1-.2-.1-.1-.1-.1-.2-.1H13c-.1 0-.3 0-.4.1l-3 2.4c-.1.1-.1.1-.1.3 0 .1 0 .1.1.2l.3.4c.1.1.2.1.2.1.1 0 .1 0 .2-.1l2.4-1.8v7.9c0 .1 0 .2.1.2.1.1.1.1.2.1h.6zm5.7.1c.7 0 1.4-.2 1.9-.5s1-.7 1.2-1.2c.3-.5.4-1.1.4-1.7s-.1-1.1-.4-1.6-.7-.9-1.2-1.2-1.1-.5-1.8-.5c-.3 0-.6 0-.8.1l2-2.9c0-.1.1-.1.1-.2s0-.2-.1-.2c-.1-.1-.1-.1-.2-.1H19.5c-.1 0-.1.1-.2.1 0 .1-.1.1-.1.1l-2.7 3.7c-.6.9-1 1.8-1 2.6 0 .6.1 1.2.4 1.7s.7.9 1.2 1.2c.8.5 1.5.6 2.2.6zm0-1.1c-.4 0-.8-.1-1.1-.3-.3-.2-.6-.4-.8-.7-.2-.3-.3-.7-.3-1.2s.1-.9.3-1.2c.2-.3.5-.6.8-.8.3-.2.7-.3 1.1-.3s.8.1 1.1.3.6.4.8.8c.2.3.3.7.3 1.2s-.1.9-.3 1.2-.5.6-.8.7-.7.3-1.1.3zm9-5.2c.1 0 .1 0 .2-.1 0 0 .1-.1.1-.2v-.5c0-.1 0-.1-.1-.2s-.1-.1-.2-.1h-.6c-.1 0-.1 0-.2.1s-.1.1-.1.2v.5c0 .1 0 .1.1.2 0 0 .1.1.2.1h.6zm0 6.2c.1 0 .1 0 .2-.1s.1-.1.1-.2v-4.7c0-.1 0-.1-.1-.2s-.1-.1-.2-.1h-.4c-.1 0-.1 0-.2.1 0 0-.1.1-.1.2v4.7c0 .1 0 .1.1.2 0 0 .1.1.2.1h.4zm2.4 0c.1 0 .1 0 .2-.1s.1-.1.1-.2v-2.7c0-.5.1-.8.4-1.1.3-.3.6-.4 1-.4s.8.1 1 .4.3.6.3 1.1v2.8c0 .1 0 .1.1.2 0 0 .1.1.2.1h.5c.1 0 .1 0 .2-.1 0 0 .1-.1.1-.2v-2.8c0-.7-.2-1.2-.5-1.6-.4-.4-.8-.6-1.5-.6-.4 0-.7.1-1 .2s-.5.3-.7.6v-.6c0-.1 0-.1-.1-.2 0 0-.1-.1-.2-.1h-.4c-.1 0-.1 0-.2.1 0 0-.1.1-.1.2v4.7c0 .1 0 .1.1.2 0 0 .1.1.2.1h.3z"/></g><g id="prefix__Group-3_1_" transform="translate(168.669 .226)"><path id="prefix__Rectangle-Copy-6" class="prefix__st19" d="M4.1 18.8h47v16h-47z"/><path id="prefix__Rectangle-Copy-7" class="prefix__st18" d="M4.1.8h47v16h-47z"/><path id="prefix___x36_2cm" class="prefix__st0" d="M10.8 12.9c.7 0 1.4-.2 1.9-.5s1-.7 1.2-1.2c.3-.5.4-1.1.4-1.7 0-.6-.1-1.1-.4-1.6-.3-.5-.7-.9-1.2-1.2-.5-.3-1.1-.5-1.8-.5-.3 0-.6 0-.8.1l2-2.9c0-.1.1-.1.1-.2s0-.2-.1-.2c-.1-.1-.1-.1-.2-.1H11s0 .2-.1.3l-.1.1L8.2 7c-.6.9-1 1.8-1 2.6 0 .6.1 1.2.4 1.7s.7.9 1.2 1.2c.6.3 1.3.4 2 .4zm0-1.1c-.4 0-.8-.1-1.1-.3s-.6-.4-.8-.7-.3-.7-.3-1.2.1-.9.3-1.2c.2-.3.4-.6.8-.8.3-.2.7-.3 1.1-.3.4 0 .8.1 1.1.3.3.2.6.4.8.8s.3.7.3 1.2-.1.9-.3 1.2-.5.6-.8.7c-.3.2-.7.3-1.1.3zm11.3 1c.1 0 .2 0 .2-.1.1-.1.1-.1.1-.2V12c0-.1 0-.2-.1-.2s-.1-.1-.2-.1h-4.4l2.7-2.9c.6-.5 1.1-1 1.3-1.5.3-.5.4-1 .4-1.6 0-.8-.3-1.5-.8-2.1-.4-.5-1.2-.8-2.3-.8-.7 0-1.3.1-1.8.4s-.9.7-1.1 1.1c-.2.5-.4.9-.4 1.4 0 .1 0 .1.1.2s.1.1.2.1h.7c.1 0 .1 0 .2-.1.1.1.2 0 .2-.1.1-.6.3-1 .6-1.3.3-.3.8-.5 1.3-.5.6 0 1 .2 1.3.5.4.3.5.7.5 1.3 0 .4-.1.8-.4 1.2-.2.3-.7.8-1.4 1.4l-3.1 3c-.2.2-.3.4-.3.6v.4c0 .1 0 .2.1.2.1.1.1.1.2.1l6.2.1zm7.3.1c.5 0 .9-.1 1.2-.3s.6-.4.7-.6c.2-.3.3-.5.3-.8 0-.1 0-.1-.1-.2s-.1-.1-.2-.1h-.5s-.1.1-.1.2c-.1.3-.3.6-.5.7s-.5.2-.8.2c-.4 0-.8-.1-1-.4-.2-.3-.4-.7-.4-1.2v-.7c0-.5.2-.9.4-1.2.2-.3.6-.4 1-.4.3 0 .6.1.8.2.2.1.4.4.5.7 0 .1.1.1.1.2h.5c.1 0 .1 0 .2-.1 0 0 .1-.1.1-.2 0-.3-.1-.5-.3-.8-.2-.3-.4-.5-.7-.6s-.7-.3-1.2-.3c-.7 0-1.3.2-1.7.6-.4.4-.6 1-.6 1.7v.8c0 .7.2 1.3.6 1.7.4.7 1 .9 1.7.9zm4.1-.1c.1 0 .1 0 .2-.1 0 0 .1-.1.1-.2V9.8c0-.5.1-.9.3-1.1s.5-.4.8-.4.6.1.9.4.3.6.3 1.1v2.8c0 .1 0 .1.1.2 0 0 .1.1.2.1h.4c.1 0 .1 0 .2-.1 0 0 .1-.1.1-.2V9.8c0-.5.1-.9.3-1.1s.5-.4.8-.4c.4 0 .7.1.9.3s.3.6.3 1.1v2.8c0 .1 0 .1.1.2 0 0 .1.1.2.1h.3c.1 0 .1 0 .2-.1 0 0 .1-.1.1-.2V9.7c0-.7-.2-1.2-.5-1.6-.3-.4-.8-.6-1.3-.6-.4 0-.7.1-1 .2-.3.2-.5.4-.7.7-.3-.6-.8-.9-1.6-.9-.6 0-1.1.2-1.5.7v-.4c0-.1 0-.1-.1-.2 0 0-.1-.1-.2-.1H33c-.1 0-.1 0-.2.1 0 0-.1.1-.1.2v4.7c0 .1 0 .1.1.2 0 0 .1.1.2.1h.5z"/><path id="prefix___x32_4_x2C_5in" class="prefix__st0" d="M13.5 31.1c.1 0 .2 0 .2-.1s.1-.1.1-.2v-.5c0-.1 0-.2-.1-.2-.1-.1-.1-.1-.2-.1H9.1l2.8-2.8c.6-.5 1.1-1 1.3-1.5.3-.5.4-1 .4-1.6 0-.8-.3-1.5-.8-2.1s-1.3-.8-2.4-.8c-.7 0-1.3.1-1.8.4s-.9.7-1.1 1.1-.4.9-.4 1.4c0 .1 0 .1.1.2s.1.1.2.1h.7c.1 0 .1 0 .2-.1s.1-.1.1-.2c.1-.6.3-1 .6-1.3s.8-.5 1.3-.5c.6 0 1 .2 1.3.5s.5.7.5 1.3c0 .4-.1.8-.4 1.2-.3.4-.7.9-1.4 1.4l-3.1 3c-.2.2-.3.4-.3.6v.5c0 .1 0 .2.1.2.1.1.1.1.2.1h6.3zm7.2 0c.1 0 .2 0 .2-.1.1 0 .1-.1.1-.2v-2h1.3c.1 0 .2 0 .2-.1.1-.1.1-.1.1-.2V28c0-.1 0-.2-.1-.2s-.1-.1-.2-.1H21v-5.9c0-.1 0-.2-.1-.2-.1-.1-.1-.1-.2-.1h-1c-.1 0-.2 0-.3.1-.1 0-.2.1-.2.2L15 27.5c-.1.1-.2.3-.2.4v.5c0 .1 0 .2.1.2.1.1.1.1.2.1h4.5v2c0 .1 0 .2.1.2.1.1.1.1.2.1l.8.1zm-1-3.5h-3.4l3.4-4.9v4.9zm4.5 4.6c.2 0 .3-.1.4-.3l.7-1.9c0-.1.1-.2.1-.2 0-.1 0-.1-.1-.2 0-.1-.1-.1-.2-.1h-.9c-.2 0-.4.1-.4.4l-.3 2v.2s.1.1.2.1h.5zm6.2-.9c.7 0 1.3-.1 1.8-.4.5-.3 1-.6 1.3-1.1s.5-1.1.5-1.8-.2-1.2-.5-1.7-.7-.8-1.2-1.1c-.5-.2-1.1-.4-1.7-.4-.8 0-1.4.2-1.8.5l.3-2.8h4c.1 0 .2 0 .2-.1s.1-.1.1-.2v-.5c0-.1 0-.2-.1-.2s-.1-.1-.2-.1h-4.8c-.2 0-.3.1-.4.3l-.4 4.7c0 .1 0 .2.1.2.1.1.1.1.2.1h.7c.1 0 .2 0 .3-.1.1 0 .2-.1.3-.2.2-.2.4-.3.6-.4s.5-.1.8-.1c.6 0 1.2.2 1.6.6.4.4.6.9.6 1.5 0 .7-.2 1.2-.6 1.6-.4.4-.9.6-1.6.6-.5 0-.9-.1-1.3-.4s-.6-.6-.8-1.1c-.1-.2-.2-.3-.4-.3h-.7c-.1 0-.1 0-.2.1-.1 0-.1.1-.1.2 0 .5.2.9.4 1.3.3.4.7.7 1.2 1 .5.1 1.1.3 1.8.3zm9.1-6.4c.1 0 .1 0 .2-.1 0 0 .1-.1.1-.2v-.5c0-.1 0-.1-.1-.2 0 0-.1-.1-.2-.1h-.6c-.1 0-.1 0-.2.1 0 0-.1.1-.1.2v.5c0 .1 0 .1.1.2 0 0 .1.1.2.1h.6zm0 6.2c.1 0 .1 0 .2-.1s.1-.1.1-.2v-4.7c0-.1 0-.1-.1-.2s-.1-.1-.2-.1H39c-.1 0-.1 0-.2.1 0 0-.1.1-.1.2v4.7c0 .1 0 .1.1.2 0 0 .1.1.2.1h.5zm2.4 0c.1 0 .1 0 .2-.1 0 0 .1-.1.1-.2V28c0-.5.1-.8.4-1.1.3-.3.6-.4 1-.4s.8.1 1 .4.4.6.4 1.1v2.8c0 .1 0 .1.1.2 0 0 .1.1.2.1h.5c.1 0 .1 0 .2-.1s.1-.1.1-.2V28c0-.7-.2-1.2-.5-1.6s-1.2-.6-1.8-.6c-.4 0-.7.1-1 .2s-.5.3-.7.6v-.4c0-.1 0-.1-.1-.2 0 0-.1-.1-.2-.1h-.4c-.1 0-.1 0-.2.1 0 0-.1.1-.1.2v4.7c0 .1 0 .1.1.2 0 0 .1.1.2.1h.5v-.1z"/></g><g id="prefix__Group-4" transform="translate(123.669 78.226)"><path id="prefix__Rectangle-Copy-5" class="prefix__st19" d="M4.1 18.8h47v16h-47z"/><path id="prefix__Rectangle-Copy-4" class="prefix__st18" d="M4.1.8h47v16h-47z"/><path id="prefix___x38_5cm" class="prefix__st0" d="M11 12.9c.7 0 1.3-.1 1.9-.4s1-.6 1.3-1 .5-1 .5-1.6-.1-1-.4-1.5c-.3-.4-.6-.7-1.1-1 .4-.2.6-.5.9-.9.2-.3.3-.8.3-1.2 0-.8-.3-1.5-.9-1.9-.7-.3-1.5-.5-2.5-.5s-1.8.2-2.4.7-.9 1.1-.9 1.9c0 .5.1.9.3 1.2.2.3.5.6.9.8-.5.3-.9.6-1.2 1s-.4.9-.4 1.4c0 .6.2 1.1.5 1.6.3.4.7.8 1.3 1 .5.3 1.2.4 1.9.4zm0-5.8c-.6 0-1.1-.1-1.5-.4s-.6-.7-.6-1.2.2-.9.6-1.1c.4-.3.9-.4 1.5-.4s1.1.1 1.4.4.6.6.6 1.1-.2.8-.6 1.1c-.4.3-.9.5-1.4.5zm0 4.7c-.7 0-1.2-.2-1.7-.5-.4-.3-.7-.8-.7-1.3 0-.6.2-1 .7-1.3.4-.3 1-.5 1.7-.5s1.2.2 1.7.5c.4.3.7.8.7 1.3 0 .6-.2 1-.7 1.3-.5.4-1.1.5-1.7.5zm8.5 1.1c.7 0 1.3-.1 1.8-.4.5-.3 1-.6 1.3-1.1s.4-1.1.4-1.8-.2-1.2-.5-1.7-.7-.8-1.2-1.1c-.5-.2-1.1-.4-1.7-.4-.8 0-1.4.2-1.8.5l.3-2.8h4c.1 0 .2 0 .2-.1.1-.1.1-.1.1-.2v-.5c0-.1 0-.2-.1-.2s-.1-.1-.2-.1h-4.8c-.2 0-.3.1-.4.3L16.5 8c0 .1 0 .2.1.2.1.1.1.1.2.1h.7c.1 0 .2 0 .3-.1.1 0 .2-.1.3-.2.2-.2.4-.3.6-.4s.5-.1.8-.1c.6 0 1.2.2 1.6.6.4.4.6.9.6 1.5 0 .7-.2 1.2-.6 1.6-.4.4-.9.6-1.6.6-.5 0-.9-.1-1.3-.4-.4-.2-.6-.6-.8-1.1-.1-.2-.2-.3-.4-.3h-.7c-.1 0-.1 0-.2.1-.1 0-.1.1-.1.2 0 .5.2.9.4 1.3.3.4.7.7 1.2 1 .6.2 1.2.3 1.9.3zm10.5 0c.5 0 .9-.1 1.2-.3s.6-.4.7-.6c.2-.3.3-.5.3-.8 0-.1 0-.1-.1-.2 0 0-.1-.1-.2-.1h-.5s-.1.1-.1.2c-.1.3-.3.6-.5.7s-.5.2-.8.2c-.4 0-.8-.1-1-.4-.2-.3-.4-.7-.4-1.2v-.7c0-.5.2-.9.4-1.2.2-.3.6-.4 1-.4.3 0 .6.1.8.2.2.3.3.5.5.9 0 .1.1.1.1.2s.1 0 .1 0h.5c.1 0 .1 0 .2-.1.1 0 .1-.1.1-.2 0-.3-.1-.5-.3-.8s-.4-.5-.7-.6c-.3-.2-.7-.3-1.2-.3-.7 0-1.3.2-1.7.6-.4.4-.6 1-.6 1.7v.8c0 .7.2 1.3.6 1.7.3.5.9.7 1.6.7zm4.1-.1c.1 0 .1 0 .2-.1 0 0 .1-.1.1-.2V9.8c0-.5.1-.9.3-1.1s.5-.4.8-.4.6.1.9.4.3.6.3 1.1v2.8c0 .1 0 .1.1.2 0 0 .1.1.2.1h.4c.1 0 .1 0 .2-.1 0 0 .1-.1.1-.2V9.8c0-.5.1-.9.3-1.1s.5-.4.8-.4c.4 0 .6.1.9.3.2.2.3.6.3 1.1v2.8c0 .1 0 .1.1.2 0 0 .1.1.2.1h.4c.1 0 .1 0 .2-.1 0 0 .1-.1.1-.2V9.7c0-.7-.2-1.2-.5-1.6-.5-.4-1-.6-1.5-.6-.4 0-.7.1-1 .2-.3.2-.5.4-.7.7-.3-.6-.8-.9-1.6-.9-.6 0-1.1.2-1.5.7v-.4c0-.1 0-.1-.1-.2 0 0-.1-.1-.2-.1h-.4c-.1 0-.1 0-.2.1 0 0-.1.1-.1.2v4.7c0 .1 0 .1.1.2 0 0 .1.1.2.1h.6z"/><path id="prefix___x33_3_x2C_5in" class="prefix__st0" d="M10.5 31.3c.7 0 1.3-.1 1.8-.4.5-.2 1-.6 1.3-1s.5-1 .5-1.6c0-.9-.3-1.6-.8-2s-1.3-.7-2.3-.7h-.2l2.7-3.1c.1-.1.1-.2.1-.3v-.5c0-.1 0-.2-.1-.2-.1-.1-.1-.1-.2-.1H7.7c-.1 0-.2 0-.2.1s-.1.1-.1.2v.5c0 .1 0 .2.1.2s.1.1.2.1h4.1l-2.7 3c-.1.1-.1.2-.1.4v.4c0 .1 0 .2.1.2.1.1.1.1.2.1h1.3c1.4 0 2.1.6 2.1 1.7 0 .6-.2 1.1-.6 1.4-.4.3-.9.5-1.6.5-.6 0-1-.1-1.4-.3-.4-.2-.7-.5-.8-1 0-.1-.1-.2-.2-.2s-.1-.2-.2-.2h-.6c-.1 0-.2 0-.2.1-.1 0-.1.1-.1.2 0 .4.2.8.4 1.2.3.4.7.7 1.2.9.6.2 1.2.4 1.9.4zm8.4 0c.7 0 1.3-.1 1.8-.4.5-.2 1-.6 1.3-1s.5-1 .5-1.6c0-.9-.3-1.6-.8-2s-1.3-.7-2.3-.7h-.2l2.7-3.1c.1-.1.1-.2.1-.3v-.5c0-.1 0-.2-.1-.2-.1-.1-.1-.1-.2-.1h-5.5c-.1 0-.2 0-.2.1-.1.1-.1.1-.1.2v.5c0 .1 0 .2.1.2.1.1.1.1.2.1h4.1l-2.7 3c-.1.1-.2.2-.2.4v.4c0 .1 0 .2.1.2.1.1.1.1.2.1H19c1.4 0 2.1.6 2.1 1.7 0 .6-.2 1.1-.6 1.4s-.9.5-1.6.5c-.6 0-1-.1-1.4-.3-.4-.2-.7-.5-.8-1 0-.1-.1-.2-.2-.2s-.1-.1-.3-.1h-.6c-.1 0-.2 0-.2.1-.1.1-.1.1-.1.2 0 .4.2.8.4 1.2.3.4.7.7 1.2.9.6.1 1.3.3 2 .3zm5.6.9c.2 0 .3-.1.4-.3l.7-1.9c0-.1.1-.2.1-.2 0-.1 0-.1-.1-.2 0-.1-.1-.1-.2-.1h-.9c-.2 0-.4.1-.4.4l-.3 2v.2s.1.1.2.1h.5zm6.2-.9c.7 0 1.3-.1 1.8-.4s1-.6 1.3-1.1.5-1.1.5-1.8-.2-1.2-.5-1.7-.7-.8-1.2-1.1c-.6-.3-1.2-.4-1.8-.4-.8 0-1.4.2-1.8.5l.3-2.8h4c.1 0 .2 0 .2-.1.1-.1.1-.1.1-.2v-.5c0-.1 0-.2-.1-.2s-.1-.1-.2-.1h-4.8c-.2 0-.3.1-.4.3l-.4 4.7c0 .1 0 .2.1.2.1.1.1.1.2.1h.7c.1 0 .2 0 .3-.1.1 0 .2-.1.3-.2.2-.2.4-.3.6-.4s.5-.1.8-.1c.6 0 1.2.2 1.6.6.4.4.6.9.6 1.5 0 .7-.2 1.2-.6 1.6-.4.4-.9.6-1.6.6-.5 0-.9-.1-1.3-.4s-.6-.6-.8-1.1c-.1-.2-.2-.3-.4-.3h-.7c-.1 0-.1 0-.2.1s-.1.1-.1.2c0 .5.2.9.4 1.3s.7.7 1.2 1c.5.1 1.2.3 1.9.3zm9.1-6.4c.1 0 .1 0 .2-.1 0 0 .1-.1.1-.2v-.5c0-.1 0-.1-.1-.2 0 0-.1-.1-.2-.1h-.6c-.1 0-.1 0-.2.1s0 .2 0 .3v.5c0 .1 0 .1.1.2 0 0 .1.1.2.1h.5v-.1zm-.1 6.2c.1 0 .1 0 .2-.1 0 0 .1-.1.1-.2v-4.7c0-.1 0-.1-.1-.2 0 0-.1-.1-.2-.1h-.4c-.1 0-.1 0-.2.1 0 0-.1.1-.1.2v4.7c0 .1 0 .1.1.2 0 0 .1.1.2.1h.4zm2.5 0c.1 0 .1 0 .2-.1 0 0 .1-.1.1-.2V28c0-.5.1-.8.4-1.1s.6-.4 1-.4.8.1 1 .4.3.6.3 1.1v2.8c0 .1 0 .1.1.2 0 0 .1.1.2.1h.5c.1 0 .1 0 .2-.1 0 0 .1-.1.1-.2V28c0-.7-.2-1.2-.5-1.6-.6-.4-1.1-.6-1.8-.6-.4 0-.7.1-1 .2s-.5.3-.7.6v-.4c0-.1 0-.1-.1-.2 0 0-.1-.1-.2-.1h-.4c-.1 0-.1 0-.2.1s-.1.1-.1.2v4.7c0 .1 0 .1.1.2s.1.1.2.1h.6v-.1z"/></g></g></g></g></g></svg>