<svg version="1.1" id="prefix__Capa_1" xmlns="http://www.w3.org/2000/svg" x="0" y="0" viewBox="0 0 255.1 190.1" xml:space="preserve"><style>.prefix__st0{fill:#fff}.prefix__st1{fill-opacity:.6021}.prefix__st2{fill-opacity:.85}.prefix__st5{fill:#e04c1e}.prefix__st8{fill:#46373b}.prefix__st10{fill:none;stroke:#000;stroke-width:.5}.prefix__st11{fill:#4f789e}.prefix__st12{fill:#275278}.prefix__st13{fill:#3f3f3f}.prefix__st14{fill:#1d4c6b}.prefix__st15{fill:#605247}.prefix__st16{fill:#896a55}.prefix__st17{fill:#2b2b2b}.prefix__st18{fill:#1b1d2b}.prefix__st22{opacity:.4;fill:#001a3f;enable-background:new}</style><path class="prefix__st0" d="M.3 0h255.1v190.1H.3z"/><g id="prefix__Styleguide"><g id="prefix__Icons" transform="translate(-218 -1451)"><g id="prefix__Illustration-_x2F_-Locker-M" transform="translate(212 1408)"><g id="prefix__Group" transform="translate(6 98)"><path id="prefix__Rectangle-Copy-5" class="prefix__st1" d="M180.1 79h47v16h-47z"/><path id="prefix__Rectangle-Copy-2" class="prefix__st2" d="M49.1 72h40v16h-40z"/><path id="prefix__Rectangle-Copy-4" class="prefix__st2" d="M180.1 61h47v16h-47z"/><path id="prefix__Rectangle" class="prefix__st2" d="M15.1 29h40v16h-40z"/><path id="prefix__Rectangle-Copy" class="prefix__st1" d="M15.1 47h40v16h-40z"/><path id="prefix__Rectangle-Copy-3" class="prefix__st1" d="M49.1 90h40v16h-40z"/><path id="prefix___x38_5cm" class="prefix__st0" d="M187 73.1c.7 0 1.3-.1 1.9-.4.6-.2 1-.6 1.3-1s.5-1 .5-1.6-.1-1-.4-1.5c-.3-.4-.6-.7-1.1-1 .4-.2.6-.5.9-.9.2-.3.3-.8.3-1.2 0-.8-.3-1.5-.9-1.9-.6-.5-1.4-.7-2.4-.7s-1.8.2-2.4.7c-.6.5-.9 1.1-.9 1.9 0 .5.1.9.3 1.2.2.3.5.6.9.8-.5.2-.8.5-1.1 1s-.4.9-.4 1.4c0 .6.2 1.1.5 1.6.3.4.7.8 1.3 1 .3.5 1 .6 1.7.6zm0-5.8c-.6 0-1.1-.1-1.5-.4s-.6-.7-.6-1.1c0-.5.2-.9.6-1.1.4-.3.9-.4 1.5-.4s1.1.1 1.4.4c.4.3.6.7.6 1.1 0 .5-.2.8-.6 1.1-.4.3-.9.4-1.4.4zm0 4.7c-.7 0-1.2-.2-1.7-.5-.4-.3-.7-.8-.7-1.3 0-.6.2-1 .7-1.3.4-.3 1-.5 1.7-.5s1.2.2 1.7.5c.4.3.7.8.7 1.3 0 .6-.2 1-.7 1.3-.5.4-1.1.5-1.7.5zm8.5 1.1c.7 0 1.3-.1 1.8-.4.5-.3 1-.6 1.3-1.1s.5-1.1.5-1.8-.2-1.2-.5-1.7-.7-.8-1.2-1.1c-.5-.3-1.1-.4-1.7-.4-.8 0-1.4.2-1.8.5l.3-2.8h4c.1 0 .2 0 .2-.1.1-.1.1-.1.1-.2v-.5c0-.1 0-.2-.1-.2s-.1-.1-.2-.1h-4.8c-.2 0-.3.1-.3.3l-.4 4.7c0 .1 0 .2.1.2.1.1.1.1.2.1h.7c.1 0 .2 0 .3-.1s.2-.1.3-.2c.2-.2.4-.3.6-.4.2-.1.5-.1.8-.1.6 0 1.2.2 1.6.6.4.4.6.9.6 1.5 0 .7-.2 1.2-.6 1.6-.4.4-.9.6-1.6.6-.5 0-.9-.1-1.3-.4s-.6-.6-.8-1.1c-.1-.2-.2-.3-.4-.3h-.7c-.1 0-.1 0-.2.1-.1 0-.1.1-.1.2 0 .5.2.9.4 1.3.3.4.7.7 1.2 1 .4.2 1 .3 1.7.3zm10.5 0c.5 0 .9-.1 1.2-.3.3-.2.6-.4.7-.6s.3-.5.3-.8c0-.1 0-.1-.1-.2-.1 0-.1-.1-.2-.1h-.5s-.1.1-.1.2c-.1.3-.3.6-.5.7-.2.1-.5.2-.8.2-.4 0-.8-.1-1-.4-.2-.3-.4-.7-.4-1.2v-.7c0-.5.2-.9.4-1.2.2-.3.6-.4 1-.4.3 0 .6.1.8.2s.4.4.5.7c0 .1.1.1.1.2h.5c.1 0 .1 0 .2-.1.1 0 .1-.1.1-.2 0-.3-.1-.5-.3-.8-.2-.3-.4-.5-.7-.6-.3-.2-.7-.3-1.2-.3-.7 0-1.3.2-1.7.6-.4.4-.6 1-.6 1.7v.8c0 .7.2 1.3.6 1.7.4.7 1 .9 1.7.9zm4.1-.1c.1 0 .1 0 .2-.1 0 0 .1-.1.1-.2V70c0-.5.1-.9.3-1.1s.5-.4.8-.4.6.1.9.4c.2.2.3.6.3 1.1v2.8c0 .1 0 .1.1.2 0 0 .1.1.2.1h.4c.1 0 .1 0 .2-.1 0 0 .1-.1.1-.2V70c0-.5.1-.9.3-1.1s.5-.4.8-.4c.4 0 .7.1.9.3.2.2.3.6.3 1.1v2.8c0 .1 0 .1.1.2 0 0 .1.1.2.1h.4c.1 0 .1 0 .2-.1 0 0 .1-.1.1-.2v-2.9c0-.7-.2-1.2-.5-1.6s-.8-.6-1.3-.6c-.4 0-.7.1-1 .2-.3.2-.5.4-.7.7-.3-.6-.8-.9-1.6-.9-.6 0-1.1.2-1.5.7V68c0-.1 0-.1-.1-.2 0 0-.1-.1-.2-.1h-.4c-.1 0-.1 0-.2.1 0 0-.1.1-.1.2v4.7c0 .1 0 .1.1.2 0 0 .1.1.2.1h.4z"/><path id="prefix___x33_3_x2C_5in" class="prefix__st0" d="M186.5 91.5c.7 0 1.3-.1 1.8-.4.5-.2 1-.6 1.3-1s.5-1 .5-1.6c0-.9-.3-1.6-.8-2-.6-.5-1.3-.7-2.3-.7h-.2l2.7-3.1c.1-.1.1-.2.1-.3v-.5c0-.1 0-.2-.1-.2-.1-.1-.1-.1-.2-.1h-5.5c-.1 0-.2 0-.2.1s-.1.1-.1.2v.5c0 .1 0 .2.1.2s.1.1.2.1h4.1l-2.7 3c-.1.1-.2.2-.2.4v.4c0 .1 0 .2.1.2.1.1.1.1.2.1h1.3c1.4 0 2.1.6 2.1 1.7 0 .6-.2 1.1-.6 1.4-.4.3-.9.5-1.6.5-.6 0-1-.1-1.4-.3-.4-.2-.7-.5-.8-1 0-.1-.1-.2-.2-.2s-.1-.1-.3-.1h-.6c-.1 0-.2 0-.2.1v.1c0 .4.2.8.4 1.2s.7.7 1.2.9c.5.2 1.2.4 1.9.4zm8.4 0c.7 0 1.3-.1 1.8-.4s1-.6 1.3-1 .5-1 .5-1.6c0-.9-.3-1.6-.8-2-.6-.5-1.3-.7-2.3-.7h-.2l2.7-3.1c.1-.1.1-.2.1-.3v-.5c0-.1 0-.2-.1-.2s-.1-.1-.2-.1h-5.5c-.1 0-.2 0-.2.1s-.1.1-.1.2v.5c0 .1 0 .2.1.2s.1.1.2.1h4.1l-2.7 3c-.1.1-.2.2-.2.4v.4c0 .1 0 .2.1.2.1.1.1.1.2.1h1.3c1.4 0 2.1.6 2.1 1.7 0 .6-.2 1.1-.6 1.4-.4.3-.9.5-1.6.5-.6 0-1-.1-1.4-.3-.4-.2-.7-.5-.8-1 0-.1-.1-.2-.2-.2s-.1-.1-.3-.1h-.6c-.1 0-.2 0-.2.1s-.1.1-.1.2c0 .4.2.8.4 1.2.3.4.7.7 1.2.9.5.2 1.3.3 2 .3zm5.6.9c.2 0 .3-.1.4-.3l.7-1.9c0-.1.1-.2.1-.2 0-.1 0-.1-.1-.2 0-.1-.1-.1-.2-.1h-.9c-.2 0-.4.1-.4.4l-.3 2v.2c0 .1.1.1.2.1h.5zm6.2-.9c.7 0 1.3-.1 1.8-.4.5-.3 1-.6 1.3-1.1s.5-1.1.5-1.8-.2-1.2-.5-1.7-.7-.8-1.2-1.1c-.5-.3-1.1-.4-1.7-.4-.8 0-1.4.2-1.8.5l.3-2.8h4c.1 0 .2 0 .2-.1s.1-.1.1-.2v-.5c0-.1 0-.2-.1-.2s-.1-.1-.2-.1h-4.8c-.2 0-.3.1-.3.3l-.4 4.7c0 .1 0 .2.1.2.1.1.1.1.2.1h.7c.1 0 .2 0 .3-.1.1 0 .2-.1.3-.2.2-.2.4-.3.6-.4.2-.1.5-.1.8-.1.6 0 1.2.2 1.6.6.4.4.6.9.6 1.5 0 .7-.2 1.2-.6 1.6-.4.4-.9.6-1.6.6-.5 0-.9-.1-1.3-.4-.4-.2-.6-.6-.8-1.1-.1-.2-.2-.3-.4-.3h-.7c-.1 0-.1 0-.2.1s-.1.1-.1.2c0 .5.2.9.4 1.3.3.4.7.7 1.2 1 .3.1 1 .3 1.7.3zm9.1-6.4c.1 0 .1 0 .2-.1 0 0 .1-.1.1-.2v-.5c0-.1 0-.1-.1-.2 0 0-.1-.1-.2-.1h-.6c-.1 0-.1 0-.2.1 0 0-.1.1-.1.2v.5c0 .1 0 .1.1.2 0 0 .1.1.2.1h.6zm-.1 6.2c.1 0 .1 0 .2-.1 0 0 .1-.1.1-.2v-4.7c0-.1 0-.1-.1-.2 0 0-.1-.1-.2-.1h-.4c-.1 0-.1 0-.2.1 0 0-.1.1-.1.2V91c0 .1 0 .1.1.2 0 0 .1.1.2.1h.4zm2.5 0c.1 0 .1 0 .2-.1 0 0 .1-.1.1-.2v-2.8c0-.5.1-.8.4-1.1.3-.3.6-.4 1-.4s.8.1 1 .4.4.6.4 1.1V91c0 .1 0 .1.1.2 0 0 .1.1.2.1h.5c.1 0 .1 0 .2-.1 0 0 .1-.1.1-.2v-2.8c0-.7-.2-1.2-.5-1.6-.3-.4-1.2-.6-1.9-.6-.4 0-.7.1-1 .2-.3.1-.5.3-.7.6v-.4c0-.1 0-.1-.1-.2 0 0-.1-.1-.2-.1h-.4c-.1 0-.1 0-.2.1 0 0-.1.1-.1.2v4.7c0 .1 0 .1.1.2 0 0 .1.1.2.1l.6-.1z"/><path id="prefix___x34_0cm" class="prefix__st0" d="M57.3 85c.1 0 .2 0 .2-.1.1-.1.1-.1.1-.2v-2h1.3c.1 0 .2 0 .2-.1.1-.1.1-.1.1-.2v-.5c0-.1 0-.2-.1-.2-.1-.1-.1-.1-.2-.1h-1.3v-5.9c0-.1 0-.2-.1-.2-.1-.1-.1-.1-.2-.1h-1c-.1 0-.2 0-.3.1-.1 0-.2.1-.2.2l-4.2 5.9c-.1.1-.2.3-.2.4v.5c0 .1 0 .2.1.2.1.1.1.1.2.1h4.5v2c0 .1 0 .2.1.2.1.1.1.1.2.1h.8V85zm-.9-3.5H53l3.4-4.9v4.9zm7.7 3.6c1.2 0 2.1-.4 2.7-1.1s.9-1.6.9-2.8V80v-1.2c0-1.1-.3-2-.9-2.8-.6-.8-1.4-1.1-2.7-1.1-1.2 0-2.1.4-2.6 1.1s-.9 1.6-.9 2.8v2.4c0 1.1.3 2.1.9 2.8.6.7 1.4 1.1 2.6 1.1zm0-1.1c-.7 0-1.2-.2-1.6-.7-.4-.5-.6-1.1-.6-2V79c0-.9.2-1.5.6-2 .4-.5.9-.7 1.6-.7s1.2.2 1.6.7.6 1.2.6 2v2.3c0 .9-.2 1.5-.6 2-.3.4-.8.7-1.6.7zm10.7 1.1c.5 0 .9-.1 1.2-.3.3-.2.6-.4.7-.6.2-.3.3-.5.3-.8 0-.1 0-.1-.1-.2 0 0-.1-.1-.2-.1H76.1c-.1 0-.1.1-.1.2-.1.3-.3.6-.5.7-.2.1-.5.2-.8.2-.4 0-.8-.1-1-.4-.2-.3-.4-.7-.4-1.2v-.7c0-.5.2-.9.4-1.2.2-.3.6-.4 1-.4.3 0 .6.1.8.2.2.1.4.4.5.7 0 .1.1.1.1.2s.1 0 .2 0h.4c.1 0 .1 0 .2-.1.1 0 .1-.1.1-.2 0-.3-.1-.5-.3-.8-.2-.3-.4-.5-.7-.6-.3-.2-.7-.3-1.2-.3-.7 0-1.3.2-1.7.6-.4.4-.6 1-.6 1.7v.8c0 .7.2 1.3.6 1.7.5.7 1 .9 1.7.9zm4.1-.1c.1 0 .1 0 .2-.1 0 0 .1-.1.1-.2V82c0-.5.1-.9.3-1.1.2-.2.5-.4.8-.4s.6.1.9.4c.2.2.3.6.3 1.1v2.8c0 .1 0 .1.1.2 0 0 .1.1.2.1h.4c.1 0 .1 0 .2-.1 0 0 .1-.1.1-.2V82c0-.5.1-.9.3-1.1s.5-.4.8-.4c.4 0 .7.1.9.3.2.2.3.6.3 1.1v2.8c0 .1 0 .1.1.2 0 0 .1.1.2.1h.4c.1 0 .1 0 .2-.1 0 0 .1-.1.1-.2v-2.9c0-.7-.2-1.2-.5-1.6s-.8-.6-1.3-.6c-.4 0-.7.1-1 .2-.3.2-.5.4-.7.7-.3-.6-.8-.9-1.6-.9-.6 0-1.1.2-1.5.7V80c0-.1 0-.1-.1-.2 0 0-.1-.1-.2-.1h-.4c-.1 0-.1 0-.2.1 0 0-.1.1-.1.2v4.7c0 .1 0 .1.1.2 0 0 .1.1.2.1h.4z"/><path id="prefix___x31_6in" class="prefix__st0" d="M55.6 103c.1 0 .2 0 .2-.1.1-.1.1-.1.1-.2v-9.2c0-.1 0-.2-.1-.2-.1-.1-.1-.1-.2-.1H55c-.1 0-.3 0-.4.1l-3 2.4c-.1.1-.1.1-.1.3 0 .1 0 .1.1.2l.3.4c.1.1.2.1.2.1.1 0 .1 0 .2-.1l2.4-1.8v7.9c0 .1 0 .2.1.2.1.1.1.1.2.1h.6zm5.7.1c.7 0 1.4-.2 1.9-.5s1-.7 1.2-1.2c.3-.5.4-1.1.4-1.7s-.1-1.1-.4-1.6-.7-.9-1.2-1.2c-.5-.3-1.1-.5-1.8-.5-.3 0-.6 0-.8.1l2-2.9c0-.1.1-.1.1-.2s0-.2-.1-.2c-.1-.1-.1-.1-.2-.1H61.5s-.1.1-.2.1c0 .1-.1.1-.1.1L58.5 97c-.6.9-1 1.8-1 2.6 0 .6.1 1.2.4 1.7s.7.9 1.2 1.2c.8.5 1.5.6 2.2.6zm0-1.1c-.4 0-.8-.1-1.1-.3s-.6-.4-.8-.7c-.2-.3-.3-.7-.3-1.2s.1-.9.3-1.2c.2-.3.5-.6.8-.8.3-.2.7-.3 1.1-.3s.8.1 1.1.3c.3.2.6.4.8.8s.3.7.3 1.2-.1.9-.3 1.2c-.2.3-.5.6-.8.7s-.7.3-1.1.3zm9-5.2c.1 0 .1 0 .2-.1 0 0 .1-.1.1-.2V96c0-.1 0-.1-.1-.2 0 0-.1-.1-.2-.1h-.6c-.1 0-.1 0-.2.1 0 0-.1.1-.1.2v.5c0 .1 0 .1.1.2 0 0 .1.1.2.1h.6zm0 6.2c.1 0 .1 0 .2-.1 0 0 .1-.1.1-.2V98c0-.1 0-.1-.1-.2 0 0-.1-.1-.2-.1h-.4c-.1 0-.1 0-.2.1s-.1.2-.1.2v4.7c0 .1 0 .1.1.2 0 0 .1.1.2.1h.4zm2.4 0c.1 0 .1 0 .2-.1 0 0 .1-.1.1-.2V100c0-.5.1-.8.4-1.1.3-.3.6-.4 1-.4s.8.1 1 .4.3.6.3 1.1v2.8c0 .1 0 .1.1.2 0 0 .1.1.2.1h.5c.1 0 .1 0 .2-.1 0 0 .1-.1.1-.2V100c0-.7-.2-1.2-.5-1.6-.4-.4-.9-.6-1.5-.6-.4 0-.7.1-1 .2s-.5.3-.7.6V98c0-.1 0-.1-.1-.2s-.1-.1-.2-.1h-.4c-.1 0-.1 0-.2.1l-.2.2v4.7c0 .1 0 .1.1.2 0 0 .1.1.2.1h.4z"/><path id="prefix___x33_0cm" class="prefix__st0" d="M21.2 42.1c.7 0 1.3-.1 1.8-.4.5-.2 1-.6 1.3-1 .3-.4.5-1 .5-1.6 0-.9-.3-1.6-.8-2-.6-.5-1.3-.7-2.3-.7h-.2l2.7-3.1c.1-.1.1-.2.1-.3v-.5c0-.1 0-.2-.1-.2-.1-.1-.1-.1-.2-.1h-5.5c-.1 0-.2 0-.2.1-.1.1-.1.1-.1.2v.5c0 .1 0 .2.1.2.1.1.1.1.2.1h4.1l-2.7 3c-.1.1-.2.2-.2.4v.4c0 .1 0 .2.1.2.1.1.1.1.2.1h1.3c1.4 0 2.1.6 2.1 1.7 0 .6-.2 1.1-.6 1.4s-.9.5-1.6.5c-.6 0-1-.1-1.4-.3-.4-.2-.7-.5-.8-1 0-.1-.1-.2-.2-.2s-.1-.1-.3-.1H18c-.1 0-.2 0-.2.1-.1.1-.1.1-.1.2 0 .4.2.8.4 1.2.2.4.7.7 1.2.9s1.2.3 1.9.3zm8.7 0c1.2 0 2.1-.4 2.7-1.1s.9-1.6.9-2.8V37v-1.2c0-1.1-.3-2-.9-2.8-.6-.7-1.4-1.1-2.7-1.1-1.2 0-2.1.4-2.6 1.1s-.9 1.6-.9 2.8v2.4c0 1.1.3 2.1.9 2.8.5.8 1.4 1.1 2.6 1.1zm0-1.1c-.7 0-1.2-.2-1.6-.7s-.6-1.1-.6-2V36c0-.9.2-1.5.6-2s.9-.7 1.6-.7 1.2.2 1.6.7.6 1.2.6 2v2.3c0 .9-.2 1.5-.6 2s-.9.7-1.6.7zm10.7 1.1c.5 0 .9-.1 1.2-.3.3-.2.6-.4.7-.6.2-.3.3-.5.3-.8 0-.1 0-.1-.1-.2s-.1-.1-.2-.1H42s-.1.1-.1.2c-.1.3-.3.6-.5.7s-.5.2-.8.2c-.4 0-.8-.1-1-.4s-.4-.7-.4-1.2v-.7c0-.5.2-.9.4-1.2s.6-.4 1-.4c.3 0 .6.1.8.2.2.1.4.4.5.7 0 .1.1.1.1.2h.5c.1 0 .1 0 .2-.1 0 0 .1-.1.1-.2 0-.3-.1-.5-.3-.8s-.4-.5-.7-.6c-.3-.2-.7-.3-1.2-.3-.7 0-1.3.2-1.7.6-.4.4-.6 1-.6 1.7v.8c0 .7.2 1.3.6 1.7.4.7 1 .9 1.7.9zm4.1-.1c.1 0 .1 0 .2-.1 0 0 .1-.1.1-.2V39c0-.5.1-.9.3-1.1s.5-.4.8-.4.6.1.9.4c.2.2.3.6.3 1.1v2.8c0 .1 0 .1.1.2 0 0 .1.1.2.1h.4c.1 0 .1 0 .2-.1 0 0 .1-.1.1-.2V39c0-.5.1-.9.3-1.1s.5-.4.8-.4c.4 0 .6.1.9.3.2.2.3.6.3 1.1v2.8c0 .1 0 .1.1.2 0 0 .1.1.2.1h.4c.1 0 .1 0 .2-.1 0 0 .1-.1.1-.2v-2.8c0-.7-.2-1.2-.5-1.6-.3-.4-.8-.6-1.3-.6-.4 0-.7.1-1 .2-.3.2-.5.4-.7.7-.3-.6-.8-.9-1.6-.9-.6 0-1.1.2-1.5.7V37c0-.1 0-.1-.1-.2 0 0-.1-.1-.2-.1h-.4c-.1 0-.1 0-.2.1s-.1.2-.1.2v4.7c0 .1 0 .1.1.2 0 0 .1.1.2.1h.4z"/><path id="prefix___x31_1_x2C_5in" class="prefix__st0" d="M21.6 60c.1 0 .2 0 .2-.1s.1-.1.1-.2v-9.2c0-.1 0-.2-.1-.2s-.1-.1-.2-.1H21c-.1 0-.3 0-.4.1l-3 2.4c-.1.1-.1.1-.1.3 0 .1 0 .1.1.2l.3.4c.1.1.2.1.2.1.1 0 .1 0 .2-.1l2.4-1.8v7.9c0 .1 0 .2.1.2s.1.1.2.1h.6zm6 0c.1 0 .2 0 .2-.1s.1-.1.1-.2v-9.2c0-.1 0-.2-.1-.2s-.1-.1-.2-.1h-.7c-.1 0-.3 0-.4.1l-3 2.4c-.1.1-.1.1-.1.3 0 .1 0 .1.1.2l.3.4c.1.1.2.1.2.1.1 0 .1 0 .2-.1l2.4-1.8v7.9c0 .1 0 .2.1.2s.1.1.2.1h.7zm2.7 1c.2 0 .3-.1.4-.3l.7-1.9c0-.1.1-.2.1-.2 0-.1 0-.1-.1-.2 0-.1-.1-.1-.2-.1h-.9c-.2 0-.4.1-.4.4l-.3 2v.2s.1.1.2.1h.5zm6.2-.9c.7 0 1.3-.1 1.8-.4s1-.6 1.3-1.1.5-1.1.5-1.8-.2-1.2-.5-1.7-.7-.8-1.2-1.1c-.5-.2-1.1-.4-1.7-.4-.8 0-1.4.2-1.8.5l.3-2.8h4c.1 0 .2 0 .2-.1.1-.1.1-.1.1-.2v-.5c0-.1 0-.2-.1-.2s-.1-.1-.2-.1h-4.8c-.2 0-.3.1-.3.3l-.4 4.7c0 .1 0 .2.1.2.1.1.1.1.2.1h.7c.1 0 .2 0 .3-.1.1-.1.2-.1.3-.2.2-.2.4-.3.6-.4.2-.1.5-.1.8-.1.6 0 1.2.2 1.6.6.4.4.6.9.6 1.5 0 .7-.2 1.2-.6 1.6-.4.4-.9.6-1.6.6-.5 0-.9-.1-1.3-.4-.4-.2-.6-.6-.8-1.1-.1-.2-.2-.3-.4-.3h-.7c-.1 0-.1 0-.2.1s-.1.1-.1.2c0 .5.2.9.4 1.3.3.4.7.7 1.2 1 .4.2 1 .3 1.7.3zm9.2-6.3c.1 0 .1 0 .2-.1 0 0 .1-.1.1-.2V53c0-.1 0-.1-.1-.2 0 0-.1-.1-.2-.1h-.6c-.1 0-.1 0-.2.1 0 0-.1.1-.1.2v.5c0 .1 0 .1.1.2 0 0 .1.1.2.1h.6zm-.1 6.2c.1 0 .1 0 .2-.1s.1-.1.1-.2V55c0-.1 0-.1-.1-.2s-.1-.1-.2-.1h-.4c-.1 0-.1 0-.2.1 0 0-.1.1-.1.2v4.7c0 .1 0 .1.1.2 0 0 .1.1.2.1h.4zm2.4 0c.1 0 .1 0 .2-.1 0 0 .1-.1.1-.2V57c0-.5.1-.8.4-1.1.3-.3.6-.4 1-.4s.8.1 1 .4.3.6.3 1.1v2.8c0 .1 0 .1.1.2 0 0 .1.1.2.1h.5c.1 0 .1 0 .2-.1 0 0 .1-.1.1-.2V57c0-.7-.2-1.2-.5-1.6-.3-.4-.8-.6-1.5-.6-.4 0-.7.1-1 .2-.3.1-.5.3-.7.6V55c0-.1 0-.1-.1-.2 0 0-.1-.1-.2-.1h-.4c-.1 0-.1 0-.2.1l-.2.2v4.7c0 .1 0 .1.1.2s.1.1.2.1h.4z"/></g><g id="prefix__Group-2" transform="translate(53 43)"><g id="prefix__Group-37" transform="translate(18.1 .182)"><path id="prefix__Fill-1" d="M152.1 69.2V54.9c.2-2.3-1.1-4.5-3.9-6.1l-31.1-17.5c-4.1-2.3-10.3-2.8-15.9-1.6-.1 0-.1 0-.2.1-.5.1-1 .2-1.4.4-.2 0-.3.1-.5.1-.4.1-.8.2-1.2.4-.2.1-.3.1-.5.2-.4.1-.7.3-1.1.5-.2.1-.3.1-.5.2-.5.2-1 .5-1.5.8L21.1 74.6c-2.5 1.5-4.2 3.2-5 5-.3.7-.5 1.4-.5 2.1v25c-.2 2.3 1.1 4.5 3.9 6.1l31.1 17.5c5.8 3.4 16 2.9 22.7-.9L146.6 87c3.5-2 5.3-4.6 5.5-7V70v-.8" fill="#e8eef9"/><path id="prefix__Fill-3" d="M51 130.5L19.9 113c-5.8-3.4-5.1-9.2 1.6-13.1l73.3-42.3c6.7-3.9 16.9-4.3 22.7-.9l31.1 17.5c5.8 3.4 5.1 9.2-1.6 13.1l-73.3 42.3c-6.8 3.9-16.9 4.3-22.7.9" fill="#dce7f9"/><path id="prefix__Fill-5" class="prefix__st5" d="M59.6 88.2L59.2 76l18.6 9.2z"/><path id="prefix__Fill-7" class="prefix__st5" d="M91.2 104.9l37.9-25V68.4L76.8 98z"/><path id="prefix__Fill-9" class="prefix__st5" d="M62 83.6l23.7-13.8c1.7-1 17.1-8.7 18.8-7.6l21.8 13.3c3.7 2.2 3.8 7.6.2 9.7l-37 21.5c-1.7 1-3.8.9-5.5-.1L62.2 93.3c-3.7-2.2-3.8-7.6-.2-9.7"/><path id="prefix__Fill-11" d="M61.8 71.4l37.1-21.5c1.7-1 3.8-.9 5.5.1l21.8 13.3c3.7 2.2 3.8 7.6.2 9.7L89.3 94.5c-1.7 1-3.8.9-5.5-.1L62.1 81.1c-3.7-2.2-3.8-7.6-.3-9.7" fill="#fe733e"/><path id="prefix__Fill-13" class="prefix__st5" d="M76 67.7c-6 3.5-6.6 7.3 1.2 12.4 10.3 6.7 14.5 4.6 20.9.9 6.3-3.7 29-17 29-17l-1-.8c-5.1-3.3-20.7-12.6-20.7-12.6L76 67.7z"/><path id="prefix__Fill-15" class="prefix__st0" d="M125 62.6c-2.3 1.4-24.3 14.3-28.9 16.9-5 2.9-8.2 4.3-17-.9-2.2-1.3-3.6-2.5-4.3-3.7-.3-.5-.5-1.1-.5-1.6 0-1.6 1.2-3.1 3.8-4.6l29.2-16.9c-.2-.1-.3-.2-.5-.3l-29 16.8c-2.7 1.6-4.1 3.3-4 5 .1 1.9 1.8 3.8 5.1 5.8 8.5 5 11.9 4.1 17.5.9 4.8-2.8 27.5-16.1 29.1-17.1-.2-.1-.3-.3-.5-.3"/><path id="prefix__Fill-17" d="M69.7 88.1l6.3 3.8c.9.6 1.7 2 1.7 3.2 0 1.2-.7 1.8-1.6 1.2l-6.3-3.8c-.9-.6-1.7-2-1.7-3.2 0-1.2.7-1.7 1.6-1.2" fill="#33211f"/><path id="prefix__Fill-19" class="prefix__st0" d="M62.5 75.5l25.3 15.3 1.6-.9-25.2-15.3z"/><path id="prefix__Fill-21" class="prefix__st8" d="M126.4 85.7c2.1-1.2 3.8-4 3.7-6.2-.1-2.2-1.8-3-3.9-1.8-2.1 1.2-3.8 4-3.7 6.2.1 2.2 1.8 3 3.9 1.8"/><path id="prefix__Fill-23" class="prefix__st8" d="M124.8 86.8l-1.6-1 5.9-8.4 1.6 1z"/><path id="prefix__Fill-25" d="M127.9 86.6c2.1-1.2 3.8-4 3.7-6.2-.1-2.2-1.8-3-3.9-1.8-2.1 1.2-3.8 4-3.7 6.2.1 2.3 1.8 3.1 3.9 1.8" fill="#59494e"/><path id="prefix__Fill-27" class="prefix__st0" d="M128 84.9c1.1-.6 1.9-2 1.9-3.1s-.9-1.5-2-.9-1.9 2-1.9 3.1c.1 1.1.9 1.5 2 .9"/><path id="prefix__Stroke-29" class="prefix__st10" d="M159.3 85.3l15.3 8.4"/><path id="prefix__Stroke-31" class="prefix__st10" d="M65.1 139.9l15.3 8.4"/><path id="prefix__Stroke-33" class="prefix__st10" d="M126.3 112.9L167 89.1"/><path id="prefix__Stroke-35" class="prefix__st10" d="M72.8 144.3l32-18.7"/></g><path id="prefix__Stroke-39" class="prefix__st10" d="M77.4 139.7L66 146.3"/><path id="prefix__Stroke-40" class="prefix__st10" d="M26.5 109.4L15.1 116"/><path id="prefix__Stroke-41" class="prefix__st10" d="M26.5 80.3l-11.4 6.6"/><path id="prefix__Stroke-42" class="prefix__st10" d="M51.9 131.5l10.4 5.9 9.4 5.4"/><path id="prefix__Stroke-43" class="prefix__st10" d="M19.9 113.1l10.3 5.9"/><path id="prefix__Stroke-44" class="prefix__st10" d="M20.1 108.2v4.8"/><path id="prefix__Stroke-45" class="prefix__st10" d="M20.1 84.2v5.1"/><path id="prefix__Fill-46" class="prefix__st11" d="M70.6 100.5c-.4-.1-.8-.3-1.2-.5-2-1.1-4-2.3-6-3.4-.1-.1-.3-.2-.4-.1-.2.2-.5.4-.7.5l-.3.3v11.8c1.6.9 3.3 1.8 4.9 2.8 1.3.8 2.6 1.4 4 1.8 1.4.5 2.9.8 4.4.9.3 0 .6 0 .9.2.3-.2.7 0 1 0h1.2c.5 0 1 0 1.5-.1.1-.1.3-.1.4-.1 1.1-.2 2.2-.4 3.3-.7 0 0 .1 0 .1-.1 1.1-.3 2.2-.8 3.2-1.4.1-.1.2-.2.4-.2 0-.1.2-.1.2-.2h-.1c-.7.1-1.4 0-2.2 0-1.3-.1-2.6-.4-3.9-1-.1-.1-.2-.1-.2-.3v-1.4c0-.2-.1-.4.1-.6.3-.3.5-.4.9-.2.8.3 1.5.5 2.4.6.7.1 1.3.2 2 .1.4 0 .8 0 1.2-.1 0-.3.2-.5.3-.7.1-.2.3-.3.5-.2.3.2.7.3 1 .5h.1s.1 0 .1-.1c.4-.3 1-.3 1-1v-1.1c0-.3 0-.6-.3-.7-.3-.2-.3-.5-.3-.8v-.7c0-.3-.1-.7.1-1 .1-.2.4-.2.5-.4v-5.5-2.9c-.1-1.1-.5-2.1-1.3-3-1.1-1.3-2.4-2.2-3.9-2.9-.6-.3-1.1-.6-1.7-1-1.7-1-3.4-2-5.1-2.9-.1-.1-.2-.1-.3-.2-.2.6-.6.9-1.1 1.2-.3.2-.7.4-1.1.6-.9.5-1.8 1.1-2.7 1.6-.6.4-1.3.8-1.9 1.2-.7.4-1.4.8-2.1 1.3-.9.6-1.8 1.1-2.7 1.6-.6.4-1.3.5-2 .5-.8 0-1.5-.3-2.2-.7-2.3-1.3-4.5-2.6-6.8-3.9-.5-.3-.9-.6-1.3-1 0 0 0 .1-.1.1 0 .7.1 1.4 0 2.1 0 .7.3 1.2.9 1.5.4.2.8.5 1.2.7.1 0 .1.1.2.1 0 0 .1.1 0 .1l-.1.1c-.1 0-.1 0-.2-.1-.1 0-.2 0-.2.1s-.1.1 0 .2c.2.2.6.2.7.1.2-.2.3-.1.5 0 1.8 1 3.6 2.1 5.4 3.1 1.1.6 2.3.7 3.5.1 1-.5 1.9-1.1 2.9-1.7.7-.4 1.5-.9 2.2-1.3.6-.3 1.1-.7 1.7-1 .8-.5 1.6-1 2.5-1.5.7-.4 1.5-.8 2.2-1.4.2-.2.3-.4.3-.6v-.8c0-.4-.1-.8 0-1.2.1.2.3.2.4.3 1.8 1.1 3.7 2.1 5.5 3.2.1 0 .2.1.2.1 1.2.5 2.4 1.2 3.3 2.1.8.8 1.4 1.7 1.6 2.8.2 1.2.1 2.4-.6 3.4-.6.9-1.3 1.5-2.2 2-.9.6-1.9 1-2.9 1.3-2 .6-4 .8-6 .8-.6 0-1.3 0-1.9-.1-.5-.1-.9-.1-1.4-.2"/><path id="prefix__Fill-47" class="prefix__st12" d="M73.9 83.6c-.5-.3-.8-.3-1.2.1-.1.1-.1.2 0 .3.3.2.6.4.9.5.1 0 .1.1.2 0 0 0 .1 0 .1-.1.2-.1.6-.2.6-.4s-.4-.2-.6-.4c.1 0 0 0 0 0m-14.7 3.2l2.4-1.5.9-.6c.2-.2.2-.3 0-.5-.3-.1-.5-.3-.8-.4-.3 0-.5 0-.7.2-1.1.7-2.3 1.4-3.4 2.1-.5.3-.5.4 0 .6.1 0 .1.1.3.1.3.6.8.3 1.3 0m-5.1-.1c.3-.8.9-1.1 1.6-1.5.8-.5 1.7-1 2.5-1.5.7-.4 1.4-.8 2.1-1.3.9-.6 1.9-1.1 2.8-1.7l1.5-.9.9-.6c.6-.3 1.2-.5 1.8-.5h.3c1.1 0 2 .6 2.8 1.1 1.9 1.1 3.8 2.2 5.7 3.2.7.4 1.5.8 1.9 1.7-.2.6-.6.9-1.1 1.2-.3.2-.7.4-1.1.6-.9.5-1.8 1.1-2.7 1.6-.6.4-1.3.8-1.9 1.2-.7.4-1.4.8-2.1 1.3-.9.6-1.8 1.1-2.7 1.6-.6.4-1.3.5-2 .5-.8 0-1.5-.3-2.2-.7-2.3-1.3-4.5-2.6-6.8-3.9-.5-.3-.9-.6-1.3-1 .1-.1.1-.3 0-.4"/><path id="prefix__Fill-48" class="prefix__st13" d="M81.1 108.6c-.2.2-.1.4-.1.6v1.4c0 .1 0 .2.2.3 1.2.5 2.5.9 3.9 1 .7.1 1.4.1 2.2 0h.1c0 .1-.1.1-.2.2.1.1.1.3.1.4 0 .5-.1 1-.1 1.5-.1.4-.1.8-.1 1.2 0 .4-.3.7-.3 1.1.3-.1.5-.4.8-.5 0-.1.1-.1.1-.2-.1-.4 0-.8.1-1.1 0-.5.1-1.1 0-1.6 0-.3-.1-.5-.1-.8 0-.1 0-.2.1-.2s.3-.1.3.1c.1.5.2 1 .2 1.5-.1.7-.1 1.4-.2 2.1 0 .4-.1.9-.2 1.3-.1.3-.3.5-.4.8.6-.3 1-.7 1.6-1 .3-.2.5-.3.8-.5.6-.5.8-1.1.9-1.8.1-1.1.3-2.2.2-3.3 0-.1 0-.2.1-.2.4-.2.7-.5 1-.9.4-.5.6-1 .5-1.7 0-.9.1-1.7-.1-2.6-.1-.8-.6-1.5-1.2-2.1-.3-.3-.5-.5-.8-.7-.1.2-.4.2-.5.4.1.1.1.2.2.3.6.4 1 1 1.3 1.8.2.5.1 1 0 1.5 0 .1-.1.3-.3.1-.1-.1-.2 0-.3.1-.1.2-.2.4-.4.6 0 .7-.6.7-1 1 0 0-.1 0-.1.1.2.1.3.2.5.2.1 0 .2 0 .2.2 0 .1-.1.2-.2.2l-1.2.3c-.1 0-.2.1-.4 0v-.1c.1-.2.2-.1.4 0 .1.1.2 0 .2-.1.1-.1 0-.2-.1-.2s-.2-.1-.3-.2c-.2 0-.3 0-.5.1h-.1c0 .1-.2.3-.1.4.1.3-.1.2-.2.3h-.9c-.9 0-1.7 0-2.6-.2-1-.3-2-.6-3-1.1"/><path id="prefix__Fill-49" class="prefix__st14" d="M50.4 90.2V101.9c0 .5.3.8.7 1 .3.2.4.4.4.8-.1.9.1 1.7.5 2.5h.1c.2 0 .2.1.3.2s.1.3.2.3.1-.2.1-.4v-.1c-.2-.2-.3-.6-.4-.8-.3-.4-.3-1.1-.3-1.7 0-.2 0-.3.2-.1.2.1.5.2.7.4.1-.1.1-.2.1-.3v-2.6-4.8-1.8-1.2c.2.1.2.3.4.5.4.4.8.7 1.3 1 .3.2.7.3 1.1.5.5.3 1.1.5 1.7.7.9.3 1.9.6 2.8.8.3 0 .7.2 1 0-2.7-1.5-5.4-3.1-8.1-4.6-1.1-.6-2.1-1-2.8-2"/><path id="prefix__Fill-50" class="prefix__st15" d="M77.1 114.7c-.3 0-.7-.1-1 0 1.4.8 2.7 1.6 4.1 2.4.2.1.3.2.3.5-.1.5 0 .9-.1 1.4 0 .3 0 .6-.4.7 0 .3-.2.4-.4.6-.3.3-.8.4-1.2.6.4.1.7.3 1.1.4 0 0 .1 0 .2-.1-.1-.1-.3 0-.4-.2.5-.2.8-.6 1.3-.8v.3c-.1.2 0 .6-.4.7 0 .5-.4.7-.7.8-.6.4-1.3.4-2 .4-1-.1-2-.4-2.9-.9-3-1.7-6-3.4-9.1-5.2-2.3-1.3-4.5-2.6-6.8-3.9-.9-.5-1.8-1-2.6-1.7-.4-.3-.7-.6-1-.9-.4-.4-.7-.8-1-1.2-.2-.3-.5-.5-.5-.9-.1-.1-.3-.2-.5-.3-.1 0-.2-.2-.3-.1.3.8.9 1.4 1.4 2.1.7.8 1.5 1.5 2.3 2.1.4.3.8.5 1.1.7 2.5 1.4 5 2.9 7.5 4.3l9.6 5.4c1.1.6 2.4 1 3.7.8.7-.1 1.3-.3 1.9-.8.1-.1.3-.2.4-.3-.2-.1-.1-.2 0-.3.2-.3.3-.5.3-.8.1-.7.1-1.3.2-2 .1-.9.1-1.9-.2-2.8-.2-.5-.3-1-.6-1.4-.1 0-.3 0-.4.1v.2c.3.5.5 1 .7 1.6 0 .1.1.2 0 .2-.1.1-.2 0-.2-.1-1-.6-2-1.1-3-1.7-.3.3-.4.2-.4.1"/><path id="prefix__Fill-51" class="prefix__st13" d="M80.2 114.5c.3.4.5.9.6 1.4.3.9.4 1.8.2 2.8-.1.7-.2 1.3-.2 2 0 .3-.2.6-.3.8-.1.1-.1.2 0 .3.5-.2.9-.6 1.4-.9.3-.2.6-.4.9-.7.4-.4.6-1 .7-1.5 0-.1 0-.2.1-.2-.1-.2-.1-.4-.1-.6v-.4c.1-.9.2-1.7 0-2.6 0-.4-.2-.8-.3-1.1-.8.4-1.9.6-3 .7"/><path id="prefix__Fill-52" class="prefix__st15" d="M83.7 118c-.1.2-.1.4.1.6 1.3.3 2.4.1 3.5-.7l.2-.2c.1-.3.2-.6.4-.8.2-.4.2-.9.2-1.3.1-.7.1-1.4.2-2.1 0-.5-.1-1-.2-1.5 0-.2-.2-.1-.3-.1-.1 0-.2.1-.1.2.1.3.1.5.1.8v1.6c0 .4-.1.7-.1 1.1 0 .1 0 .1-.1.2.1.5-.1.9-.4 1.1.1.1.1.2 0 .3-.3.3-.6.6-1.1.7-.8.3-1.6.3-2.4.1"/><path id="prefix__Fill-53" class="prefix__st15" d="M52.3 106.5c-.1-.1-.1-.3-.3-.2.2.4.3.9.6 1.2.1-.1.2 0 .3.1.2.1.3.2.5.3.1-.1.3-.1.3-.2s-.2-.2-.3-.2c-.1-.1-.2-.1-.3-.2-.2-.1-.3-.3-.2-.5s.1-.5.2-.7c0-.2 0-.2-.2-.1-.3.1-.2.3-.3.5v.1"/><path id="prefix__Fill-54" class="prefix__st15" d="M50.4 90.1v.2h.1c0-.1 0-.2-.1-.2z"/><path id="prefix__Fill-55" class="prefix__st16" d="M50.4 88.1s.1-.1 0 0"/><path id="prefix__Fill-56" class="prefix__st12" d="M78.9 97.1c1.3-.1 2.7-.2 4-.3.2 0 .4 0 .5-.1.2-.1.3-.2.3-.4.1-.9.1-1.8.2-2.7 0-.3-.1-.4-.4-.4-.9 0-1.7.1-2.6.1-.8 0-1.6.1-2.4.2-.5 0-.7.2-.7.6 0 .8-.1 1.7-.2 2.5 0 .2 0 .3.2.3.4.4.7.3 1.1.2M57.3 92c1.8 1 3.6 2.1 5.4 3.1 1.1.6 2.3.7 3.5.1 1-.5 1.9-1.1 2.9-1.7.7-.4 1.5-.9 2.2-1.3.6-.3 1.1-.7 1.7-1 .8-.5 1.6-1 2.5-1.5.7-.4 1.5-.8 2.2-1.4.2-.2.3-.4.3-.6v-.8c0-.4-.1-.8 0-1.2.1.2.3.2.4.3 1.8 1.1 3.7 2.1 5.5 3.2.1 0 .2.1.2.1 1.2.5 2.4 1.2 3.3 2.1.8.8 1.4 1.7 1.6 2.8.2 1.2.1 2.4-.6 3.4-.6.9-1.3 1.5-2.2 2-.9.6-1.9 1-2.9 1.3-2 .6-4 .8-6 .8-.6 0-1.3 0-1.9-.1-.5-.1-.9-.1-1.4-.2m.1.1c-.4-.1-3.9-.9-4.7-1.4-2-1.1-4-2.3-6-3.4-.1-.1-.3-.2-.4-.1-.3-.3-.7-.4-1-.7-.4-.3-.8-.3-1.2 0-.2.1-.2.2 0 .3.5.3 1 .6 1.5.8l-.3.3c-.1-.3-.4-.4-.6-.5-.1 0-.1-.1-.2-.1-2.7-1.5-5.4-3.1-8.1-4.6.7-.4 1.4-.8 2.1-1.3.4.2.8.5 1.2.7"/><path id="prefix__Fill-57" class="prefix__st14" d="M53 92.1c.7-.4 1.4-.8 2.1-1.3-.6-.3-.9-.8-.9-1.5v-2.1c-.2-.1-.3.1-.4.1-.9.5-1.8 1.1-2.7 1.6-.4.2-.7.6-.7 1.1.1 0 .1.1 0 .2.7 1 1.7 1.4 2.6 1.9"/><path id="prefix__Fill-58" class="prefix__st14" d="M60.9 108.8c.3.2.7.2 1.1.3v-3.9-4.3-3.6c-.1-.3-.4-.4-.6-.5-.1.2-.1.3-.1.5v2.5c0 .9-.1 1.7-.1 2.6v5.9c-.1.2.1.5-.3.5"/><path id="prefix__Fill-59" class="prefix__st15" d="M90.5 107.6c.2-.1.3-.4.4-.6.1-.1.1-.2.3-.1.2.2.2 0 .3-.1.1-.5.2-1 0-1.5-.2-.7-.6-1.3-1.3-1.8-.1-.1-.2-.2-.2-.3-.2.3 0 .7-.1 1v.7c0 .3 0 .6.3.8.3.1.3.4.3.7-.1.5 0 .8 0 1.2"/><path id="prefix__Fill-60" class="prefix__st15" d="M81.1 108.6c1 .5 2 .7 3.1.9.9.2 1.7.2 2.6.2h.9c.1 0 .3 0 .2-.3 0-.1.1-.2.1-.4-.1-.1-.3 0-.5 0-.4.2-.8.1-1.2.1-.7 0-1.3-.1-2-.1-.8-.1-1.6-.3-2.4-.6-.3-.1-.5-.1-.8.2"/><path id="prefix__Fill-61" class="prefix__st17" d="M77.1 114.7c0 .1.1.2.2.2 1 .6 2 1.1 3 1.7.1 0 .2.1.2.1.1-.1 0-.2 0-.2-.1-.6-.4-1.1-.7-1.6 0-.1-.1-.2 0-.2-.5 0-1 0-1.5.1-.4-.1-.8-.1-1.2-.1"/><path id="prefix__Fill-62" class="prefix__st15" d="M86.8 112.4c.1.6-.1 1.3-.1 1.9 0 .4 0 .8-.2 1.2 0 .1-.1.2-.2.3-.1.2-.3.4-.4.6-.1.1-.3.1-.3.3 0 .2.3.1.4.2h.2l.4-.4c.1-.4.3-.7.3-1.1.1-.4.1-.8.1-1.2.1-.5.1-1 .1-1.5 0-.2 0-.3-.1-.4 0-.1-.1 0-.2.1"/><path id="prefix__Fill-63" class="prefix__st14" d="M63 96.6c-.3-.3-.7-.4-1-.7-.4-.3-.8-.3-1.2 0-.2.1-.2.2 0 .3.5.3 1 .6 1.5.8.3-.1.5-.3.7-.4"/><path id="prefix__Fill-64" class="prefix__st11" d="M87.5 109.1c.2.1.3-.1.5 0h.1c.1-.1.3-.1.5-.1.2-.1.5-.1.7-.3-.3-.2-.7-.3-1-.5-.2-.1-.4-.1-.5.2-.1.2-.3.4-.3.7"/><path id="prefix__Fill-65" class="prefix__st15" d="M87.6 109.7c.1.1.9-.2 1-.2l1.2-.3c.1 0 .2-.1.2-.2s-.1-.1-.2-.2c-.2 0-.3-.1-.5-.2h-.1c-.2.2-.5.2-.7.3.1.1-.6.1-.6.2"/><path id="prefix__Fill-66" class="prefix__st18" d="M57.8 86.9c.4.4.9.2 1.4-.1l2.4-1.5.9-.6c.2-.2.2-.3 0-.5-.3-.1-.5-.3-.8-.4-.3 0-.5 0-.7.2-1.1.7-2.3 1.4-3.4 2.1-.5.3-.5.4 0 .6 0 .1.1.2.2.2"/><path id="prefix__Fill-67" class="prefix__st18" d="M74.1 83.7c-.1-.1-.1-.1-.2-.1-.5-.3-.8-.3-1.2.1-.1.1-.1.2 0 .3.3.2.6.4.9.5.1 0 .1.1.2 0 0 0 .1 0 .1-.1.2-.1.6-.2.6-.4.1-.2-.3-.2-.4-.3"/><path id="prefix__Fill-68" d="M70 87.1c.1.1.1.1 0 0 .1 0 .1 0 0 0 .1 0 .1 0 0 0" fill="#ec8d3c"/><path id="prefix__Fill-69" class="prefix__st15" d="M88 109"/><path id="prefix__Fill-70" class="prefix__st17" d="M53.5 107.4c-.1-.1-.2-.1-.3-.2-.2-.1-.3-.3-.2-.5m-.4-.3c-.2-.2-.3-.6-.4-.8-.2-.6-.2-1.3-.2-1.9 0-.2 0-.3.2-.1.2.1.5.2.7.4.1.2.1.3.1.5 0 .7.3 1.2.9 1.6.4.3.7.6 1.1.8.8.4 1.6.8 2.4 1.1.8.3 1.6.5 2.4.7.2 0 .3.2.4.2v.1c.4.4.9.7 1.4 1 0 .2.1.2.2.3l8.4 4.8c2.3 1.3 4.5 2.6 6.8 3.9.1.1.2.2.4.1.8.5 1.6.7 2.6.8 0 .3-.2.4-.4.6-.3.3-.8.4-1.2.6.4.1.7.3 1.1.4 0 0 .1 0 .2-.1.2 0 .4 0 .5.1 0 .5-.4.7-.7.8-.6.4-1.3.4-2 .4-1-.1-2-.4-2.9-.9-3-1.7-6-3.4-9.1-5.2-2.3-1.3-4.5-2.6-6.8-3.9-.9-.5-1.8-1-2.6-1.7-.4-.3-.7-.6-1-.9-.4-.4-.7-.8-1-1.2-.2-.3-.5-.5-.5-.9"/><path id="prefix__Fill-71" d="M52.9 103.9c.1.2.1.3.1.5 0 .7.3 1.2.9 1.6.4.3.7.6 1.1.8.8.4 1.6.8 2.4 1.1.8.3 1.6.5 2.4.7.2 0 .3.2.4.2.2-.1.4.1.7.1.4 0 .2-.4.3-.6v-3-2.9c0-.9 0-1.7.1-2.6v-2.5c0-.2 0-.3.1-.5-.1 0-.1-.1-.2-.1-.3.1-.7 0-1 0-1-.1-1.9-.5-2.8-.8-.6-.2-1.2-.4-1.7-.7-.3-.2-.7-.3-1.1-.5-.5-.3-.9-.6-1.3-1-.1-.1-.1-.4-.4-.5v10.4c.1.1 0 .2 0 .3" fill="#285379"/><path id="prefix__Fill-72" class="prefix__st17" d="M87.1 117c-.3-.1-.6-.1-.9-.2H86c-.2-.1-.4 0-.4-.2s.2-.2.3-.3c.2-.2.3-.3.4-.6-.8-.1-1.6-.3-2.3-.6-.1.1-.2 0-.2-.1h-.1c.2.9 0 1.8 0 2.6v.4c.8.2 1.6.1 2.3-.1.4-.1.8-.4 1.1-.7.1-.1.1-.2 0-.2"/><path id="prefix__Fill-73" class="prefix__st18" d="M77.7 96.7c.1-.8.1-1.7.2-2.5 0-.4.2-.6.7-.6.8-.1 1.6-.1 2.4-.2.9-.1 1.7-.1 2.6-.1.3 0 .4.2.4.4-.1.9-.1 1.8-.2 2.7 0 .2-.1.3-.3.4-.2.1-.4.1-.5.1-1.3.1-2.7.2-4 .3-.3 0-.7.1-1-.1-.3-.1-.3-.2-.3-.4"/><path id="prefix__Fill-74" class="prefix__st15" d="M61.6 109.9c0 .2.1.2.2.3l8.4 4.8c2.3 1.3 4.5 2.6 6.8 3.9.1.1.2.2.4.1-.6-.4-1.2-.7-1.8-1.1-4.6-2.6-9.2-5.2-13.8-7.9-.1-.1-.1-.1-.2-.1"/><path id="prefix__Fill-75" class="prefix__st16" d="M83.9 115.1c.1.1.1.2.2.1-.1-.1-.1-.2-.2-.1"/><path id="prefix__Fill-76" d="M70.1 87.1c-.1 0-.1 0-.1.1.1 0 .1 0 .1-.1" fill="#d46825"/><path id="prefix__Fill-77" class="prefix__st22" d="M69.2 104.9c5.5 3.2 15.3 2.8 21.7-.9l72.6-41.9c3.2-1.9 5.1-4.3 5.1-6.7 0-1.9-1.2-3.7-3.5-5l-30.4-17.7c-5.5-3.2-15.3-2.8-21.7.9L40.4 75.5c-3.3 1.9-5.1 4.3-5.1 6.7 0 1.9 1.2 3.7 3.5 5l30.4 17.7zm9.3 3.7c-3.8 0-7.4-.8-10.1-2.3L38.1 88.5c-2.8-1.6-4.3-3.8-4.3-6.3 0-2.9 2.1-5.8 5.9-8l72.6-41.9c6.9-4 17.3-4.4 23.2-.9l30.3 17.8c2.8 1.6 4.3 3.8 4.3 6.3 0 2.9-2.1 5.8-5.9 8l-72.6 41.8c-3.7 2.2-8.5 3.3-13.1 3.3z"/><path id="prefix__Fill-78" class="prefix__st22" d="M80.2 125.5h1.1v-2h-1.1z"/><path id="prefix__Fill-79" class="prefix__st22" d="M80.2 121.8h1.1v-2h-1.1z"/><path id="prefix__Fill-80" class="prefix__st22" d="M80.2 132.9h1.1v-2h-1.1z"/><path id="prefix__Fill-81" class="prefix__st22" d="M80.2 110.7h1.1v-2h-1.1z"/><path id="prefix__Fill-82" class="prefix__st22" d="M80.2 118.1h1.1v-2h-1.1z"/><path id="prefix__Fill-83" class="prefix__st22" d="M80.2 114.4h1.1v-2h-1.1z"/><path id="prefix__Fill-84" class="prefix__st22" d="M80.2 129.2h1.1v-2h-1.1z"/></g></g></g></g></svg>