<svg version="1.1" id="prefix__Capa_1" xmlns="http://www.w3.org/2000/svg" x="0" y="0" viewBox="0 0 255.1 186" xml:space="preserve"><style>.prefix__st0{fill:#fff}.prefix__st1{fill-opacity:.85}.prefix__st2{fill-opacity:.6021}.prefix__st4{fill:#dce7f9}.prefix__st5{fill:#e04c1e}.prefix__st6{fill:#fe733e}.prefix__st7{fill:#33211f}.prefix__st8{fill:#46373b}.prefix__st9{fill:#59494e}.prefix__st10{fill:#4f789e}.prefix__st11{fill:#275278}.prefix__st12{fill:#3f3f3f}.prefix__st13{fill:#1d4c6b}.prefix__st14{fill:#605247}.prefix__st15{fill:#896a55}.prefix__st16{fill:#2b2b2b}.prefix__st17{fill:#1b1d2b}.prefix__st18{fill:#ec8d3c}.prefix__st19{fill:#285379}.prefix__st20{fill:#d46825}.prefix__st21{opacity:.4;fill:#001a3f;enable-background:new}.prefix__st24{fill:#5ebdcc}.prefix__st26{fill:#5dc1e8}.prefix__st27{fill:#848484}.prefix__st28{fill:#a8a8a8}.prefix__st29{fill:#c9c9c9}.prefix__st30{fill:none;stroke:#000;stroke-width:.5}</style><path class="prefix__st0" d="M0 0h255.1v186H0z"/><g id="prefix__Styleguide"><g id="prefix__Icons" transform="translate(-616 -1414)"><g id="prefix__Illustration-_x2F_-Locker-XL-" transform="translate(616 1408)"><g id="prefix__Group" transform="translate(33.331 149.774)"><g id="prefix__Group-2" transform="translate(.669 8.226)"><path id="prefix__Rectangle" class="prefix__st1" d="M1.1 0h40v16h-40z"/><path id="prefix___x34_0cm" class="prefix__st0" d="M9.3 14c.1 0 .2 0 .2-.1.1-.1.1-.1.1-.2v-2h1.3c.1 0 .2 0 .2-.1.1-.1.1-.1.1-.2v-.5c0-.1 0-.2-.1-.2-.1-.1-.1-.1-.2-.1H9.7V4.5c0-.1 0-.2-.1-.2-.1-.1-.2-.1-.3-.1h-1c-.1 0-.2 0-.3.1l-.1.1-4.2 5.9c-.1.1-.2.3-.2.4v.5c0 .1 0 .2.1.2.1.1.1.1.2.1h4.6v2c0 .1 0 .2.1.2 0 .3.1.3.2.3h.6zm-.9-3.5H4.9l3.4-4.9.1 4.9zm7.7 3.6c1.2 0 2.1-.4 2.7-1.1.6-.7.9-1.6.9-2.8V9 7.8c0-1.1-.3-2-.9-2.8s-1.4-1.1-2.7-1.1c-1.2 0-2.1.4-2.6 1.1s-.9 1.6-.9 2.8v2.4c0 1.1.3 2.1.9 2.8.6.8 1.4 1.1 2.6 1.1zm0-1.1c-.7 0-1.2-.2-1.6-.7-.4-.5-.6-1.1-.6-2V8c0-.9.2-1.5.6-2 .4-.5.9-.7 1.6-.7s1.2.2 1.6.7.6 1.2.6 2v2.3c0 .9-.2 1.5-.6 2-.3.4-.8.7-1.6.7zm10.7 1.1c.5 0 .9-.1 1.2-.3s.6-.4.7-.6.3-.5.3-.8c0-.1 0-.1-.1-.2-.1 0-.1-.1-.2-.1h-.5s-.1.1-.1.2c-.1.3-.3.6-.5.7s-.5.2-.8.2c-.4 0-.8-.1-1-.4-.2-.3-.4-.7-.4-1.2v-.7c0-.5.2-.9.4-1.2.2-.3.6-.4 1-.4.3 0 .6.1.8.2.2.1.4.4.5.7 0 .1.1.1.1.2s.1 0 .1 0h.4c.1 0 .1 0 .2-.1 0 0 .1-.1.1-.2 0-.3-.1-.5-.3-.8s-.3-.2-.6-.3-.7-.3-1.2-.3c-.7 0-1.3.2-1.7.6-.4.4-.6 1-.6 1.7v.8c0 .7.2 1.3.6 1.7.4.4.9.6 1.6.6zm4.1-.1c.1 0 .1 0 .2-.1 0 0 .1-.1.1-.2V11c0-.5.1-.9.3-1.1.2-.2.5-.4.8-.4s.6.1.9.4.3.6.3 1.1v2.8c0 .1 0 .1.1.2 0 0 .1.1.2.1h.4c.1 0 .1 0 .2-.1 0 0 .1-.1.1-.2V11c0-.5.1-.9.3-1.1s.5-.4.8-.4c.4 0 .7.1.9.3s.3.6.3 1.1v2.8c0 .1 0 .1.1.2 0 0 .1.1.2.1h.4c.1 0 .1 0 .2-.1 0 0 .1-.1.1-.2v-2.9c0-.7-.2-1.2-.5-1.6s-.8-.6-1.3-.6c-.4 0-.7.1-1 .2-.3.2-.5.4-.7.7-.3-.6-.8-.9-1.6-.9-.6 0-1.1.2-1.5.7V9c0-.1 0-.1-.1-.2 0 0-.1-.1-.2-.1h-.4c-.1 0-.1 0-.2.1 0 0-.1.1-.1.2v4.7c0 .1 0 .1.1.2 0 0 .1.1.2.1h.4z"/><path id="prefix__Rectangle-Copy" class="prefix__st2" d="M1.1 18h40v16h-40z"/><path id="prefix___x31_6in" class="prefix__st0" d="M10.6 31c.1 0 .2 0 .2-.1.1-.1.1-.1.1-.2v-9.2c0-.1 0-.2-.1-.2-.1-.1-.1-.1-.2-.1H10c-.1 0-.3 0-.4.1l-3 2.4c-.1.1-.1.1-.1.3 0 .1 0 .1.1.2l.3.4c.1.1.2.1.2.1.1 0 .1 0 .2-.1l2.4-1.8v7.9c0 .1 0 .2.1.2 0 .1 0 .1.1.1h.7zm5.7.1c.7 0 1.4-.2 1.9-.5s1-.7 1.2-1.2c.3-.5.4-1.1.4-1.7s-.1-1.1-.4-1.6-.7-.9-1.2-1.2-1.1-.5-1.8-.5c-.3 0-.6 0-.8.1l2-2.9c0-.1.1-.1.1-.2s0-.2-.1-.2c-.1-.1-.1-.1-.2-.1H16.5c-.1 0-.1.1-.2.1 0 .1-.1.1-.1.1L13.5 25c-.6.9-1 1.8-1 2.6 0 .6.1 1.2.4 1.7.3.5.7.9 1.2 1.2.8.5 1.5.6 2.2.6zm0-1.1c-.4 0-.8-.1-1.1-.3-.3-.2-.6-.4-.8-.7-.2-.3-.3-.7-.3-1.2s.1-.9.3-1.2c.2-.3.5-.6.8-.8.3-.2.7-.3 1.1-.3.4 0 .8.1 1.1.3s.6.4.8.8c.2.3.3.7.3 1.2s-.1.9-.3 1.2-.5.6-.8.7-.7.3-1.1.3zm9-5.2c.1 0 .1 0 .2-.1 0 0 .1-.1.1-.2V24c0-.1 0-.1-.1-.2s-.1-.1-.2-.1h-.6c-.1 0-.1 0-.2.1s-.1.1-.1.2v.5c0 .1 0 .1.1.2 0 0 .1.1.2.1h.6zm0 6.2c.1 0 .1 0 .2-.1s.1-.1.1-.2V26c0-.1 0-.1-.1-.2s-.1-.1-.2-.1h-.4c-.1 0-.1 0-.2.1 0 0-.1.1-.1.2v4.7c0 .1 0 .1.1.2 0 0 .1.1.2.1h.4zm2.4 0c.1 0 .1 0 .2-.1s.1-.1.1-.2V28c0-.5.1-.8.4-1.1.3-.3.6-.4 1-.4s.8.1 1 .4.4.6.4 1.1v2.8c0 .1 0 .1.1.2 0 0 .1.1.2.1h.5c.1 0 .1 0 .2-.1s.1-.1.1-.2V28c0-.7-.2-1.2-.5-1.6-.4-.4-.9-.6-1.5-.6-.4 0-.7.1-1 .2s-.5.3-.7.6V26c0-.1 0-.1-.1-.2 0 0-.1-.1-.2-.1h-.4c-.1 0-.1 0-.2.1 0 0-.1.1-.1.2v4.7c0 .1 0 .1.1.2 0 0 .1.1.2.1h.2z"/></g><path id="prefix__Rectangle-Copy-5" class="prefix__st2" d="M126.7 19.2h47v16h-47z"/><path id="prefix__Rectangle-Copy-4" class="prefix__st1" d="M126.7 1.2h47v16h-47z"/><path id="prefix___x38_5cm" class="prefix__st0" d="M133.6 13.4c.7 0 1.3-.1 1.9-.4.6-.2 1-.6 1.3-1s.5-1 .5-1.6-.1-1-.4-1.5c-.3-.4-.6-.7-1.1-1 .4-.2.6-.5.9-.9.2-.3.3-.8.3-1.2 0-.8-.3-1.5-.9-1.9-.6-.5-1.4-.7-2.4-.7s-1.8.2-2.4.7c-.6.5-.9 1.1-.9 1.9 0 .5.1.9.3 1.2.2.4.5.6.9.8-.5.2-.8.5-1.1 1-.3.4-.4.9-.4 1.4 0 .6.2 1.1.5 1.6s.7.8 1.3 1c.4.4 1 .6 1.7.6zm0-5.9c-.6 0-1.1-.1-1.5-.4s-.6-.7-.6-1.1c0-.5.2-.9.6-1.1.4-.3.9-.4 1.5-.4s1.1.1 1.4.4.6.7.6 1.1c0 .5-.2.8-.6 1.1-.3.2-.8.4-1.4.4zm0 4.8c-.7 0-1.2-.2-1.7-.5-.4-.3-.7-.8-.7-1.3 0-.6.2-1 .7-1.3.4-.3 1-.5 1.7-.5s1.2.2 1.7.5c.4.3.7.8.7 1.3 0 .6-.2 1-.7 1.3-.4.3-1 .5-1.7.5zm8.5 1.1c.7 0 1.3-.1 1.8-.4.5-.3 1-.6 1.3-1.1s.5-1.1.5-1.8-.2-1.2-.5-1.7-.7-.8-1.2-1.1c-.5-.2-1.1-.4-1.7-.4-.8 0-1.4.2-1.8.5l.3-2.8h4c.1 0 .2 0 .2-.1.1-.1.1-.1.1-.2v-.6c0-.1 0-.2-.1-.2s-.1-.1-.2-.1H140c-.2 0-.3.1-.3.4l-.4 4.7c0 .1 0 .2.1.2.1.1.1.1.2.1h.7c.1 0 .2 0 .3-.1.1 0 .2-.1.3-.2.2-.2.4-.3.6-.4.2-.1.5-.1.8-.1.6 0 1.2.2 1.6.6.4.4.6.9.6 1.5 0 .7-.2 1.2-.6 1.6-.4.4-.9.6-1.6.6-.5 0-.9-.1-1.3-.4s-.6-.6-.8-1.1c-.1-.2-.2-.3-.4-.3h-.8c-.1 0-.1 0-.2.1-.1 0-.1.1-.1.2 0 .5.2.9.4 1.3.3.4.7.7 1.2 1 .5.1 1.1.3 1.8.3zm10.5-.1c.5 0 .9-.1 1.2-.3s.6-.4.7-.6c.2-.3.3-.5.3-.8 0-.1 0-.1-.1-.2-.1 0-.1-.1-.2-.1h-.5s-.1.1-.1.2c-.1.3-.3.6-.5.7-.2.1-.5.2-.8.2-.4 0-.8-.1-1-.4-.2-.3-.4-.7-.4-1.2v-.7c0-.5.2-.9.4-1.2s.6-.4 1-.4c.3 0 .6.1.8.2.2.1.4.4.5.7 0 .1.1.1.1.2h.5c.1 0 .1 0 .2-.1.1 0 .1-.1.1-.2 0-.3-.1-.5-.3-.8s-.4-.5-.7-.6c-.3-.2-.7-.3-1.2-.3-.7 0-1.3.2-1.7.6-.4.4-.6 1-.6 1.7v.8c0 .7.2 1.3.6 1.7.5.7 1 .9 1.7.9zm4.1-.1c.1 0 .1 0 .2-.1s.1-.1.1-.2v-2.8c0-.5.1-.9.3-1.1.2-.2.5-.3.8-.3s.6.1.9.3c.2.2.3.6.3 1.1V13c0 .1 0 .1.1.2s.1.1.2.1h.4c.1 0 .1 0 .2-.1 0 0 .1-.1.1-.2v-2.8c0-.5.1-.9.3-1.1.2-.2.5-.4.8-.4.4 0 .7.1.9.3s.3.6.3 1.1V13c0 .1 0 .1.1.2 0 0 .1.1.2.1h.4c.1 0 .1 0 .2-.1s.1-.1.1-.2v-2.9c0-.7-.2-1.2-.5-1.6-.3-.4-.8-.6-1.3-.6-.4 0-.7.1-1 .3s-.5.4-.7.7c-.3-.6-.8-.9-1.6-.9-.6 0-1.1.2-1.5.7v-.4c0-.1 0-.1-.1-.2 0 0-.1-.1-.2-.1h-.4c-.1 0-.1 0-.2.1 0 0-.1.1-.1.2V13c0 .1 0 .1.1.2s.1.1.2.1h.4v-.1z"/><path id="prefix___x33_3_x2C_5in" class="prefix__st0" d="M133.2 31.7c.7 0 1.3-.1 1.8-.4.5-.2 1-.6 1.3-1s.5-1 .5-1.6c0-.9-.3-1.6-.8-2s-1.3-.7-2.3-.7h-.2l2.7-3.1c.1-.1.1-.2.1-.3v-.5c0-.1 0-.2-.1-.2-.1-.1-.1-.1-.2-.1h-5.5c-.1 0-.2 0-.2.1s-.1.1-.1.2v.5c0 .1 0 .2.1.2s.1.1.2.1h4.1l-2.7 3c-.1.1-.2.2-.2.4v.4c0 .1 0 .2.1.2.1.1.1.1.2.1h1.3c1.4 0 2.1.6 2.1 1.7 0 .6-.2 1.1-.6 1.4s-.9.5-1.6.5c-.6 0-1-.1-1.4-.3-.4-.2-.7-.5-.8-1 0-.1-.1-.2-.2-.2s-.1-.1-.3-.1h-.6c-.1 0-.2 0-.2.1-.1.1-.1.1-.1.2 0 .4.2.8.4 1.2.3.4.7.7 1.2.9.6.2 1.3.3 2 .3zm8.4 0c.7 0 1.3-.1 1.8-.4.5-.2 1-.6 1.3-1s.5-1 .5-1.6c0-.9-.3-1.6-.8-2-.6-.5-1.3-.7-2.3-.7h-.2l2.7-3.1c.1-.1.1-.2.1-.3v-.5c0-.1 0-.2-.1-.2s-.1-.1-.2-.1h-5.5c-.1 0-.2 0-.2.1s-.1.1-.1.2v.5c0 .1 0 .2.1.2s.1.1.2.1h4.1l-2.7 3c-.1.1-.2.2-.2.4v.4c0 .1 0 .2.1.2.1.1.1.1.2.1h1.3c1.4 0 2.1.6 2.1 1.7 0 .6-.2 1.1-.6 1.4-.4.3-.9.5-1.6.5-.6 0-1-.1-1.4-.3-.4-.2-.7-.5-.8-1 0-.1-.1-.2-.2-.2s-.1-.1-.3-.1h-.6c-.1 0-.2 0-.2.1-.1.1-.1.1-.1.2 0 .4.2.8.4 1.2.3.4.7.7 1.2.9.6.2 1.2.3 2 .3zm5.6.9c.2 0 .3-.1.4-.3l.7-1.9c0-.1.1-.2.1-.2 0-.1 0-.1-.1-.2 0-.1-.1-.1-.2-.1h-.9c-.2 0-.4.1-.4.4l-.3 2v.2c0 .1.1.1.2.1h.5zm6.1-.9c.7 0 1.3-.1 1.8-.4s1-.6 1.3-1.1.5-1.1.5-1.8-.2-1.2-.5-1.7-.7-.8-1.2-1.1-1.1-.4-1.7-.4c-.8 0-1.4.2-1.8.5l.3-2.8h4c.1 0 .2 0 .2-.1s.1-.1.1-.2v-.5c0-.1 0-.2-.1-.2s-.1-.1-.2-.1h-4.8c-.2 0-.3.1-.3.4l-.4 4.7c0 .1 0 .2.1.2.1.1.1.1.2.1h.7c.1 0 .2 0 .3-.1.1 0 .2-.1.3-.2.2-.2.4-.3.6-.4.2-.1.5-.1.8-.1.6 0 1.2.2 1.6.6.4.4.6.9.6 1.5 0 .7-.2 1.2-.6 1.6-.4.4-.9.6-1.6.6-.5 0-.9-.1-1.3-.4s-.6-.6-.8-1.1c-.1-.2-.2-.3-.4-.3h-.7c-.1 0-.1 0-.2.1s-.1.1-.1.2c0 .5.2.9.4 1.3.3.4.7.7 1.2 1 .4.1 1 .2 1.7.2zm9.2-6.3c.1 0 .1 0 .2-.1s.1-.1.1-.2v-.5c0-.1 0-.1-.1-.2 0 0-.1-.1-.2-.1h-.6c-.1 0-.1 0-.2.1 0 0-.1.1-.1.2v.5c0 .1 0 .1.1.2s.1.1.2.1h.6zm-.1 6.1c.1 0 .1 0 .2-.1 0 0 .1-.1.1-.2v-4.7c0-.1 0-.1-.1-.2 0 0-.1-.1-.2-.1h-.4c-.1 0-.1 0-.2.1 0 0-.1.1-.1.2v4.7c0 .1 0 .1.1.2 0 0 .1.1.2.1h.4zm2.4 0c.1 0 .1 0 .2-.1 0 0 .1-.1.1-.2v-2.8c0-.5.1-.8.4-1.1.3-.3.6-.4 1-.4s.8.1 1 .4.4.6.4 1.1v2.8c0 .1 0 .1.1.2 0 0 .1.1.2.1h.5c.1 0 .1 0 .2-.1 0 0 .1-.1.1-.2v-2.8c0-.7-.2-1.2-.5-1.6s-.9-.6-1.5-.6c-.4 0-.7.1-1 .2s-.5.3-.7.6v-.4c0-.1 0-.1-.1-.2 0 0-.1-.1-.2-.1h-.4c-.1 0-.1 0-.2.1 0 0-.1.1-.1.2v4.7c0 .1 0 .1.1.2 0 0 .1.1.2.1h.2v-.1z"/></g><g id="prefix__Group-4" transform="translate(0 6)"><g id="prefix__Group_1_"><path id="prefix__Fill-1" d="M138.4 40.4V26c.2-2.3-1.1-4.5-3.9-6.1L103.3 2.3C99.2-.1 93-.6 87.3.7c-.1 0-.1 0-.2.1-.5.1-1 .2-1.4.4-.2 0-.3.1-.5.1-.4.1-.8.3-1.2.4-.2.1-.3.1-.5.2-.4.1-.7.3-1.1.5-.2.1-.3.1-.5.2-.5.2-1 .5-1.5.8L6.8 45.8c-2.5 1.5-4.2 3.2-5 5-.3.7-.5 1.4-.5 2.1V96.7c-.2 2.3 1.1 4.5 3.9 6.1l31.2 17.6c5.8 3.4 16.1 3 22.8-.9L132.9 77c3.5-2 5.4-4.6 5.6-7.1V41.2c-.1-.3-.1-.6-.1-.8" fill="#e8eef9"/><path id="prefix__Fill-3" class="prefix__st4" d="M36.2 120.4L5 102.8c-5.8-3.4-5.1-9.3 1.6-13.2l73.7-42.5c6.8-3.9 17-4.3 22.8-.9l31.2 17.6c5.8 3.4 5.1 9.3-1.6 13.2L59 119.5c-6.7 3.9-16.9 4.3-22.8.9"/><path id="prefix__Fill-5" class="prefix__st5" d="M53.4 81.5l10.3 6.6 1.7-20.8z"/><path id="prefix__Fill-7" class="prefix__st5" d="M55.3 45.5l41.2-19.7 9.8 6-52.4 29.8z"/><path id="prefix__Fill-9" class="prefix__st5" d="M58.6 81.8l24.1-13.4C84.4 67.5 99 58.1 99 56.1l-.2-25.6c0-4.3-4.6-7.2-8.2-5.2L52.9 46.2c-1.7.9-2.7 2.8-2.7 4.8l.2 25.6c0 4.3 4.6 7.2 8.2 5.2"/><path id="prefix__Fill-11" class="prefix__st6" d="M69 88.2l37.7-20.9c1.7-.9 2.7-2.8 2.7-4.8l-.2-25.6c0-4.3-4.6-7.2-8.2-5.2L63.3 52.6c-1.7.9-2.7 2.8-2.7 4.8l.2 25.6c0 4.3 4.6 7.2 8.2 5.2"/><path id="prefix__Fill-13" class="prefix__st5" d="M79.6 77.9c-6.1 3.4-9.8 1.9-10.1-7.5-.4-12.4 3.5-14.9 10-18.5 6.4-3.6 29.6-16.2 29.6-16.2s.1.7.1 1.3c.2 6.1.2 24.3.2 24.3L79.6 77.9z"/><path id="prefix__Fill-15" class="prefix__st0" d="M109.3 38.3c-2.4 1.3-24.9 13.6-29.5 16.2-5.1 2.8-8 4.9-8 15.1 0 2.5.3 4.4 1 5.6.3.6.7 1 1.1 1.3 1.3.8 3.3.5 5.9-.9l29.6-16.4v.6L80 76c-2.8 1.5-4.9 1.8-6.4.9-1.6-1-2.4-3.5-2.4-7.3.1-9.9 2.6-12.4 8.3-15.5 4.9-2.7 28.1-15.4 29.8-16.3-.1.1 0 .3 0 .5"/><path id="prefix__Fill-17" class="prefix__st7" d="M58.7 72.8v-7.4c0-1.1-.9-2.5-1.9-3.2s-1.9-.3-1.9.7v7.4c0 1.1.9 2.5 1.9 3.2s1.9.3 1.9-.7"/><path id="prefix__Fill-19" class="prefix__st0" d="M65.8 85.5l-.1-29.7 1.6-.9.2 29.7z"/><path id="prefix__Fill-21" class="prefix__st8" d="M90 25.1c2.1-1.2 5.4-1.2 7.3 0s1.6 3.1-.5 4.3-5.4 1.2-7.3 0c-1.8-1.2-1.6-3.1.5-4.3"/><path id="prefix__Fill-23" class="prefix__st8" d="M88.3 26v1.8l10.3-.7-.1-1.8z"/><path id="prefix__Fill-25" class="prefix__st9" d="M90 23.3c2.1-1.2 5.4-1.2 7.3 0s1.6 3.1-.5 4.3c-2.1 1.2-5.4 1.2-7.3 0-1.9-1.2-1.6-3.1.5-4.3"/><path id="prefix__Fill-27" class="prefix__st0" d="M91.6 24.2c1.1-.6 2.7-.6 3.7 0 .9.6.8 1.6-.3 2.2-1.1.6-2.7.6-3.7 0-.9-.6-.8-1.6.3-2.2"/><path id="prefix__Fill-29" class="prefix__st5" d="M66.9 89.2l10.3 6.7 1.7-20.8z"/><path id="prefix__Fill-31" class="prefix__st5" d="M68.8 53.3l41.1-19.8 9.9 6-52.5 29.8z"/><path id="prefix__Fill-33" class="prefix__st5" d="M72.1 89.5l24.1-13.4c1.7-.9 16.3-10.3 16.3-12.3l-.2-25.6c0-4.3-4.6-7.2-8.2-5.2L66.4 53.9c-1.7.9-2.7 2.8-2.7 4.8l.2 25.6c0 4.3 4.5 7.2 8.2 5.2"/><path id="prefix__Fill-35" class="prefix__st6" d="M82.5 95.9L120.2 75c1.7-.9 2.7-2.8 2.7-4.8l-.2-25.6c0-4.3-4.6-7.2-8.2-5.2L76.8 60.3c-1.7.9-2.7 2.8-2.7 4.8l.2 25.6c0 4.4 4.6 7.3 8.2 5.2"/><path id="prefix__Fill-37" class="prefix__st5" d="M93 85.6c-6.1 3.4-9.8 1.9-10.1-7.5-.4-12.4 3.5-14.9 10-18.5 6.4-3.6 29.6-16.2 29.6-16.2s.1.7.1 1.3c.2 6.1.2 24.3.2 24.3L93 85.6z"/><path id="prefix__Fill-39" class="prefix__st0" d="M122.7 46.1c-2.4 1.3-24.9 13.6-29.5 16.2-5.1 2.8-8 4.9-8 15.1 0 2.5.3 4.4 1 5.6.3.6.7 1 1.1 1.3 1.3.8 3.3.5 5.9-.9L122.8 67v.6L93.5 83.8c-2.8 1.5-4.9 1.8-6.4.9-1.6-1-2.4-3.5-2.4-7.3.1-9.9 2.6-12.4 8.3-15.5 4.9-2.7 28.1-15.4 29.8-16.3-.1.1 0 .3-.1.5"/><path id="prefix__Fill-41" class="prefix__st7" d="M72.1 80.5v-7.4c0-1.1-.9-2.5-1.9-3.2s-1.9-.3-1.9.7V78c0 1.1.9 2.5 1.9 3.2 1.1.7 2 .4 1.9-.7"/><path id="prefix__Fill-43" class="prefix__st0" d="M79.3 93.2l-.1-29.7 1.6-.9.2 29.7z"/><path id="prefix__Fill-45" class="prefix__st8" d="M103.5 32.8c2.1-1.2 5.4-1.2 7.3 0s1.6 3.1-.5 4.3-5.4 1.2-7.3 0c-1.9-1.1-1.6-3.1.5-4.3"/><path id="prefix__Fill-47" class="prefix__st8" d="M101.7 33.8l.1 1.8 10.2-.8V33z"/><path id="prefix__Fill-49" class="prefix__st9" d="M103.5 31.1c2.1-1.2 5.4-1.2 7.3 0 1.9 1.2 1.6 3.1-.5 4.3s-5.4 1.2-7.3 0-1.7-3.1.5-4.3"/><path id="prefix__Fill-51" class="prefix__st0" d="M105 31.9c1.1-.6 2.7-.6 3.7 0 .9.6.8 1.6-.3 2.2-1.1.6-2.7.6-3.7 0-.8-.6-.7-1.6.3-2.2"/><path id="prefix__Fill-53" class="prefix__st5" d="M51.8 43.4V31.2l18.4 9.7z"/><path id="prefix__Fill-55" class="prefix__st5" d="M83.2 61.1l38.8-24 .2-11.6-53.3 28.2z"/><path id="prefix__Fill-57" class="prefix__st5" d="M54.4 38.9l24.2-13.1c1.7-.9 17.4-8.2 19.1-7.1l21.5 13.9c3.6 2.4 3.6 7.8-.1 9.7L81.4 62.9c-1.7.9-3.8.8-5.5-.3l-21.6-14c-3.6-2.3-3.6-7.7.1-9.7"/><path id="prefix__Fill-59" class="prefix__st6" d="M54.6 26.6L92.5 6.1c1.7-.9 3.8-.8 5.5.3l21.5 13.9c3.6 2.4 3.6 7.8-.1 9.7L81.5 50.6c-1.7.9-3.8.8-5.5-.3L54.5 36.4c-3.6-2.4-3.6-7.8.1-9.8"/><path id="prefix__Fill-61" class="prefix__st5" d="M68.9 23.3c-6.1 3.3-6.9 7.2.9 12.5 10.2 7 14.5 5 20.9 1.5 6.5-3.5 29.6-16.3 29.6-16.3s-.5-.5-1-.8C114.3 16.8 98.9 7 98.9 7l-30 16.3z"/><path id="prefix__Fill-63" class="prefix__st0" d="M118.3 19.5c-2.4 1.3-24.8 13.7-29.5 16.2-5.1 2.8-8.4 4.1-17-1.4-2.1-1.3-3.5-2.6-4.2-3.9-.3-.6-.5-1.1-.5-1.6 0-1.6 1.3-3.1 3.9-4.5l29.8-16.2c-.2-.1-.3-.2-.5-.3l-29.6 16c-2.8 1.5-4.2 3.2-4.2 4.9 0 1.9 1.7 3.9 4.9 6 8.4 5.3 11.8 4.5 17.5 1.4 4.9-2.7 28.1-15.4 29.8-16.3-.1 0-.2-.2-.4-.3"/><path id="prefix__Fill-65" class="prefix__st7" d="M62 43.7l6.2 4c.9.6 1.6 2.1 1.6 3.3s-.7 1.8-1.6 1.2l-6.2-4c-.9-.6-1.6-2.1-1.6-3.3 0-1.3.7-1.8 1.6-1.2"/><path id="prefix__Fill-67" class="prefix__st0" d="M55.2 30.8l24.9 16.1 1.7-.9-25-16.1z"/><path id="prefix__Fill-69" class="prefix__st8" d="M119.1 42.8c2.2-1.2 3.9-3.9 3.9-6.1 0-2.2-1.7-3.1-3.9-1.9-2.2 1.2-3.9 3.9-3.9 6.1 0 2.3 1.7 3.1 3.9 1.9"/><path id="prefix__Fill-71" class="prefix__st8" d="M117.4 43.8l-1.5-1 6.1-8.2 1.5 1z"/><path id="prefix__Fill-73" class="prefix__st9" d="M120.6 43.8c2.2-1.2 3.9-3.9 3.9-6.1 0-2.2-1.7-3.1-3.9-1.9-2.2 1.2-3.9 3.9-3.9 6.1 0 2.3 1.7 3.1 3.9 1.9"/><path id="prefix__Fill-75" class="prefix__st0" d="M120.7 42c1.1-.6 2-2 2-3.1s-.9-1.5-2-.9-2 2-2 3.1.9 1.5 2 .9"/><path id="prefix__Fill-77" class="prefix__st10" d="M38.1 89.6c-.4-.1-.8-.3-1.2-.5-2-1.1-4-2.3-6-3.4-.1-.1-.3-.2-.4-.1-.2.2-.5.4-.7.5l-.3.3v11.8c1.6.9 3.3 1.8 4.9 2.8 1.3.8 2.6 1.4 4 1.8 1.4.5 2.9.8 4.4.9.3 0 .6 0 .9.2.3-.2.7 0 1 0h1.2c.5 0 1 0 1.6-.1.1-.1.3-.1.4-.1 1.1-.2 2.2-.4 3.3-.7 0 0 .1 0 .1-.1 1.1-.3 2.2-.8 3.2-1.4.1-.1.2-.2.4-.2 0-.1.2-.1.2-.2H55c-.7.1-1.5 0-2.2 0-1.3-.1-2.6-.4-3.9-1-.1-.1-.2-.1-.2-.3v-1.4c0-.2-.1-.4.1-.6.3-.3.5-.4.9-.2.8.3 1.6.5 2.4.6.7.1 1.3.2 2 .1.4 0 .8 0 1.2-.1 0-.3.2-.5.3-.8.1-.2.3-.3.5-.2.3.2.7.3 1 .5h.1s.1 0 .1-.1c.4-.3 1-.3 1-1v-1.1c0-.3 0-.6-.3-.7-.3-.2-.3-.5-.3-.8v-.7c0-.3-.1-.7.1-1 .1-.2.4-.2.5-.4v-5.5-2.9c-.1-1.1-.6-2.1-1.3-3-1.1-1.3-2.5-2.2-4-2.9-.6-.3-1.2-.6-1.7-1-1.7-1-3.4-2-5.2-2.9-.1-.1-.2-.1-.3-.2-.2.6-.6.9-1.1 1.2-.4.2-.7.4-1.1.6-.9.5-1.8 1.1-2.7 1.6-.6.4-1.3.8-1.9 1.2-.7.4-1.4.8-2.1 1.3-.9.6-1.8 1.1-2.7 1.6-.6.4-1.3.5-2 .5-.8 0-1.5-.3-2.2-.7-2.3-1.3-4.5-2.6-6.8-3.9-.5-.3-.9-.6-1.3-1 0 0 0 .1-.1.1 0 .7.1 1.4 0 2.1 0 .7.3 1.2.9 1.5.4.2.8.5 1.2.7.1 0 .1.1.2.1 0 0 .1.1 0 .1l-.1.1c-.1 0-.1 0-.2-.1-.1 0-.2 0-.2.1s-.1.1 0 .2c.2.2.6.2.7.1.2-.2.3-.1.5 0 1.8 1 3.6 2.1 5.5 3.1 1.1.6 2.4.7 3.6.1 1-.5 2-1.1 2.9-1.7.7-.4 1.5-.9 2.2-1.3.6-.3 1.1-.7 1.7-1 .8-.5 1.6-1 2.5-1.5.7-.4 1.5-.8 2.2-1.4.2-.2.3-.4.3-.6v-.8c0-.4-.1-.8 0-1.2.1.2.3.2.4.3 1.9 1.1 3.7 2.1 5.6 3.2.1 0 .2.1.2.1 1.2.5 2.4 1.2 3.3 2.2.8.8 1.4 1.7 1.6 2.8.2 1.3.1 2.4-.6 3.5-.6.9-1.3 1.5-2.2 2-.9.6-1.9 1-3 1.3-2 .6-4 .8-6 .8-.6 0-1.3 0-1.9-.1-.5-.1-.9-.1-1.4-.2"/><path id="prefix__Fill-79" class="prefix__st11" d="M41.3 72.6c-.5-.3-.8-.3-1.2.1-.1.1-.1.2 0 .3.3.2.6.4 1 .5.1 0 .1.1.2 0 0 0 .1 0 .1-.1.2-.2.6-.2.6-.4s-.4-.2-.5-.4c-.1.1-.1 0-.2 0m-14.7 3.2l2.4-1.5.9-.6c.2-.2.2-.3 0-.5-.3-.1-.5-.3-.8-.4-.3 0-.5 0-.7.2-1.2.7-2.3 1.4-3.4 2.1-.5.3-.5.4 0 .6.1 0 .1.1.3.1.3.6.8.4 1.3 0m-5.2-.1c.3-.8.9-1.1 1.6-1.5.8-.5 1.7-1 2.5-1.5.7-.4 1.4-.8 2.1-1.3.9-.6 1.9-1.1 2.8-1.7l1.5-.9.9-.6c.6-.3 1.2-.5 1.8-.5h.3c1.1 0 2 .6 2.9 1.1l5.7 3.3c.7.4 1.6.8 1.9 1.7-.2.6-.6.9-1.1 1.2-.4.2-.7.4-1.1.6-.9.5-1.8 1.1-2.7 1.6-.6.4-1.3.8-1.9 1.2-.7.4-1.4.8-2.1 1.3-.9.6-1.8 1.1-2.7 1.6-.6.4-1.3.5-2 .5-.8 0-1.5-.3-2.2-.7-2.3-1.3-4.5-2.6-6.8-3.9-.5-.3-.9-.6-1.3-1 0-.2 0-.4-.1-.5"/><path id="prefix__Fill-81" class="prefix__st12" d="M48.6 97.8c-.2.2-.1.4-.1.6v1.4c0 .1 0 .2.2.3 1.2.5 2.5.9 3.9 1 .7.1 1.4.1 2.2 0h.1c0 .1-.1.1-.2.2.1.1.1.3.1.4 0 .5-.1 1-.1 1.5-.1.4-.1.8-.1 1.2 0 .4-.3.7-.3 1.1.3-.1.5-.4.8-.5 0-.1.1-.1.1-.2-.1-.4 0-.8.1-1.1 0-.5.1-1.1 0-1.6 0-.3-.1-.5-.1-.8 0-.1 0-.2.1-.2s.3-.1.3.1c.1.5.2 1 .2 1.5-.1.7-.1 1.4-.2 2.1 0 .4-.1.9-.2 1.3-.1.3-.3.5-.4.8.6-.3 1-.7 1.6-1 .3-.2.5-.3.8-.5.6-.5.8-1.1.9-1.8.1-1.1.3-2.2.2-3.4 0-.1 0-.2.1-.2.4-.2.7-.5 1-.9.4-.5.6-1 .5-1.7 0-.9.1-1.7-.1-2.6-.1-.8-.6-1.5-1.2-2.1-.3-.3-.5-.5-.8-.7-.1.2-.4.2-.5.4.1.1.1.2.2.3.6.4 1 1.1 1.3 1.8.2.5.1 1 0 1.5 0 .1-.1.3-.3.1-.1-.1-.2 0-.3.1-.1.2-.2.4-.4.6 0 .7-.6.7-1 1 0 0-.1 0-.1.1.2.1.3.2.5.2.1 0 .2 0 .2.2 0 .1-.1.2-.2.2l-1.2.3c-.1 0-.2.1-.4 0v-.1c.1-.2.2-.1.4 0 .1.1.2 0 .2-.1.1-.1 0-.2-.1-.2s-.2-.1-.3-.2c-.2 0-.3 0-.5.1h-.1c0 .1-.2.3-.1.4.1.3-.1.2-.2.3h-.9c-.9 0-1.8 0-2.6-.2-1-.3-2.1-.5-3-1"/><path id="prefix__Fill-83" class="prefix__st13" d="M17.7 79.3V91c0 .5.3.8.7 1 .3.2.4.4.4.8-.1.9.1 1.7.5 2.6h.1c.2 0 .2.1.3.2.1.1.1.3.2.3s.1-.2.1-.4v-.1c-.2-.2-.3-.6-.4-.8-.2-.6-.3-1.3-.2-1.9 0-.2 0-.3.2-.1.2.1.5.2.7.4.1-.1.1-.2.1-.3v-2.6-4.8-1.8-1.2c.2.1.2.3.4.5.4.4.8.7 1.3 1 .3.2.7.3 1.1.5.5.3 1.1.5 1.7.7.9.3 1.9.6 2.8.8.3 0 .7.2 1 0-2.7-1.6-5.4-3.1-8.2-4.7-1.1-.4-2.1-.9-2.8-1.8.1 0 .1 0 0 0"/><path id="prefix__Fill-85" class="prefix__st14" d="M44.6 103.9c-.3 0-.7-.1-1 0 1.4.8 2.8 1.6 4.1 2.4.2.1.3.2.3.5-.1.5 0 .9-.1 1.4 0 .3 0 .6-.4.7 0 .3-.2.4-.4.6-.3.3-.8.4-1.2.6.4.1.7.3 1.1.4 0 0 .1 0 .2-.1-.1-.1-.3 0-.4-.2.5-.2.8-.6 1.3-.8v.3c-.1.2 0 .6-.4.7 0 .5-.4.7-.7.8-.6.4-1.3.4-2 .4-1-.1-2-.4-2.9-.9-3-1.7-6.1-3.5-9.1-5.2-2.3-1.3-4.5-2.6-6.8-3.9-.9-.5-1.8-1-2.6-1.7-.4-.3-.7-.6-1-.9-.4-.4-.7-.8-1-1.2-.2-.3-.5-.5-.6-.9-.2-.1-.3-.2-.5-.3-.1 0-.2-.2-.3-.1.3.8.9 1.5 1.4 2.1.7.8 1.5 1.5 2.3 2.1.4.3.8.5 1.1.7 2.5 1.4 5 2.9 7.5 4.3 3.2 1.8 6.4 3.7 9.6 5.5 1.2.6 2.4 1 3.8.8.7-.1 1.3-.3 1.9-.8.1-.1.3-.2.4-.3-.2-.1-.1-.2 0-.3.2-.3.3-.5.3-.8.1-.7.1-1.4.2-2 .1-1 .1-1.9-.2-2.8-.2-.5-.3-1-.6-1.4-.1 0-.3 0-.4.1v.2c.3.5.5 1 .7 1.6 0 .1.1.2 0 .2-.1.1-.2 0-.2-.1-1-.6-2-1.1-3-1.7-.3.1-.4.1-.4 0"/><path id="prefix__Fill-87" class="prefix__st12" d="M47.7 103.7c.3.4.5 1 .6 1.4.3.9.4 1.8.2 2.8-.1.7-.2 1.4-.2 2 0 .3-.2.6-.3.8-.1.1-.1.2 0 .3.5-.2.9-.6 1.4-.9.3-.2.6-.4.9-.7.4-.4.6-1 .7-1.5 0-.1 0-.2.1-.2-.1-.2-.1-.4-.1-.6v-.4c.1-.9.2-1.8 0-2.6 0-.4-.2-.8-.3-1.1-.8.3-1.9.6-3 .7"/><path id="prefix__Fill-89" class="prefix__st14" d="M51.2 107.2c-.1.2-.1.4.1.6 1.3.3 2.4.1 3.5-.7l.2-.2c.1-.3.2-.6.4-.8.2-.4.2-.9.2-1.3.1-.7.1-1.4.2-2.1 0-.5-.1-1-.2-1.5 0-.2-.2-.1-.3-.1-.2 0-.2.1-.1.2.1.3.1.5.1.8v1.6c0 .4-.1.8-.1 1.1 0 .1 0 .1-.1.2.1.5-.1.9-.4 1.1.1.1.1.2 0 .3-.3.3-.6.6-1.1.7-.8.3-1.6.3-2.4.1"/><path id="prefix__Fill-91" class="prefix__st14" d="M19.6 95.7c-.1-.1-.1-.3-.3-.2.2.4.3.9.6 1.3.1-.1.2 0 .3.1.2.1.3.2.5.3.1-.1.3-.1.3-.2s-.2-.2-.3-.2c-.1-.1-.2-.1-.3-.2-.2-.1-.3-.3-.2-.5.1-.2.1-.5.2-.7 0-.2 0-.2-.2-.1-.3.1-.2.3-.3.5v.1"/><path id="prefix__Fill-93" class="prefix__st14" d="M17.7 79.1v.2h.1c0-.1 0-.1-.1-.2z"/><path id="prefix__Fill-95" class="prefix__st15" d="M17.8 77.2c0-.1 0-.1 0 0-.1-.1-.1-.1 0 0"/><path id="prefix__Fill-97" class="prefix__st11" d="M46.3 86.2c1.3-.1 2.7-.2 4-.3.2 0 .4 0 .6-.1.2-.1.3-.2.3-.4.1-.9.1-1.8.2-2.7 0-.3-.1-.4-.4-.4-.9 0-1.7.1-2.6.1-.8 0-1.6.1-2.4.2-.5 0-.7.2-.7.6 0 .8-.1 1.7-.2 2.5 0 .2 0 .3.2.3.4.4.7.2 1 .2m-21.7-5.1c1.8 1 3.6 2.1 5.5 3.1 1.1.6 2.4.7 3.6.1 1-.5 2-1.1 2.9-1.7.7-.4 1.5-.9 2.2-1.3.6-.3 1.1-.7 1.7-1 .8-.5 1.6-1 2.5-1.5.7-.4 1.5-.8 2.2-1.4.2-.2.3-.4.3-.6V76c0-.4-.1-.8 0-1.2.1.2.3.2.4.3 1.9 1.1 3.7 2.1 5.6 3.2.1 0 .2.1.2.1 1.2.5 2.4 1.2 3.3 2.2.8.8 1.4 1.7 1.6 2.8.2 1.3.1 2.4-.6 3.5-.6.9-1.3 1.5-2.2 2-.9.6-1.9 1-3 1.3-2 .6-4 .8-6 .8-.6 0-1.3 0-1.9-.1-.5-.1-.9-.1-1.4-.2m.1-.1c-.4-.2-3.9-.9-4.7-1.4-2-1.1-4-2.3-6-3.4-.1-.1-.3-.2-.4-.1-.3-.3-.7-.4-1-.7-.4-.3-.8-.3-1.2 0-.2.1-.2.2 0 .3.5.3 1 .6 1.5.8l-.3.3c-.1-.3-.4-.4-.6-.5-.1 0-.1-.1-.2-.1-2.7-1.6-5.4-3.1-8.2-4.7.7-.4 1.4-.8 2.1-1.3.4.2.8.5 1.2.7"/><path id="prefix__Fill-99" class="prefix__st13" d="M20.4 81.1c.7-.4 1.4-.8 2.1-1.3-.6-.3-.9-.8-.9-1.5v-2.1c-.2-.1-.3.1-.4.1-.9.5-1.8 1.1-2.7 1.6-.4.2-.7.6-.7 1.1.1 0 .1.1 0 .2.6 1 1.6 1.5 2.6 1.9"/><path id="prefix__Fill-101" class="prefix__st13" d="M28.3 98c.3.2.7.2 1.1.3v-3.9-4.3-3.6c-.1-.3-.4-.4-.6-.5-.1.2-.1.3-.1.5V89c0 .9-.1 1.7-.1 2.6v5.9c-.1.1 0 .4-.3.5"/><path id="prefix__Fill-103" class="prefix__st14" d="M58 96.7c.2-.1.3-.4.4-.6.1-.1.1-.2.3-.1.2.2.2 0 .3-.1.1-.5.2-1 0-1.5-.2-.7-.6-1.3-1.3-1.8-.1-.1-.2-.2-.2-.3-.2.3 0 .7-.1 1v.7c0 .3 0 .6.3.8.3.1.3.4.3.7v1.2"/><path id="prefix__Fill-105" class="prefix__st14" d="M48.6 97.8c1 .5 2 .7 3.1.9.9.2 1.7.2 2.6.2h.9c.1 0 .3 0 .2-.3 0-.1.1-.2.1-.4-.2-.1-.3 0-.5 0-.4.2-.8.1-1.2.1-.7 0-1.3-.1-2-.1-.8-.1-1.6-.4-2.4-.6-.3-.2-.5-.2-.8.2"/><path id="prefix__Fill-107" class="prefix__st16" d="M44.6 103.9c0 .1.1.2.2.2 1 .6 2 1.1 3 1.7.1 0 .2.1.2.1.1-.1 0-.2 0-.2-.1-.6-.4-1.1-.7-1.6 0-.1-.1-.2 0-.2-.5 0-1 0-1.6.1-.3-.1-.7-.1-1.1-.1"/><path id="prefix__Fill-109" class="prefix__st14" d="M54.3 101.6c.1.6-.1 1.3-.1 1.9 0 .4 0 .8-.2 1.2 0 .1-.1.2-.2.3-.1.2-.3.4-.4.6-.1.1-.3.1-.3.3 0 .2.3.1.4.2h.2c.1-.1.3-.2.4-.4.1-.4.3-.7.3-1.1s.1-.8.1-1.2c.1-.5.1-1 .1-1.5 0-.2 0-.3-.1-.4 0-.1-.1 0-.2.1"/><path id="prefix__Fill-111" class="prefix__st13" d="M30.4 85.6c-.3-.3-.7-.4-1-.7-.4-.3-.8-.3-1.2 0-.2.1-.2.2 0 .3.5.3 1 .6 1.5.8.3 0 .5-.2.7-.4"/><path id="prefix__Fill-113" class="prefix__st10" d="M55 98.2c.2.1.3-.1.5 0h.1c.1-.1.3-.1.5-.1.2-.1.5-.1.7-.3-.3-.2-.7-.3-1-.5-.2-.1-.4-.1-.5.2-.1.2-.3.4-.3.7"/><path id="prefix__Fill-115" class="prefix__st14" d="M55.2 98.9c.1.1.9-.2 1-.2l1.2-.3c.1 0 .2-.1.2-.2s-.1-.1-.2-.2c-.2 0-.3-.1-.5-.2h-.1c-.2.2-.5.2-.7.3.1.1-.7.1-.6.2"/><path id="prefix__Fill-117" class="prefix__st17" d="M25.2 76c.4.4.9.2 1.4-.1l2.4-1.5.9-.6c.2-.2.2-.3 0-.5-.3-.1-.5-.3-.8-.4-.3 0-.5 0-.7.2-1.2.7-2.3 1.4-3.4 2.1-.5.3-.5.4 0 .6 0 .1 0 .1.2.2"/><path id="prefix__Fill-119" class="prefix__st17" d="M41.5 72.7c-.1-.1-.1-.1-.2-.1-.5-.3-.8-.3-1.2.1-.1.1-.1.2 0 .3.3.2.6.4 1 .5.1 0 .1.1.2 0 0 0 .1 0 .1-.1.2-.2.6-.2.6-.4.1-.1-.3-.2-.5-.3"/><path id="prefix__Fill-121" class="prefix__st18" d="M37.5 76.1s0 .1 0 0c0 .1 0 .1 0 0 .1.1.1 0 0 0"/><path id="prefix__Fill-123" class="prefix__st14" d="M55.6 98.2c-.1 0 0 0 0 0"/><path id="prefix__Fill-125" class="prefix__st16" d="M20.8 96.6c-.1-.1-.2-.1-.3-.2-.2-.1-.3-.3-.2-.5m-.4-.3c-.2-.2-.3-.6-.4-.8-.2-.6-.3-1.3-.2-1.9 0-.2 0-.3.2-.1.2.1.5.2.7.4.1.2.1.3.1.5 0 .7.3 1.2.9 1.6.4.3.7.6 1.1.8.8.4 1.6.8 2.5 1.1.8.3 1.6.5 2.4.7.2 0 .3.2.4.2v.1c.4.4.9.7 1.4 1.1 0 .2.1.2.2.3l8.4 4.8c2.3 1.3 4.5 2.6 6.8 3.9.1.1.2.2.4.1.8.5 1.7.7 2.6.8 0 .3-.2.4-.4.6-.3.3-.8.4-1.2.6.4.1.7.3 1.1.4 0 0 .1 0 .2-.1.2 0 .4 0 .5.1 0 .5-.4.7-.7.8-.6.4-1.3.4-2 .4-1-.1-2-.4-2.9-.9-3-1.7-6.1-3.5-9.1-5.2-2.3-1.3-4.5-2.6-6.8-3.9-.9-.5-1.8-1-2.6-1.7-.4-.3-.7-.6-1-.9-.4-.4-.7-.8-1-1.2-.2-.3-.5-.5-.6-.9"/><path id="prefix__Fill-127" class="prefix__st19" d="M20.2 93c.1.2.1.3.1.5 0 .7.3 1.2.9 1.6.4.3.7.6 1.1.8.8.4 1.6.8 2.5 1.1.8.3 1.6.5 2.4.7.2 0 .3.2.4.2.2-.1.5.1.7.1.4 0 .2-.4.3-.6v-3-2.9c0-.9 0-1.7.1-2.6v-2.5c0-.2 0-.4.1-.5-.1 0-.1-.1-.2-.1-.3.1-.7 0-1 0-1-.1-1.9-.5-2.8-.8-.6-.2-1.2-.4-1.7-.7-.3-.2-.7-.3-1.1-.5-.5-.3-.9-.6-1.3-1-.1-.1-.1-.4-.4-.5v10.4c0 .1 0 .2-.1.3"/><path id="prefix__Fill-129" class="prefix__st16" d="M54.6 106.1c-.3-.1-.6-.1-.9-.2h-.2c-.2-.1-.4 0-.4-.2s.2-.2.3-.3c.2-.2.3-.3.4-.6-.8-.1-1.6-.3-2.3-.6-.1.1-.2 0-.2-.1h-.1c.2.9 0 1.8 0 2.6v.4c.8.2 1.6.1 2.3-.1.4-.1.8-.4 1.1-.7.1 0 .2-.1 0-.2"/><path id="prefix__Fill-131" class="prefix__st17" d="M45.1 85.8c.1-.8.1-1.7.2-2.5 0-.4.2-.6.7-.6.8-.1 1.6-.1 2.4-.2.9-.1 1.7-.1 2.6-.1.3 0 .4.2.4.4-.1.9-.1 1.8-.2 2.7 0 .2-.1.3-.3.4s-.4.1-.6.1c-1.3.1-2.7.2-4 .3-.3 0-.7.1-1-.1-.1-.1-.2-.2-.2-.4"/><path id="prefix__Fill-133" class="prefix__st14" d="M29 99c0 .2.1.2.2.3l8.4 4.8c2.3 1.3 4.5 2.6 6.8 3.9.1.1.2.2.4.1-.6-.4-1.2-.7-1.9-1.1-4.6-2.6-9.2-5.3-13.8-7.9 0 0 0-.1-.1-.1"/><path id="prefix__Fill-135" class="prefix__st15" d="M51.4 104.2c.1.1.1.2.2.1-.1-.1-.1-.1-.2-.1"/><path id="prefix__Fill-137" class="prefix__st20" d="M37.6 76.1c-.1 0-.1 0 0 0-.1.1-.1.1 0 0-.1.1-.1.1 0 0 0 .1 0 0 0 0"/><path id="prefix__Fill-139" class="prefix__st10" d="M38.1 67.5c-.4-.1-.8-.3-1.2-.5-2-1.1-4-2.3-6-3.4-.1-.1-.3-.2-.4-.1-.2.2-.5.4-.7.5l-.3.3v11.8c1.6.9 3.3 1.8 4.9 2.8 1.3.8 2.6 1.4 4 1.8 1.4.5 2.9.8 4.4.9.3 0 .6 0 .9.2.3-.2.7 0 1 0h1.2c.5 0 1 0 1.6-.1.1-.1.3-.1.4-.1 1.1-.2 2.2-.4 3.3-.7 0 0 .1 0 .1-.1 1.1-.3 2.2-.8 3.2-1.4.1-.1.2-.2.4-.2 0-.1.2-.1.2-.2H55c-.7.1-1.5 0-2.2 0-1.3-.1-2.6-.4-3.9-1-.1-.1-.2-.1-.2-.3v-1.4c0-.2-.1-.4.1-.6.3-.3.5-.4.9-.2.8.3 1.6.5 2.4.6.7.1 1.3.2 2 .1.4 0 .8 0 1.2-.1 0-.3.2-.5.3-.8.1-.2.3-.3.5-.2.3.2.7.3 1 .5h.1s.1 0 .1-.1c.4-.3 1-.3 1-1v-1.1c0-.3 0-.6-.3-.7-.3-.2-.3-.5-.3-.8v-.7c0-.3-.1-.7.1-1 .1-.2.4-.2.5-.4v-5.5-2.9c-.1-1.1-.6-2.1-1.3-3-1.1-1.3-2.5-2.2-4-2.9-.6-.3-1.2-.6-1.7-1-1.7-1-3.4-2-5.2-2.9-.1-.1-.2-.1-.3-.2-.2.6-.6.9-1.1 1.2-.4.2-.7.4-1.1.6-.9.5-1.8 1.1-2.7 1.6-.6.4-1.3.8-1.9 1.2-.7.4-1.4.8-2.1 1.3-.9.6-1.8 1.1-2.7 1.6-.6.4-1.3.5-2 .5-.8 0-1.5-.3-2.2-.7-2.3-1.3-4.5-2.6-6.8-3.9-.5-.3-.9-.6-1.3-1 0 0 0 .1-.1.1 0 .7.1 1.4 0 2.1 0 .7.3 1.2.9 1.5.4.2.8.5 1.2.7.1 0 .1.1.2.1 0 0 .1.1 0 .1l-.1.1c-.1 0-.1 0-.2-.1-.1 0-.2 0-.2.1s-.1.1 0 .2c.2.2.6.2.7.1.2-.2.3-.1.5 0 1.8 1 3.6 2.1 5.5 3.1 1.1.6 2.4.7 3.6.1 1-.5 2-1.1 2.9-1.7.7-.4 1.5-.9 2.2-1.3.6-.3 1.1-.7 1.7-1 .8-.5 1.6-1 2.5-1.5.7-.4 1.5-.8 2.2-1.4.2-.2.3-.4.3-.6v-.8c0-.4-.1-.8 0-1.2.1.2.3.2.4.3 1.9 1.1 3.7 2.1 5.6 3.2.1 0 .2.1.2.1 1.2.5 2.4 1.2 3.3 2.2.8.8 1.4 1.7 1.6 2.8.2 1.3.1 2.4-.6 3.5-.6.9-1.3 1.5-2.2 2-.9.6-1.9 1-3 1.3-2 .6-4 .8-6 .8-.6 0-1.3 0-1.9-.1-.5-.1-.9-.1-1.4-.2"/><path id="prefix__Fill-141" class="prefix__st11" d="M41.3 50.5c-.5-.3-.8-.3-1.2.1-.1.1-.1.2 0 .3.3.2.6.4 1 .5.1 0 .1.1.2 0 0 0 .1 0 .1-.1.2-.2.6-.2.6-.4s-.4-.2-.5-.4h-.2m-14.7 3.2l2.4-1.5.9-.6c.2-.2.2-.3 0-.5-.3-.1-.5-.3-.8-.4-.3 0-.5 0-.7.2-1.2.7-2.3 1.4-3.4 2.1-.5.3-.5.4 0 .6.1 0 .1.1.3.1.3.6.8.3 1.3 0m-5.2-.1c.3-.8.9-1.1 1.6-1.5.8-.5 1.7-1 2.5-1.5.7-.4 1.4-.8 2.1-1.3.9-.6 1.9-1.1 2.8-1.7l1.5-.9.9-.6c.6-.3 1.2-.5 1.8-.5h.3c1.1 0 2 .6 2.9 1.1l5.7 3.3c.7.4 1.6.8 1.9 1.7-.2.6-.6.9-1.1 1.2-.4.2-.7.4-1.1.6-.9.5-1.8 1.1-2.7 1.6-.6.4-1.3.8-1.9 1.2-.7.4-1.4.8-2.1 1.3-.9.6-1.8 1.1-2.7 1.6-.6.4-1.3.5-2 .5-.8 0-1.5-.3-2.2-.7-2.3-1.3-4.5-2.6-6.8-3.9-.5-.3-.9-.6-1.3-1 0-.2 0-.4-.1-.5"/><path id="prefix__Fill-143" class="prefix__st12" d="M48.6 75.7c-.2.2-.1.4-.1.6v1.4c0 .1 0 .2.2.3 1.2.5 2.5.9 3.9 1 .7.1 1.4.1 2.2 0h.1c0 .1-.1.1-.2.2.1.1.1.3.1.4 0 .5-.1 1-.1 1.5-.1.4-.1.8-.1 1.2 0 .4-.3.7-.3 1.1.3-.1.5-.4.8-.5 0-.1.1-.1.1-.2-.1-.4 0-.8.1-1.1 0-.5.1-1.1 0-1.6 0-.3-.1-.5-.1-.8 0-.1 0-.2.1-.2s.3-.1.3.1c.1.5.2 1 .2 1.5-.1.7-.1 1.4-.2 2.1 0 .4-.1.9-.2 1.3-.1.3-.3.5-.4.8.6-.3 1-.7 1.6-1 .3-.2.5-.3.8-.5.6-.5.8-1.1.9-1.8.1-1.1.3-2.2.2-3.4 0-.1 0-.2.1-.2.4-.2.7-.5 1-.9.4-.5.6-1 .5-1.7 0-.9.1-1.7-.1-2.6-.1-.9-.6-1.5-1.2-2.1-.3-.3-.5-.5-.8-.7-.1.2-.4.2-.5.4.1.1.1.2.2.3.6.4 1 1.1 1.3 1.8.2.5.1 1 0 1.5 0 .1-.1.3-.3.1-.1-.1-.2 0-.3.1-.1.2-.2.4-.4.6 0 .7-.6.7-1 1 0 0-.1 0-.1.1.2.1.3.2.5.2.1 0 .2 0 .2.2 0 .1-.1.2-.2.2l-1.2.3c-.1 0-.2.1-.4 0v-.1c.1-.2.2-.1.4 0 .1.1.2 0 .2-.1.1-.1 0-.2-.1-.2s-.2-.1-.3-.2c-.2 0-.3 0-.5.1h-.1c0 .1-.2.3-.1.4.1.3-.1.2-.2.3h-.9c-.9 0-1.8 0-2.6-.2-1-.3-2.1-.5-3-1"/><path id="prefix__Fill-145" class="prefix__st13" d="M17.7 57.2V68.9c0 .5.3.8.7 1 .3.2.4.4.4.8-.1.9.1 1.7.5 2.6h.1c.2 0 .2.1.3.2.1.1.1.3.2.3s.1-.2.1-.4v-.1c-.2-.2-.3-.6-.4-.8-.2-.6-.3-1.3-.2-1.9 0-.2 0-.3.2-.1.2.1.5.2.7.4.1-.1.1-.2.1-.3V68v-4.8-1.8-1.2c.2.1.2.3.4.5.4.4.8.7 1.3 1 .3.2.7.3 1.1.5.5.3 1.1.5 1.7.7.9.3 1.9.6 2.8.8.3 0 .7.2 1 0-2.7-1.6-5.4-3.1-8.2-4.7-1.1-.5-2.1-.9-2.8-1.8.1 0 .1 0 0 0"/><path id="prefix__Fill-147" class="prefix__st14" d="M44.6 81.8c-.3 0-.7-.1-1 0 1.4.8 2.8 1.6 4.1 2.4.2.1.3.2.3.5-.1.5 0 .9-.1 1.4 0 .3 0 .6-.4.7 0 .3-.2.4-.4.6-.3.3-.8.4-1.2.6.4.1.7.3 1.1.4 0 0 .1 0 .2-.1-.1-.1-.3 0-.4-.2.5-.2.8-.6 1.3-.8v.3c-.1.2 0 .6-.4.7 0 .5-.4.7-.7.9-.6.4-1.3.4-2 .4-1-.1-2-.4-2.9-.9-3-1.7-6.1-3.5-9.1-5.2-2.3-1.3-4.5-2.6-6.8-3.9-.9-.5-1.8-1-2.6-1.7-.4-.3-.7-.6-1-.9-.4-.4-.7-.8-1-1.2-.2-.3-.5-.5-.6-.9-.2-.1-.3-.2-.5-.3-.1 0-.2-.2-.3-.1.3.8.9 1.5 1.4 2.1.7.8 1.5 1.5 2.3 2.1.4.3.8.5 1.1.7 2.5 1.4 5 2.9 7.5 4.3 3.2 1.8 6.4 3.7 9.6 5.5 1.2.6 2.4 1 3.8.9.7-.1 1.3-.3 1.9-.8.1-.1.3-.2.4-.3-.2-.1-.1-.2 0-.3.2-.3.3-.5.3-.8.1-.7.1-1.4.2-2 .1-1 .1-1.9-.2-2.8-.2-.5-.3-1-.6-1.4-.1 0-.3 0-.4.1v.2c.3.5.5 1 .7 1.6 0 .1.1.2 0 .2-.1.1-.2 0-.2-.1-1-.6-2-1.1-3-1.7-.3-.1-.4-.1-.4-.2"/><path id="prefix__Fill-149" class="prefix__st12" d="M47.7 81.6c.3.4.5 1 .6 1.4.3.9.4 1.8.2 2.8-.1.7-.2 1.4-.2 2 0 .3-.2.6-.3.8-.1.1-.1.2 0 .3.5-.2.9-.6 1.4-.9.3-.2.6-.4.9-.7.4-.4.6-1 .7-1.5 0-.1 0-.2.1-.2-.1-.2-.1-.4-.1-.6v-.4c.1-.9.2-1.8 0-2.6 0-.4-.2-.8-.3-1.1-.8.3-1.9.5-3 .7"/><path id="prefix__Fill-151" class="prefix__st14" d="M51.2 85.1c-.1.2-.1.4.1.6 1.3.3 2.4.1 3.5-.7l.2-.2c.1-.3.2-.6.4-.8.2-.4.2-.9.2-1.3.1-.7.1-1.4.2-2.1 0-.5-.1-1-.2-1.5 0-.2-.2-.1-.3-.1-.2 0-.2.1-.1.2.1.3.1.5.1.8v1.6c0 .4-.1.8-.1 1.1 0 .1 0 .1-.1.2.1.5-.1.9-.4 1.1.1.1.1.2 0 .3-.3.3-.6.6-1.1.7-.8.3-1.6.3-2.4.1"/><path id="prefix__Fill-153" class="prefix__st14" d="M19.6 73.6c-.1-.1-.1-.3-.3-.2.2.4.3.9.6 1.3.1-.1.2 0 .3.1.2.1.3.2.5.3.1-.1.3-.1.3-.2s-.2-.2-.3-.2c-.1-.1-.2-.1-.3-.2-.2-.1-.3-.3-.2-.5.1-.2.1-.5.2-.7 0-.2 0-.2-.2-.1-.2-.2-.2.1-.3.2v.1"/><path id="prefix__Fill-155" class="prefix__st14" d="M17.7 57v.2h.1c0-.1 0-.2-.1-.2z"/><path id="prefix__Fill-157" class="prefix__st15" d="M17.8 55s0-.1 0 0c-.1 0-.1 0 0 0"/><path id="prefix__Fill-159" class="prefix__st11" d="M46.3 64.1c1.3-.1 2.7-.2 4-.3.2 0 .4 0 .6-.1.2-.1.3-.2.3-.4.1-.9.1-1.8.2-2.7 0-.3-.1-.4-.4-.4-.9 0-1.7.1-2.6.1-.8 0-1.6.1-2.4.2-.5 0-.7.2-.7.6 0 .8-.1 1.7-.2 2.5 0 .2 0 .3.2.3.4.3.7.2 1 .2M24.6 59c1.8 1 3.6 2.1 5.5 3.1 1.1.6 2.4.7 3.6.1 1-.5 2-1.1 2.9-1.7.7-.4 1.5-.9 2.2-1.3.6-.3 1.1-.7 1.7-1 .8-.5 1.6-1 2.5-1.5.7-.4 1.5-.8 2.2-1.4.2-.2.3-.4.3-.6v-.8c0-.4-.1-.8 0-1.2.1.2.3.2.4.3 1.9 1.1 3.7 2.1 5.6 3.2.1 0 .2.1.2.1 1.2.5 2.4 1.2 3.3 2.2.8.8 1.4 1.7 1.6 2.8.2 1.3.1 2.4-.6 3.5-.6.9-1.3 1.5-2.2 2-.9.6-1.9 1-3 1.3-2 .6-4 .8-6 .8-.6 0-1.3 0-1.9-.1-.5-.1-.9-.1-1.4-.2m.1-.1c-.4-.2-3.9-.9-4.7-1.4-2-1.1-4-2.3-6-3.4-.1-.1-.3-.2-.4-.1-.3-.3-.7-.4-1-.7-.4-.3-.8-.3-1.2 0-.2.1-.2.2 0 .3.5.3 1 .6 1.5.8l-.3.3c-.1-.3-.4-.4-.6-.5-.1 0-.1-.1-.2-.1-2.7-1.6-5.4-3.1-8.2-4.7.7-.4 1.4-.8 2.1-1.3.4.2.8.5 1.2.7"/><path id="prefix__Fill-161" class="prefix__st13" d="M20.4 59c.7-.4 1.4-.8 2.1-1.3-.6-.3-.9-.8-.9-1.5v-2.1c-.2-.1-.3.1-.4.1-.9.5-1.8 1.1-2.7 1.6-.4.2-.7.6-.7 1.1.1 0 .1.1 0 .2.6 1 1.6 1.4 2.6 1.9"/><path id="prefix__Fill-163" class="prefix__st13" d="M28.3 75.8c.3.2.7.2 1.1.3v-3.9-4.3-3.6c-.1-.3-.4-.4-.6-.5-.1.2-.1.3-.1.5v2.5c0 .9-.1 1.7-.1 2.6v5.9c-.1.2 0 .5-.3.5"/><path id="prefix__Fill-165" class="prefix__st14" d="M58 74.6c.2-.1.3-.4.4-.6.1-.1.1-.2.3-.1.2.2.2 0 .3-.1.1-.5.2-1 0-1.5-.2-.7-.6-1.3-1.3-1.8-.1-.1-.2-.2-.2-.3-.2.3 0 .7-.1 1v.7c0 .3 0 .6.3.8.3.3.3.6.3.8v1.1"/><path id="prefix__Fill-167" class="prefix__st14" d="M48.6 75.7c1 .5 2 .7 3.1.9.9.2 1.7.2 2.6.2h.9c.1 0 .3 0 .2-.3 0-.1.1-.2.1-.4-.2-.1-.3 0-.5 0-.4.2-.8.1-1.2.1-.7 0-1.3-.1-2-.1-.8-.1-1.6-.4-2.4-.6-.3-.2-.5-.2-.8.2"/><path id="prefix__Fill-169" class="prefix__st16" d="M44.6 81.8c0 .1.1.2.2.2 1 .6 2 1.1 3 1.7.1 0 .2.1.2.1.1-.1 0-.2 0-.2-.1-.6-.4-1.1-.7-1.6 0-.1-.1-.2 0-.2-.5 0-1 0-1.6.1-.3-.2-.7-.2-1.1-.1"/><path id="prefix__Fill-171" class="prefix__st14" d="M54.3 79.4c.1.6-.1 1.3-.1 1.9 0 .4 0 .8-.2 1.2 0 .1-.1.2-.2.3-.1.2-.3.4-.4.6-.1.1-.3.1-.3.3 0 .2.3.1.4.2h.2c.1-.1.3-.2.4-.4.1-.4.3-.7.3-1.1s.1-.8.1-1.2c.1-.5.1-1 .1-1.5 0-.2 0-.3-.1-.4 0 0-.1.1-.2.1"/><path id="prefix__Fill-173" class="prefix__st13" d="M30.4 63.5c-.3-.3-.7-.4-1-.7-.4-.3-.8-.3-1.2 0-.2.1-.2.2 0 .3.5.3 1 .6 1.5.8.3 0 .5-.2.7-.4"/><path id="prefix__Fill-175" class="prefix__st10" d="M55 76.1c.2.1.3-.1.5 0h.1c.1-.1.3-.1.5-.1.2-.1.5-.1.7-.3-.3-.2-.7-.3-1-.5-.2-.1-.4-.1-.5.2-.1.2-.3.4-.3.7"/><path id="prefix__Fill-177" class="prefix__st14" d="M55.2 76.7c.1.1.9-.2 1-.2l1.2-.3c.1 0 .2-.1.2-.2s-.1-.1-.2-.2c-.2 0-.3-.1-.5-.2h-.1c-.2.2-.5.2-.7.3.1.1-.7.1-.6.2"/><path id="prefix__Fill-179" class="prefix__st17" d="M25.2 53.8c.4.4.9.2 1.4-.1l2.4-1.5.9-.6c.2-.2.2-.3 0-.5-.3-.1-.5-.3-.8-.4-.3 0-.5 0-.7.2-1.2.7-2.3 1.4-3.4 2.1-.5.3-.5.4 0 .6 0 .1 0 .2.2.2"/><path id="prefix__Fill-181" class="prefix__st17" d="M41.5 50.6c-.1-.1-.1-.1-.2-.1-.5-.3-.8-.3-1.2.1-.1.1-.1.2 0 .3.3.2.6.4 1 .5.1 0 .1.1.2 0 0 0 .1 0 .1-.1.2-.2.6-.2.6-.4.1-.2-.3-.2-.5-.3"/><path id="prefix__Fill-183" class="prefix__st18" d="M37.5 54c0 .1 0 .1 0 0 .1 0 .1 0 0 0"/><path id="prefix__Fill-185" class="prefix__st14" d="M55.6 76s-.1.1 0 0c-.1.1 0 .1 0 0"/><path id="prefix__Fill-187" class="prefix__st16" d="M20.8 74.5c-.1-.1-.2-.1-.3-.2-.2-.1-.3-.3-.2-.5m-.4-.4c-.2-.2-.3-.6-.4-.8-.2-.6-.3-1.3-.2-1.9 0-.2 0-.3.2-.1.2.1.5.2.7.4.1.2.1.3.1.5 0 .7.3 1.2.9 1.6.4.3.7.6 1.1.8.8.4 1.6.8 2.5 1.1.8.3 1.6.5 2.4.7.2 0 .3.2.4.2v.1c.4.4.9.7 1.4 1.1 0 .2.1.2.2.3l8.4 4.8c2.3 1.3 4.5 2.6 6.8 3.9.1.1.2.2.4.1.8.5 1.7.7 2.6.8 0 .3-.2.4-.4.6-.3.3-.8.4-1.2.6.4.1.7.3 1.1.4 0 0 .1 0 .2-.1.2 0 .4 0 .5.1 0 .5-.4.7-.7.9-.6.4-1.3.4-2 .4-1-.1-2-.4-2.9-.9-3-1.7-6.1-3.5-9.1-5.2-2.3-1.3-4.5-2.6-6.8-3.9-.9-.5-1.8-1-2.6-1.7-.4-.3-.7-.6-1-.9-.4-.4-.7-.8-1-1.2-.2-.3-.5-.5-.6-.9"/><path id="prefix__Fill-189" class="prefix__st19" d="M20.2 70.9c.1.2.1.3.1.5 0 .7.3 1.2.9 1.6.4.3.7.6 1.1.8.8.4 1.6.8 2.5 1.1.8.3 1.6.5 2.4.7.2 0 .3.2.4.2.2-.1.5.1.7.1.4 0 .2-.4.3-.6v-3-2.9c0-.9 0-1.7.1-2.6v-2.5c0-.2 0-.4.1-.5-.1 0-.1-.1-.2-.1-.3.1-.7 0-1 0-1-.1-1.9-.5-2.8-.8-.6-.2-1.2-.4-1.7-.7-.3-.2-.7-.3-1.1-.5-.5-.3-.9-.6-1.3-1-.1-.1-.1-.4-.4-.5v10.4c0 .1 0 .2-.1.3"/><path id="prefix__Fill-191" class="prefix__st16" d="M54.6 84c-.3-.1-.6-.1-.9-.2h-.2c-.2-.1-.4 0-.4-.2s.2-.2.3-.3c.2-.2.3-.3.4-.6-.8-.1-1.6-.3-2.3-.6-.1.1-.2 0-.2-.1h-.1c.2.9 0 1.8 0 2.6v.4c.8.2 1.6.1 2.3-.1.4-.1.8-.4 1.1-.7.1 0 .2-.1 0-.2"/><path id="prefix__Fill-193" class="prefix__st17" d="M45.1 63.7c.1-.8.1-1.7.2-2.5 0-.4.2-.6.7-.6.8-.1 1.6-.1 2.4-.2.9-.1 1.7-.1 2.6-.1.3 0 .4.2.4.4-.1.9-.1 1.8-.2 2.7 0 .2-.1.3-.3.4-.2.1-.4.1-.6.1-1.3.1-2.7.2-4 .3-.3 0-.7.1-1-.1-.1-.1-.2-.2-.2-.4"/><path id="prefix__Fill-195" class="prefix__st14" d="M29 76.9c0 .2.1.2.2.3l8.4 4.8c2.3 1.3 4.5 2.6 6.8 3.9.1.1.2.2.4.1-.6-.4-1.2-.7-1.9-1.1-4.6-2.6-9.2-5.3-13.8-7.9 0-.1 0-.1-.1-.1"/><path id="prefix__Fill-197" class="prefix__st15" d="M51.4 82.1c.1.1.1.2.2.1-.1-.1-.1-.1-.2-.1"/><path id="prefix__Fill-199" class="prefix__st20" d="M37.6 54c-.1 0-.1 0 0 0-.1.1-.1.1 0 0-.1.1-.1.1 0 0"/><path id="prefix__Fill-201" class="prefix__st21" d="M37 77c5.6 3.2 15.3 2.8 21.8-.9l73-42.1c3.3-1.9 5.1-4.3 5.1-6.7 0-1.9-1.2-3.7-3.5-5L102.9 4.4c-5.6-3.2-15.3-2.8-21.8.9L8.2 47.4C4.9 49.3 3 51.8 3 54.1c0 1.9 1.2 3.7 3.5 5L37 77zm9.4 3.7c-3.8 0-7.5-.8-10.2-2.3L5.8 60.5c-2.8-1.6-4.3-3.9-4.3-6.3 0-2.9 2.2-5.9 5.9-8L80.3 4c6.9-4 17.4-4.4 23.4-.9L134.2 21c2.8 1.6 4.3 3.8 4.3 6.3 0 2.9-2.2 5.9-5.9 8l-73 42.1c-3.7 2.2-8.6 3.3-13.2 3.3z"/><path id="prefix__Fill-203" class="prefix__st21" d="M44.9 82.7H46v-2h-1.1z"/><path id="prefix__Fill-205" class="prefix__st21" d="M44.9 86.4H46v-2h-1.1z"/><path id="prefix__Fill-207" class="prefix__st21" d="M44.9 90.1H46v-2h-1.1z"/><path id="prefix__Fill-209" class="prefix__st21" d="M44.9 101.3H46v-2h-1.1z"/><path id="prefix__Fill-211" class="prefix__st21" d="M44.9 123.6H46v-2h-1.1z"/><path id="prefix__Fill-213" class="prefix__st21" d="M44.9 112.4H46v-2h-1.1z"/><path id="prefix__Fill-215" class="prefix__st21" d="M44.9 97.5H46v-1.9h-1.1z"/><path id="prefix__Fill-217" class="prefix__st21" d="M44.9 119.8H46v-1.9h-1.1z"/><path id="prefix__Fill-219" class="prefix__st21" d="M44.9 116.1H46v-2h-1.1z"/><path id="prefix__Fill-221" class="prefix__st21" d="M44.9 108.7H46v-2h-1.1z"/><path id="prefix__Fill-223" class="prefix__st21" d="M44.9 93.8H46v-2h-1.1z"/><path id="prefix__Fill-225" class="prefix__st21" d="M44.9 105H46v-2h-1.1z"/></g><g id="prefix__Group_2_" transform="translate(44 38)"><path id="prefix__Fill-227" d="M158.7 40.4V26c.2-2.3-1.1-4.5-3.9-6.1L123.6 2.3c-4.1-2.4-10.3-2.9-16-1.6-.1 0-.1 0-.2.1-.5.1-1 .2-1.4.4-.2 0-.3.1-.5.1-.4.1-.8.3-1.2.4-.2.1-.3.1-.5.2-.4.1-.7.3-1.1.5-.2.1-.3.1-.5.2-.5.2-1 .5-1.5.8L27.1 45.8c-2.5 1.5-4.2 3.2-5 5-.3.7-.5 1.4-.5 2.1V96.7c-.2 2.3 1.1 4.5 3.9 6.1l31.2 17.6c5.8 3.4 16.1 3 22.8-.9L153.2 77c3.5-2 5.4-4.6 5.6-7.1V41.2c-.1-.3-.1-.6-.1-.8" opacity=".8" fill="#e8eef9"/><path id="prefix__Fill-229" class="prefix__st4" d="M56.7 120.4l-31.2-17.6c-5.8-3.4-5.1-9.3 1.6-13.2l73.7-42.5c6.8-3.9 17-4.3 22.8-.9l31.2 17.6c5.8 3.4 5.1 9.3-1.6 13.2l-73.7 42.5c-6.8 3.9-17 4.3-22.8.9"/><path id="prefix__Fill-231" class="prefix__st8" d="M126.4 17.6c1.8-1 3.3-3.3 3.3-5.1s-1.4-2.4-3.2-1.4-3.3 3.3-3.3 5.1c-.1 1.8 1.4 2.5 3.2 1.4"/><path id="prefix__Fill-233" class="prefix__st8" d="M126 19.1l-2.2-1.3 5.1-6.9 2.2 1.3z"/><path id="prefix__Fill-235" class="prefix__st9" d="M128.6 19c1.8-1 3.3-3.3 3.3-5.1s-1.4-2.4-3.2-1.4-3.3 3.3-3.3 5.1c0 1.8 1.4 2.4 3.2 1.4"/><path id="prefix__Fill-237" class="prefix__st0" d="M128.7 17.5c.9-.5 1.6-1.7 1.6-2.6 0-.9-.7-1.2-1.6-.7-.9.5-1.6 1.7-1.6 2.6 0 .9.7 1.2 1.6.7"/><path id="prefix__Fill-239" d="M63.8 73.5c.3.2 1 .2 2-.4L87 60.6c2-1.2 3.7-3.9 3.7-5.8l-.1-8.2c0-.3-.1-.9-.4-1.1-.3-.2-1-.2-2 .4L67 58.3c-2 1.2-3.7 3.9-3.7 5.8l.1 8.2c0 .2 0 .6.2.9 0 .2.1.3.2.3m-3.1-9.3c0-2.9 2.2-6.4 4.9-8l21.2-12.5c1.7-1 3.3-1.1 4.6-.4.5.3.9.7 1.2 1.2.3.6.5 1.3.5 2.1l.1 8.2c0 2.9-2.1 6.4-4.9 8L67.1 75.3c-1.7 1-3.3 1.1-4.6.4-1.1-.6-1.7-1.8-1.7-3.3" fill="#a0989e"/><path id="prefix__Fill-241" class="prefix__st24" d="M70 46.7l54.9-31.2 17 9.7L82.1 66z"/><path id="prefix__Fill-243" class="prefix__st24" d="M74.8 90l50.4-29.6c2.2-1.3 3.6-3.7 3.5-6.2l-.3-32.6c-.1-5.5-6-8.9-10.8-6.1L67.2 45c-2.2 1.3-3.6 3.7-3.5 6.2l.3 32.7c0 5.5 6 8.9 10.8 6.1"/><path id="prefix__Fill-245" class="prefix__st24" d="M67 89.7l17.7 10.1 6.9-23.9z"/><path id="prefix__Fill-247" d="M91.8 99.8l50.4-29.6c2.2-1.3 3.6-3.7 3.5-6.3l-.3-32.6c-.1-5.5-6-8.9-10.8-6.1L84.2 54.8c-2.2 1.3-3.6 3.7-3.5 6.2l.3 32.7c0 5.5 6 8.9 10.8 6.1" fill="#96ddff"/><path id="prefix__Fill-249" class="prefix__st0" d="M126.6 21L76.2 50.5c-2.2 1.3-3.6 3.7-3.5 6.2l.3 32.7c0 2.1.9 3.8 2.2 5.1-2.8-.9-5-3.4-5-6.7l-.3-32.6c0-2.6 1.3-4.9 3.5-6.2l50.4-29.6c3-1.7 7-1.2 9.2.9-1.9-.7-4.6-.4-6.4.7"/><path id="prefix__Fill-251" class="prefix__st26" d="M86.2 59.1s18-6.7 31.3-14.9 25.1-15.7 25.1-15.7l.1 1.5s-12.7 9.2-24.8 16.7-31.7 13.7-31.7 13.7v-1.3z"/><path id="prefix__Fill-253" class="prefix__st26" d="M86.4 70.7s18-6.7 31.3-14.9C131 47.5 142.8 40 142.8 40l.1 1.5s-12.7 9.2-24.8 16.7C105.9 65.7 86.4 72 86.4 72v-1.3z"/><path id="prefix__Fill-255" class="prefix__st26" d="M86.2 82.2s18-6.7 31.3-14.9 25.1-15.7 25.1-15.7l.1 1.5s-12.7 9.2-24.8 16.7-31.7 13.8-31.7 13.8v-1.4z"/><path id="prefix__Fill-257" class="prefix__st26" d="M86.4 94.1s18-6.7 31.3-14.9 25.1-15.7 25.1-15.7l.1 1.5s-12.7 9.2-24.8 16.7-31.7 13.8-31.7 13.8v-1.4z"/><path id="prefix__Fill-259" class="prefix__st8" d="M143 26.7c1.8-1 3.3-3.3 3.3-5.1 0-1.8-1.4-2.4-3.2-1.4s-3.3 3.3-3.3 5.1c-.1 1.8 1.4 2.5 3.2 1.4"/><path id="prefix__Fill-261" class="prefix__st8" d="M142.6 28.2l-2.2-1.3 5.1-6.9 2.2 1.3z"/><path id="prefix__Fill-263" class="prefix__st9" d="M145.2 28.1c1.8-1 3.3-3.3 3.3-5.1 0-1.8-1.4-2.4-3.2-1.4s-3.3 3.3-3.3 5.1c0 1.8 1.4 2.4 3.2 1.4"/><path id="prefix__Fill-265" class="prefix__st0" d="M145.3 26.6c.9-.5 1.6-1.7 1.6-2.6s-.7-1.2-1.6-.7c-.9.5-1.6 1.7-1.6 2.6s.7 1.2 1.6.7"/><path id="prefix__Fill-267" class="prefix__st27" d="M139.5 24.5l4-2.3s1 .7 2 1.6.2 1.9-1.3 2.3c-2 .5-4.7.9-4.7.9v-2.5z"/><path id="prefix__Fill-269" class="prefix__st28" d="M139.5 24.5l-2.2-1.3 4-2.3 2.2 1.4z"/><path id="prefix__Fill-271" class="prefix__st29" d="M137.1 23.9l1.8 1-.1 1.9.7.3v-2.6l-2.2-1.3z"/><path id="prefix__Fill-273" class="prefix__st8" d="M147.4 63.6c1.8-1 3.3-3.3 3.3-5.1s-1.4-2.4-3.2-1.4-3.3 3.3-3.3 5.1c0 1.8 1.4 2.4 3.2 1.4"/><path id="prefix__Fill-275" class="prefix__st8" d="M147 65.1l-2.1-1.3 5-6.9 2.3 1.3z"/><path id="prefix__Fill-277" class="prefix__st9" d="M149.7 64.9c1.8-1 3.3-3.3 3.3-5.1s-1.4-2.4-3.2-1.4-3.3 3.3-3.3 5.1c0 1.8 1.4 2.5 3.2 1.4"/><path id="prefix__Fill-279" class="prefix__st0" d="M149.8 63.5c.9-.5 1.6-1.7 1.6-2.6 0-.9-.7-1.2-1.6-.7-.9.5-1.6 1.7-1.6 2.6 0 .9.7 1.2 1.6.7"/><path id="prefix__Fill-281" class="prefix__st28" d="M143.2 62.8s4.3-2.4 5.7-2.4c1.1 0 1.5.5 1.4.5-.1-.1-6.6 2.4-6.6 2.4l-.5-.5z"/><path id="prefix__Fill-283" class="prefix__st27" d="M143.8 63.2v5.1s2.4-1.5 3.9-2.9c1.3-1.1 2.5-3 2.7-3.7s.3-1.8-2.6-.5c-1.8 1-4 2-4 2"/><path id="prefix__Fill-285" class="prefix__st29" d="M143.2 62.8l.6.4v5.2l-1.3-.8.6-.4z"/><path id="prefix__Fill-287" class="prefix__st27" d="M122.9 15.4l4-2.3s1 .7 2 1.6c1 .9.2 1.9-1.3 2.3-2 .5-4.9-1-4.9-1l.2-.6z"/><path id="prefix__Fill-289" class="prefix__st28" d="M122.9 15.4l-2.2-1.3 4-2.3 2.2 1.4z"/><path id="prefix__Fill-291" class="prefix__st29" d="M120.5 14.8l2.2 1.3.2-.7-2.2-1.3z"/><path id="prefix__Stroke-293" class="prefix__st30" d="M165.1 75.7l15.5 8.4"/><path id="prefix__Stroke-295" class="prefix__st30" d="M70.4 130.6l15.5 8.4"/><path id="prefix__Stroke-297" class="prefix__st30" d="M131.9 103.5l40.9-23.9"/><path id="prefix__Stroke-299" class="prefix__st30" d="M78.2 135l32.2-18.8"/><path id="prefix__Stroke-302" class="prefix__st30" d="M64.6 130.2l-11.5 6.6"/><path id="prefix__Stroke-304" class="prefix__st30" d="M39 122l10.4 5.9 9.5 5.5"/><path id="prefix__Stroke-306" class="prefix__st30" d="M6.8 103.5l10.4 6"/><path id="prefix__Fill-308" class="prefix__st10" d="M55.5 88c.1.4.2.9.2 1.3v6.9c0 .2 0 .3.2.4.3.1.6.2.8.4.1 0 .3.1.4.1 1-.6 2.1-1.2 3.1-1.8 1.3-.7 2.5-1.4 3.8-2.1 1.1-.7 2.3-1.3 3.4-1.9v-5.6c0-1.5-.1-2.9-.4-4.4s-.8-2.9-1.4-4.3c-.1-.3-.3-.5-.3-.9-.3-.2-.4-.6-.5-.9-.2-.3-.4-.7-.6-1-.3-.4-.5-.9-.8-1.3-.1-.1-.2-.2-.2-.3-.7-.9-1.4-1.7-2.2-2.5 0 0-.1 0-.1-.1-.9-.8-1.8-1.5-2.8-2.1-.1-.1-.3-.1-.4-.2-.1 0-.2-.1-.3 0v.1c.4.6.8 1.2 1.1 1.9.6 1.2.9 2.5 1.1 3.9 0 .2 0 .2-.1.3-.4.2-.8.5-1.3.7-.2.1-.3.3-.6.3-.4-.1-.6-.2-.6-.6-.1-.8-.3-1.6-.6-2.4-.2-.6-.5-1.2-.9-1.8-.2-.3-.4-.7-.7-1-.3.2-.5 0-.8.1-.3 0-.4-.1-.4-.3 0-.4-.1-.7-.1-1.1l-.1-.1c-.4-.2-.8-.7-1.4-.4-.3.2-.6.4-.9.5-.2.1-.5.3-.4.6 0 .4-.2.5-.5.7-.2.1-.4.3-.6.3-.3.1-.6.4-.9.4-.2 0-.4-.2-.6-.3l-4.8 2.7c-.8.5-1.7.9-2.5 1.5-.9.6-1.6 1.5-2 2.6-.6 1.6-.7 3.2-.6 4.9V89.4c.6-.2 1.1 0 1.6.3.4.2.7.4 1.1.6l2.7 1.5c.7.4 1.3.8 2 1.1.7.4 1.4.8 2.2 1.2.9.5 1.8 1 2.7 1.6.6.4 1.1.9 1.4 1.5.4.7.5 1.5.5 2.3v7.9c0 .6-.1 1.1-.3 1.6h.1c.6-.4 1.2-.7 1.8-1.1.7-.3.8-.9.9-1.5V105v-.2s0-.1.1-.1c0 0 .1 0 .1.1v.2c0 .1.1.1.2.1s.2 0 .2-.1c.1-.2-.1-.6-.3-.7-.3-.1-.3-.2-.3-.4v-6.3c0-1.3-.6-2.4-1.6-3.2-.9-.7-2-1.1-2.9-1.7-.7-.4-1.5-.8-2.3-1.3-.6-.3-1.1-.7-1.7-1-.8-.5-1.7-.9-2.5-1.4-.8-.4-1.5-.9-2.3-1.2-.3-.1-.5-.1-.7 0s-.5.3-.7.4c-.4.2-.7.4-1.1.6.1-.2.1-.3.1-.5v-6.4-.3c-.1-1.3-.1-2.7.2-3.9.3-1.1.7-2 1.6-2.8 1-.8 2-1.3 3.3-1.2 1 .1 2 .4 2.9.9 1 .5 1.8 1.2 2.6 1.9 1.5 1.4 2.7 3 3.7 4.9.3.6.6 1.1.9 1.7.2.4.4.9.5 1.3"/><path id="prefix__Fill-310" class="prefix__st11" d="M39 93.6c0 .6.2.8.7 1 .2 0 .2 0 .2-.2v-1.1c0-.1 0-.1-.1-.2l-.1-.1c-.2-.1-.5-.4-.7-.3s0 .4-.1.6l.1.3zm10.2 11.2c-.8-.4-1.7-.9-2.5-1.4-.3-.2-.6-.4-1-.5-.3-.1-.4 0-.4.3s-.1.6.1.9c.1.2.3.4.5.5 1.2.7 2.4 1.3 3.5 2 .5.3.6.2.6-.3v-.3c.1-.6-.3-.9-.8-1.2zm2.4 4.5c-.8.1-1.4-.3-2.1-.6-.9-.5-1.7-1-2.6-1.4-.7-.4-1.4-.8-2.2-1.2-1-.5-1.9-1.1-2.9-1.6l-1.5-.9c-.3-.2-.6-.3-.9-.5-.6-.3-1-.8-1.4-1.3-.1-.1-.1-.2-.2-.2-.5-1-.5-2-.5-3V92c0-.9-.1-1.7.5-2.5.6-.2 1.1 0 1.6.3.4.2.7.4 1.1.6l2.7 1.5c.7.4 1.3.8 2 1.1.7.4 1.4.8 2.2 1.2.9.5 1.8 1 2.7 1.6.6.4 1.1.9 1.4 1.5.4.7.5 1.5.5 2.3v7.9c0 .6-.1 1.1-.3 1.6.1 0 0 .1-.1.2z"/><path id="prefix__Fill-312" class="prefix__st12" d="M57.3 74.8c.2 0 .4-.2.6-.3.4-.2.8-.5 1.3-.7.1-.1.2-.1.1-.3-.2-1.3-.5-2.6-1.1-3.9-.3-.7-.6-1.3-1.1-1.9v-.1c.1 0 .2.1.3 0l.3-.3c.5-.2.9-.4 1.4-.6.4-.2.7-.3 1.1-.5.4-.1.7-.1 1.1-.3-.3-.2-.6-.3-.9-.5h-.2c-.3.2-.7.3-1 .5-.5.2-1 .5-1.4.8-.2.1-.4.3-.6.5-.1.1-.2.1-.2 0-.1-.1-.2-.2-.1-.3.4-.3.7-.7 1.2-.9.6-.3 1.3-.6 1.9-.9.4-.2.8-.4 1.3-.4.3 0 .6 0 .9-.1-.5-.3-1.1-.6-1.7-.9-.3-.1-.6-.3-.9-.4-.7-.3-1.4-.2-2 .1-1 .5-2.1.9-3 1.5-.1.1-.2 0-.3 0-.4-.2-.8-.4-1.2-.4-.6-.1-1.2 0-1.7.4-.7.5-1.5.8-2.2 1.3s-1 1.2-1.2 2.1c-.1.4-.2.7-.2 1.1.2 0 .4.3.6.3 0-.1.1-.2.1-.4.1-.8.4-1.4.9-2 .4-.4.8-.6 1.3-.7.1 0 .3-.1.2.2-.1.2.1.2.2.2.2 0 .5-.1.7.1.6-.3.9.2 1.4.4l.1.1v-.5c0-.1-.1-.2 0-.3.1-.1.2 0 .3.1.3.3.6.6.9.8.1.1.2.2.2.3 0 .1-.1.1-.1.1-.2 0-.2-.2-.2-.3 0-.1-.1-.1-.2-.1s-.2.1-.2.2v.3c.1.2.2.3.3.3h.1c.1 0 .3 0 .4-.1.2-.2.2-.1.3.1.2.2.3.5.5.8.4.8.9 1.5 1.2 2.4.2 1 .5 2 .5 3.1"/><path id="prefix__Fill-314" class="prefix__st13" d="M56.5 110.8c1.1-.6 2.1-1.2 3.2-1.9 1.3-.7 2.5-1.5 3.8-2.2 1-.6 2.1-1.2 3.1-1.8.4-.2.5-.7.6-1.1 0-.4.2-.6.5-.8.8-.4 1.4-1 2-1.7v-.1c-.1-.2 0-.2.1-.3.1-.1.3-.2.1-.3-.1-.1-.2 0-.4.1-.1.3-.4.5-.6.7-.4.5-1 .8-1.5 1.2-.1.1-.2.1-.2-.1v-.8c-.1 0-.2 0-.3.1-.8.4-1.5.9-2.3 1.3l-4.2 2.4c-.5.3-1 .6-1.6.9-.3.2-.7.4-1 .6 0-.3.2-.4.2-.5.2-.5.2-1.1.3-1.6 0-.4-.1-.8-.1-1.2 0-.6-.1-1.2-.2-1.8-.2-1-.4-1.9-.7-2.9-.1-.3-.2-.7-.5-.9v9.4c.1 1.1.2 2.2-.3 3.3 0-.1 0 0 0 0"/><path id="prefix__Fill-316" class="prefix__st14" d="M64.6 75.3c.2.3.2.7.5.9v-4.8c0-.2.1-.4.3-.5.4-.2.8-.4 1.3-.6.2-.1.5-.3.8 0 .3-.2.5 0 .7.1.4.1.7.5 1.1.8-.1-.4-.1-.8-.2-1.2l-.1-.1c0 .1.1.2.1.4-.4-.3-.9-.4-1.4-.7.1-.1.2-.1.3-.1.3 0 .6-.3.8 0 .4-.2.8 0 1.1.2.6.3 1 .9 1.3 1.6.5.9.7 2 .7 3v18.3c0 1 0 2.1-.2 3.1-.1.5-.2.9-.3 1.4-.1.5-.3 1-.5 1.5-.1.3-.2.7-.5.9v.5c0 .1-.1.3.1.3.5-.7.8-1.5 1.1-2.3.4-1 .6-2 .7-3.1.1-.4.1-.9.1-1.3v-8.7-11c0-1.3-.3-2.6-1.1-3.7-.4-.6-1-1-1.6-1.3-.2-.1-.3-.2-.5-.2 0 .2-.1.2-.2.2-.3 0-.6 0-.9.1-.6.3-1.2.6-1.9.8-.9.4-1.7.9-2.3 1.6-.3.4-.7.8-.9 1.3.1.1.1.2.3.3.1 0 .1-.1.2-.1.3-.5.6-1 1.1-1.4.1-.1.1-.2.2-.1.1 0 .1.2.1.3v3.4c-.2 0-.2.1-.3.2"/><path id="prefix__Fill-318" class="prefix__st12" d="M62.9 72.6c.2-.5.6-.9.9-1.3.6-.7 1.4-1.2 2.3-1.6.6-.3 1.3-.5 1.9-.8.3-.1.6-.1.9-.1.1 0 .3 0 .2-.2-.4-.3-1-.5-1.4-.7-.3-.2-.7-.4-1.1-.5-.6-.2-1.1 0-1.7.1h-.3c-.1.2-.3.3-.5.3 0 .1-.1.2-.2.2-.8.4-1.6.7-2.3 1.3-.3.2-.6.5-.9.8.8.8 1.5 1.7 2.2 2.5"/><path id="prefix__Fill-320" class="prefix__st14" d="M64.2 67.8c.2 0 .4-.1.5-.3-.4-1.2-1.1-2.2-2.3-2.7-.1 0-.2-.1-.2-.1-.3.1-.6.1-.9.1-.4 0-.9.2-1.3.4-.6.3-1.3.6-1.9.9-.5.2-.8.6-1.2.9-.2.1 0 .2.1.3.1.1.1.1.2 0 .2-.2.4-.4.6-.5.5-.3.9-.6 1.4-.8.3-.2.7-.3 1-.5h.2c.4-.3.9-.4 1.2-.2 0-.1.1-.2.2-.1.4.1.8.2 1.2.6.6.6 1 1.3 1.2 2"/><path id="prefix__Fill-322" class="prefix__st14" d="M69.9 101c-.1.1-.2.2-.1.3.3-.4.6-.7.8-1.2-.2 0-.1-.2-.1-.3v-.5c-.1-.1-.2-.2-.3-.2-.2.1-.2.3-.2.4v.4c0 .2-.1.4-.3.4-.2.1-.5.1-.7.2s-.1.1 0 .2c.2.2.4 0 .6 0"/><path id="prefix__Fill-324" class="prefix__st14" d="M56.4 110.9c.1 0 .1 0 .2-.1-.2-.1-.2 0-.2.1z"/><path id="prefix__Fill-326" class="prefix__st15" d="M54.7 111.8s-.1 0 0 0c0 .1 0 .1 0 0"/><path id="prefix__Fill-328" class="prefix__st11" d="M48.4 82.5c-.7-1.1-1.5-2.2-2.2-3.4-.1-.2-.2-.3-.4-.4-.1-.1-.3-.2-.5-.1l-2.4 1.2c-.3.1-.3.3-.2.5.4.8.9 1.5 1.4 2.2.4.7.9 1.3 1.3 2 .3.4.5.5.9.3.7-.4 1.5-.8 2.3-1.1.2-.1.2-.2.2-.3 0-.4-.2-.6-.4-.9m6.3 21.4v-6.3c0-1.3-.6-2.4-1.6-3.2-.9-.7-2-1.1-2.9-1.7-.7-.4-1.5-.8-2.3-1.3-.6-.3-1.1-.7-1.7-1-.8-.5-1.7-.9-2.5-1.4-.8-.4-1.5-.9-2.3-1.2-.3-.1-.5-.1-.7 0s-.5.3-.7.4c-.4.2-.7.4-1.1.6.1-.2.1-.3.1-.5v-6.4-.3c-.1-1.3-.1-2.7.2-3.9.3-1.1.7-2 1.6-2.8 1-.8 2-1.3 3.3-1.2 1 .1 2 .4 2.9.9 1 .5 1.8 1.2 2.6 1.9 1.5 1.4 2.7 3 3.7 4.9.3.6.6 1.1.9 1.7.2.4.4.9.5 1.3m-.1.1c.1.4 1.1 3.9 1.1 4.8v6.9c0 .2 0 .3.2.4-.1.4 0 .8-.1 1.2-.1.5.2.9.6 1.1.2.1.3 0 .3-.1 0-.6.1-1.1 0-1.7.1 0 .3.1.4.1-.2.2-.1.5-.1.8v9.6l-2.1-1.2V105"/><path id="prefix__Fill-330" class="prefix__st13" d="M56.8 107.6l-2.1-1.2c0 .7-.2 1.2-.9 1.5-.6.3-1.2.7-1.8 1.1 0 .2.2.2.3.3l2.7 1.5c.4.2.8.3 1.3.1 0-.1.1-.1.1-.1.6-1.1.5-2.2.4-3.2"/><path id="prefix__Fill-332" class="prefix__st13" d="M67.6 92.4c0-.4-.2-.7-.3-1.1-1.1.6-2.3 1.3-3.4 1.9-1.3.7-2.5 1.4-3.8 2.1-1.1.7-2.1 1.3-3.1 1.9-.2.2-.1.5-.1.8.2 0 .3-.1.5-.2.7-.4 1.5-.8 2.2-1.2.8-.4 1.5-.8 2.3-1.2.8-.5 1.7-.9 2.5-1.4.9-.5 1.7-1 2.6-1.5.1-.2.3-.4.6-.1"/><path id="prefix__Fill-334" class="prefix__st14" d="M51.7 67.2c-.2-.1-.4 0-.7-.1-.1 0-.3 0-.2-.2.1-.3-.1-.2-.2-.2-.5.1-.9.3-1.3.7-.5.6-.9 1.2-.9 2 0 .1-.1.2-.1.4.4 0 .6-.3.9-.4l.6-.3c.3-.2.5-.3.5-.7 0-.3.2-.5.4-.6.4-.3.7-.5 1-.6"/><path id="prefix__Fill-336" class="prefix__st14" d="M57.3 74.8c0-1.1-.4-2.1-.7-3.1-.3-.8-.7-1.6-1.2-2.4-.2-.3-.3-.5-.5-.8-.1-.1-.2-.3-.3-.1-.1.1-.3.1-.4.1 0 .2.2.3.2.4.3.3.5.7.7 1l.9 1.8c.3.8.5 1.6.6 2.4.2.5.3.6.7.7"/><path id="prefix__Fill-338" class="prefix__st16" d="M64.6 75.3c.1-.1.1-.2.1-.3v-3.4c0-.1.1-.2-.1-.3-.1 0-.1.1-.2.1-.4.4-.8.9-1.1 1.4-.1.1-.1.1-.2.1.3.4.5.9.8 1.3.3.4.5.7.7 1.1"/><path id="prefix__Fill-340" class="prefix__st14" d="M57.8 68c.5-.4 1.1-.6 1.7-.9.3-.2.7-.4 1.1-.4h.3c.2 0 .5 0 .7.1.1 0 .3.2.4.1.1-.1-.1-.3-.1-.5 0 0 0-.1-.1-.1-.2-.1-.4-.1-.5-.2-.3.1-.7.1-1.1.3-.4.2-.7.3-1.1.5-.5.2-.9.4-1.4.6-.1.1-.2.1-.3.3.1.1.3.1.4.2"/><path id="prefix__Fill-342" class="prefix__st13" d="M55.8 96.6c-.1.4 0 .8-.1 1.2-.1.5.2.9.6 1.1.2.1.3 0 .3-.1 0-.6.1-1.1 0-1.7-.3-.3-.5-.4-.8-.5"/><path id="prefix__Fill-344" class="prefix__st10" d="M54.5 69c0-.2-.2-.2-.2-.4h-.1c-.1-.1-.3-.2-.3-.3-.2-.2-.4-.4-.6-.5 0 .4.1.7.1 1.1 0 .2.1.4.4.3.2-.1.5 0 .7-.2"/><path id="prefix__Fill-346" class="prefix__st14" d="M55 68.6c0-.1-.6-.7-.7-.8-.3-.3-.6-.6-.9-.8-.1-.1-.2-.1-.3-.1-.1.1-.1.2 0 .3.1.2 0 .4 0 .5v.1c.3.1.4.4.6.5 0-.1.4.5.4.4"/><path id="prefix__Fill-348" class="prefix__st17" d="M50 105.9c.1-.6-.3-.9-.8-1.1-.8-.4-1.7-.9-2.5-1.4-.3-.2-.6-.4-1-.5-.3-.1-.4 0-.4.3s-.1.6.1.9c.1.2.3.4.5.5 1.2.7 2.4 1.3 3.5 2 .5.3.6.2.6-.3v-.4z"/><path id="prefix__Fill-350" class="prefix__st17" d="M39 93.4v.2c0 .6.2.8.7 1 .2 0 .2 0 .2-.2v-1.1c0-.1 0-.1-.1-.2l-.1-.1c-.2-.1-.5-.4-.7-.3-.1.1.1.5 0 .7"/><path id="prefix__Fill-352" class="prefix__st18" d="M44 95.2s.1 0 0 0c.1-.1 0-.1 0 0 0-.1 0-.1 0 0"/><path id="prefix__Fill-354" class="prefix__st14" d="M54.2 68.6"/><path id="prefix__Fill-356" class="prefix__st16" d="M70 99.5v.4c0 .2-.1.4-.3.4m-.1.5c-.1.3-.4.5-.6.7-.4.5-1 .8-1.5 1.2-.1.1-.2.1-.2-.1v-.8c.1-.2.3-.2.4-.3.6-.3.9-.9 1-1.6.1-.5.2-.9.1-1.4-.1-.9-.1-1.8-.3-2.7-.2-.8-.3-1.6-.6-2.4 0-.1 0-.3-.1-.5l.1-.1c.1-.6.2-1.2.2-1.8.2-.1.1-.2.1-.3V81v-7.9c0-.1.1-.3-.1-.3 0-.9-.2-1.8-.6-2.6.3-.2.5 0 .7.1.4.1.7.5 1.1.8-.1-.4-.1-.8-.2-1.2l-.1-.1c-.1-.2-.2-.3-.2-.5.4-.2.8 0 1.1.2.6.3 1 .9 1.3 1.6.5.9.7 2 .7 3v18.3c0 1 0 2.1-.2 3.1-.1.5-.2.9-.3 1.4-.1.5-.3 1-.5 1.5-.1.3-.2.7-.5.9"/><path id="prefix__Fill-358" class="prefix__st19" d="M67.3 101.8c.1-.2.3-.2.4-.3.6-.3.9-.9 1-1.6.1-.5.2-.9.1-1.4-.1-.9-.1-1.8-.3-2.7-.2-.8-.3-1.6-.6-2.4 0-.1 0-.3-.1-.5-.2-.2-.1-.5-.3-.6-.2-.3-.4 0-.6.1-.9.5-1.8 1-2.6 1.5s-1.7.9-2.5 1.4c-.7.4-1.5.8-2.3 1.2-.7.4-1.5.8-2.2 1.2-.1.1-.3.3-.4.3v.2c.3.2.3.6.5.9.4.9.5 1.9.7 2.9.1.6.2 1.2.2 1.8 0 .4.1.8.1 1.2 0 .6-.1 1.1-.3 1.6-.1.2-.2.3-.2.5.4-.2.7-.4 1-.6.5-.3 1-.6 1.6-.9l4.2-2.4c.8-.4 1.5-.9 2.3-1.3 0-.1.1-.1.3-.1"/><path id="prefix__Fill-360" class="prefix__st16" d="M61.6 65.4c0 .3.2.6.3.8l.1.1c0 .2.2.3.1.5-.1.1-.2-.1-.4-.1s-.5-.1-.7-.1c.3.7.6 1.5.6 2.3.1.1.1.1 0 .2v.1c.7-.6 1.5-.9 2.3-1.3.1-.1.2-.1.4-.2-.2-.8-.6-1.4-1.2-2-.3-.3-.8-.4-1.2-.6-.2.1-.3.2-.3.3"/><path id="prefix__Fill-362" class="prefix__st17" d="M48.6 83.7c-.8.4-1.5.7-2.3 1.1-.3.2-.5.2-.8-.2-.4-.7-.9-1.3-1.3-2-.5-.7-1-1.4-1.4-2.2-.2-.3-.1-.4.2-.5l2.4-1.2c.2-.1.3 0 .5.1l.4.4c.7 1.1 1.5 2.2 2.2 3.4.2.3.4.5.4.9 0 0-.1.1-.3.2"/><path id="prefix__Fill-364" class="prefix__st14" d="M68.1 91.2c.2-.1.1-.2.1-.3v-9.7-7.9c0-.1.1-.3-.1-.3v18.2"/><path id="prefix__Fill-366" class="prefix__st15" d="M61.6 69.2c0-.1.1-.2 0-.2-.1.1-.1.1 0 .2"/><path id="prefix__Fill-368" class="prefix__st20" d="M43.9 95.1c.1.1.1.1 0 0 .1.1.1 0 0 0 .2 0 .1 0 0 0 .1 0 .1 0 0 0"/><path id="prefix__Fill-370" class="prefix__st21" d="M57.3 77c5.6 3.2 15.3 2.8 21.8-.9l73-42.1c3.3-1.9 5.1-4.3 5.1-6.7 0-1.9-1.2-3.7-3.5-5L123.2 4.4c-5.6-3.2-15.3-2.8-21.8.9l-73 42.1c-3.3 1.9-5.1 4.3-5.1 6.7 0 1.9 1.2 3.7 3.5 5L57.3 77zm9.4 3.7c-3.8 0-7.5-.8-10.2-2.3L26 60.5c-2.8-1.6-4.3-3.9-4.3-6.3 0-2.9 2.2-5.9 5.9-8l73-42.2C107.5 0 118-.4 124 3l30.5 17.9c2.8 1.6 4.3 3.8 4.3 6.3 0 2.9-2.2 5.9-5.9 8l-73 42.2c-3.8 2.2-8.6 3.3-13.2 3.3z"/><path id="prefix__Fill-372" class="prefix__st21" d="M65.2 82.7h1.1v-2h-1.1z"/><path id="prefix__Fill-374" class="prefix__st21" d="M65.2 86.4h1.1v-2h-1.1z"/><path id="prefix__Fill-376" class="prefix__st21" d="M65.2 90.1h1.1v-2h-1.1z"/><path id="prefix__Fill-378" class="prefix__st21" d="M65.2 101.3h1.1v-2h-1.1z"/><path id="prefix__Fill-380" class="prefix__st21" d="M65.2 123.6h1.1v-2h-1.1z"/><path id="prefix__Fill-382" class="prefix__st21" d="M65.2 112.4h1.1v-2h-1.1z"/><path id="prefix__Fill-384" class="prefix__st21" d="M65.2 97.5h1.1v-1.9h-1.1z"/><path id="prefix__Fill-386" class="prefix__st21" d="M65.2 119.8h1.1v-1.9h-1.1z"/><path id="prefix__Fill-388" class="prefix__st21" d="M65.2 116.1h1.1v-2h-1.1z"/><path id="prefix__Fill-390" class="prefix__st21" d="M65.2 108.7h1.1v-2h-1.1z"/><path id="prefix__Fill-392" class="prefix__st21" d="M65.2 93.8h1.1v-2h-1.1z"/><path id="prefix__Fill-394" class="prefix__st21" d="M65.2 105h1.1v-2h-1.1z"/><path id="prefix__Stroke-398" class="prefix__st30" d="M178 62.3l-11.5 6.6"/><path id="prefix__Stroke-399" class="prefix__st30" d="M12.6 99.9l-11.5 6.7"/><path id="prefix__Stroke-400" class="prefix__st30" d="M178 17.2l-11.5 6.6"/><path id="prefix__Stroke-401" class="prefix__st30" d="M171.6 62.5v3.4"/><path id="prefix__Stroke-402" class="prefix__st30" d="M171.6 20.8v2.7"/></g></g><g id="prefix__Group-3" transform="translate(206 69)"><path id="prefix__Rectangle-Copy-6" class="prefix__st2" d="M1.1 19h47v16h-47z"/><path id="prefix__Rectangle-Copy-7" class="prefix__st1" d="M1.1 1h47v16h-47z"/><path id="prefix___x35_2cm" class="prefix__st0" d="M7.6 13.1c.7 0 1.3-.1 1.8-.4.5-.3 1-.6 1.3-1.1s.5-1.1.5-1.8-.2-1.2-.5-1.7c-.3-.4-.7-.8-1.2-1-.5-.3-1.1-.4-1.7-.4-.8 0-1.4.1-1.8.5l.3-2.8h4c.1 0 .2 0 .2-.1.1-.1.1-.1.1-.2v-.6c0-.1 0-.2-.1-.2s-.1-.1-.2-.1H5.4c-.2 0-.3.1-.4.3l-.4 4.7c0 .1 0 .2.1.2s.1.1.2.1h.7c.1 0 .2 0 .3-.1s.1-.1.3-.1c.2-.2.4-.3.6-.4.2-.1.5-.1.8-.1.6 0 1.2.2 1.6.6.4.4.6.9.6 1.5 0 .7-.2 1.2-.6 1.6-.4.3-1 .5-1.6.5-.5 0-.9-.1-1.3-.4-.4-.2-.6-.6-.8-1.1-.1-.2-.2-.3-.4-.3h-.6c-.1 0-.1 0-.2.1-.1 0-.1.1-.1.2 0 .5.2.9.4 1.3.3.4.7.7 1.2 1s1.1.3 1.8.3zM19 13c.1 0 .2 0 .2-.1.1-.1.1-.1.1-.2v-.5c0-.1 0-.2-.1-.2-.1-.1-.1-.1-.2-.1h-4.4L17.3 9c.6-.5 1.1-1 1.3-1.5.3-.5.4-1 .4-1.6 0-.8-.3-1.5-.8-2.1-.4-.5-1.2-.8-2.3-.8-.7 0-1.3.1-1.8.4s-.9.7-1.1 1.1c-.2.5-.4.9-.4 1.4 0 .1 0 .1.1.2s.1.1.2.1h.7c.1 0 .1 0 .2-.1.1.1.2 0 .2-.1.1-.6.3-1 .6-1.3s.8-.5 1.3-.5c.6 0 1 .2 1.3.5.4.3.5.7.5 1.3 0 .4-.1.8-.4 1.2-.3.4-.7.9-1.4 1.4l-3.1 3c-.2.2-.4.4-.4.6v.4c0 .1 0 .2.1.2.1.1.1.1.2.1H19v.1zm7.3.1c.5 0 .9-.1 1.2-.3s.6-.4.7-.6.3-.5.3-.8c0-.1 0-.1-.1-.2-.1 0-.1-.1-.2-.1H27.6s-.1.1-.1.2c-.1.3-.3.6-.5.7-.2.1-.5.2-.8.2-.4 0-.8-.1-1-.4-.2-.3-.4-.7-.4-1.2v-.7c0-.5.2-.9.4-1.2.2-.3.6-.4 1-.4.3 0 .6.1.8.2.2.1.4.4.5.7 0 .1.1.1.1.2H28.2c.1 0 .1 0 .2-.1 0 0 .1-.1.1-.2 0-.3-.1-.5-.3-.8-.2-.3-.4-.2-.7-.3-.3-.2-.7-.3-1.2-.3-.7 0-1.3.2-1.7.6-.4.4-.6 1-.6 1.7v.8c0 .7.2 1.3.6 1.7.4.4 1 .6 1.7.6zm4.1-.1c.1 0 .1 0 .2-.1 0 0 .1-.1.1-.2V10c0-.5.1-.9.3-1.1.2-.2.5-.4.8-.4s.6.1.9.4.3.5.3 1.1v2.8c0 .1 0 .1.1.2 0 0 .1.1.2.1h.4c.1 0 .1 0 .2-.1 0 0 .1-.1.1-.2V10c0-.5.1-.9.3-1.1s.5-.4.8-.4c.4 0 .7.1.9.3s.3.6.3 1.1v2.8c0 .1 0 .1.1.2 0 0 .1.1.2.1h.4c.1 0 .1 0 .2-.1 0 0 .1-.1.1-.2V9.9c0-.7-.2-1.2-.5-1.6-.3-.4-.8-.6-1.3-.6-.4 0-.7.1-1 .2-.3.2-.5.4-.7.7-.5-.6-1-.9-1.8-.9-.6 0-1.1.2-1.5.7V8c0-.1 0-.1-.1-.2 0 0-.1-.1-.2-.1h-.4c-.1 0-.1 0-.2.1 0 0-.1.1-.1.2v4.7c0 .1 0 .1.1.2 0 0 .1.1.2.1h.6z"/><path id="prefix___x32_0_x2C_5in" class="prefix__st0" d="M10.5 31.3c.1 0 .2 0 .2-.1s.1-.1.1-.2v-.5c0-.1 0-.2-.1-.2-.1-.1-.1-.1-.2-.1H6.1l2.8-2.8c.6-.5 1.1-1 1.3-1.5.3-.5.4-1 .4-1.6 0-.8-.3-1.5-.8-2.1s-1.3-.8-2.4-.8c-.7 0-1.3.1-1.8.4s-.9.7-1.1 1.1-.4.9-.4 1.4c0 .1 0 .1.1.2s.1.1.2.1h.7c.1 0 .1 0 .2-.1s.1-.1.1-.2c.1-.6.3-1 .6-1.3.3-.3.8-.5 1.3-.5.6 0 1 .2 1.3.5s.5.7.5 1.3c0 .4-.1.8-.4 1.2-.3.4-.7.9-1.4 1.4l-3.1 3c-.2.2-.3.4-.3.6v.5c0 .1 0 .2.1.2.1.1.1.1.2.1h6.3zm5.5.2c1.2 0 2.1-.4 2.7-1.1s.9-1.6.9-2.8V26v-.8c0-1.1-.3-2-.9-2.8-.6-.7-1.4-1.1-2.7-1.1-1.2 0-2.1.4-2.6 1.1-.6.7-.9 1.6-.9 2.8v2.4c0 1.1.3 2.1.9 2.8s1.4 1.1 2.6 1.1zm0-1.2c-.7 0-1.2-.2-1.6-.7-.4-.5-.6-1.1-.6-2v-2.3c0-.9.2-1.5.6-2 .4-.5.9-.7 1.6-.7s1.2.2 1.6.7.6 1.2.6 2v2.3c0 .9-.2 1.5-.6 2s-.9.7-1.6.7zm5.6 2.1c.2 0 .3-.1.4-.3l.7-1.9c0-.1.1-.2.1-.2 0-.1 0-.1-.1-.2 0-.1-.1-.1-.2-.1h-.9c-.2 0-.4.1-.4.4l-.3 2v.2s.1.1.2.1h.5zm6.1-.9c.7 0 1.3-.1 1.8-.4s1-.6 1.3-1.1.5-1.1.5-1.8-.2-1.2-.5-1.7-.7-.8-1.2-1.1c-.5-.2-1.1-.4-1.7-.4-.8 0-1.4.2-1.8.5l.3-2.8h4c.1 0 .2 0 .2-.1.1-.1.1-.1.1-.2v-.5c0-.1 0-.2-.1-.2-.1-.1-.1-.1-.2-.1h-4.8c-.2 0-.3.1-.4.3l-.4 4.7c0 .1 0 .2.1.2.1.1.1.1.2.1h.7c.1 0 .2 0 .3-.1.1 0 .2-.1.3-.2.2-.2.4-.3.6-.4s.5-.1.8-.1c.6 0 1.2.2 1.6.6s.6.9.6 1.5c0 .7-.2 1.2-.6 1.6s-.9.6-1.6.6c-.5 0-.9-.1-1.3-.4s-.6-.6-.8-1.1c-.1-.2-.2-.3-.4-.3h-.7c-.1 0-.1 0-.2.1s-.1.1-.1.2c0 .5.2.9.4 1.3s.7.7 1.2 1c.5.1 1.1.3 1.8.3zm9.2-6.4c.1 0 .1 0 .2-.1 0 0 .1-.1.1-.2v-.5c0-.1 0-.1-.1-.2 0 0-.1-.1-.2-.1h-.6c-.1 0-.1 0-.2.1s-.1.1-.1.2v.5c0 .1 0 .1.1.2 0 0 .1.1.2.1h.6zm-.1 6.2c.1 0 .1 0 .2-.1 0 0 .1-.1.1-.2v-4.7c0-.1 0-.1-.1-.2 0 0-.1-.1-.2-.1h-.4c-.1 0-.1 0-.2.1 0 0-.1.1-.1.2V31c0 .1 0 .1.1.2 0 0 .1.1.2.1h.4zm2.4 0c.1 0 .1 0 .2-.1 0 0 .1-.1.1-.2v-2.8c0-.5.1-.8.4-1.1s.6-.4 1-.4.8.1 1 .4.3.6.3 1.1V31c0 .1 0 .1.1.2 0 0 .1.1.2.1h.5c.1 0 .1 0 .2-.1 0 0 .1-.1.1-.2v-2.8c0-.7-.2-1.2-.5-1.6-.4-.4-.8-.6-1.5-.6-.4 0-.7.1-1 .2s-.5.3-.7.6v-.4c0-.1 0-.1-.1-.2 0 0-.1-.1-.2-.1h-.4c-.1 0-.1 0-.2.1 0 0-.1.1-.1.2v4.7c0 .1 0 .1.1.2 0 0 .1.1.2.1h.3v-.1z"/></g></g></g></g></svg>